<?xml version="1.0" encoding="utf-8"?>
<!-- Generator: Adobe Illustrator 17.0.0, SVG Export Plug-In . SVG Version: 6.00 Build 0)  -->
<!DOCTYPE svg PUBLIC "-//W3C//DTD SVG 1.1//EN" "http://www.w3.org/Graphics/SVG/1.1/DTD/svg11.dtd">
<svg version="1.1" id="Layer_1" xmlns="http://www.w3.org/2000/svg" xmlns:xlink="http://www.w3.org/1999/xlink" x="0px" y="0px"
	 width="235px" height="87px" viewBox="148.5 156.5 235 87" enable-background="new 148.5 156.5 235 87" xml:space="preserve">
<g id="PathID_2" transform="matrix(1.79369, 0, 0, 1, 254.5, 204)">
</g>
<g id="PathID_1" transform="matrix(1.79369, 0, 0, 1, 254.5, 204)">
	<linearGradient id="SVGID_1_" gradientUnits="userSpaceOnUse" x1="7.358" y1="-36.5" x2="7.358" y2="28.475">
		<stop  offset="0" style="stop-color:#E16158"/>
		<stop  offset="1" style="stop-color:#BC0000"/>
	</linearGradient>
	<path fill="url(#SVGID_1_)" stroke="#FFFFFF" stroke-width="2.5" stroke-miterlimit="10" d="M65.858-21.733v35.441
		c0,9.845-6.667,14.767-20,14.767h-77c-13.333,0-20-4.922-20-14.767v-35.441c0-9.845,6.667-14.767,20-14.767h77
		C59.191-36.5,65.858-31.578,65.858-21.733"/>
</g>
<g>
	<path fill="#FFFFFF" d="M208.678,199.55l2.842,0.718c-0.596,2.334-1.667,4.113-3.215,5.339s-3.44,1.839-5.676,1.839
		c-2.314,0-4.197-0.472-5.647-1.414s-2.554-2.307-3.311-4.094s-1.135-3.706-1.135-5.757c0-2.236,0.427-4.187,1.282-5.852
		s2.07-2.93,3.647-3.794s3.313-1.296,5.208-1.296c2.148,0,3.955,0.547,5.42,1.641s2.485,2.632,3.062,4.614l-2.798,0.659
		c-0.498-1.563-1.221-2.7-2.168-3.413s-2.139-1.069-3.574-1.069c-1.65,0-3.03,0.396-4.138,1.187s-1.887,1.853-2.336,3.186
		s-0.674,2.708-0.674,4.124c0,1.826,0.266,3.42,0.798,4.782c0.532,1.362,1.36,2.381,2.483,3.055s2.339,1.011,3.647,1.011
		c1.592,0,2.939-0.459,4.043-1.377S208.288,201.356,208.678,199.55z"/>
	<path fill="#FFFFFF" d="M224.835,205.16c-0.977,0.83-1.917,1.416-2.82,1.758s-1.873,0.513-2.908,0.513
		c-1.709,0-3.022-0.418-3.94-1.253s-1.377-1.901-1.377-3.2c0-0.762,0.173-1.458,0.52-2.088c0.347-0.629,0.801-1.135,1.362-1.516
		s1.194-0.669,1.897-0.864c0.518-0.137,1.299-0.269,2.344-0.396c2.129-0.254,3.696-0.557,4.702-0.908
		c0.01-0.361,0.015-0.591,0.015-0.688c0-1.074-0.249-1.831-0.747-2.271c-0.674-0.596-1.675-0.894-3.003-0.894
		c-1.24,0-2.156,0.217-2.747,0.652s-1.028,1.204-1.311,2.307l-2.578-0.352c0.234-1.104,0.62-1.995,1.157-2.673
		s1.313-1.201,2.329-1.567s2.192-0.549,3.53-0.549c1.328,0,2.407,0.156,3.237,0.469s1.44,0.706,1.831,1.179s0.664,1.072,0.82,1.794
		c0.088,0.449,0.132,1.26,0.132,2.432v3.516c0,2.451,0.056,4.001,0.168,4.65s0.334,1.272,0.667,1.868h-2.754
		C225.089,206.532,224.914,205.893,224.835,205.16z M224.616,199.271c-0.957,0.391-2.393,0.723-4.307,0.996
		c-1.084,0.156-1.851,0.332-2.3,0.527s-0.796,0.48-1.04,0.856s-0.366,0.794-0.366,1.253c0,0.703,0.266,1.289,0.798,1.758
		s1.311,0.703,2.336,0.703c1.016,0,1.919-0.223,2.71-0.667s1.372-1.052,1.743-1.823c0.283-0.596,0.425-1.475,0.425-2.637V199.271z"
		/>
	<path fill="#FFFFFF" d="M233.8,207.079h-2.446v-21.475h2.637v7.661c1.113-1.396,2.534-2.095,4.263-2.095
		c0.957,0,1.863,0.193,2.717,0.579s1.558,0.928,2.109,1.626s0.984,1.541,1.296,2.527s0.469,2.041,0.469,3.164
		c0,2.666-0.659,4.727-1.978,6.182s-2.9,2.183-4.746,2.183c-1.836,0-3.276-0.767-4.321-2.3V207.079z M233.771,199.184
		c0,1.865,0.254,3.213,0.762,4.043c0.83,1.357,1.953,2.036,3.369,2.036c1.152,0,2.148-0.501,2.988-1.502s1.26-2.492,1.26-4.475
		c0-2.031-0.403-3.53-1.208-4.497s-1.78-1.45-2.922-1.45c-1.152,0-2.148,0.5-2.988,1.501S233.771,197.289,233.771,199.184z"/>
	<path fill="#FFFFFF" d="M247.995,207.079v-21.475h2.637v21.475H247.995z"/>
	<path fill="#FFFFFF" d="M265.368,202.069l2.725,0.337c-0.43,1.592-1.226,2.827-2.388,3.706s-2.646,1.318-4.453,1.318
		c-2.275,0-4.08-0.701-5.413-2.103c-1.333-1.401-2-3.366-2-5.896c0-2.617,0.674-4.648,2.021-6.094
		c1.348-1.445,3.096-2.168,5.244-2.168c2.08,0,3.779,0.708,5.098,2.124s1.978,3.408,1.978,5.977c0,0.156-0.005,0.391-0.015,0.703
		h-11.602c0.098,1.709,0.581,3.018,1.45,3.926s1.953,1.362,3.252,1.362c0.967,0,1.792-0.254,2.476-0.762
		S264.967,203.183,265.368,202.069z M256.71,197.807h8.687c-0.117-1.309-0.449-2.29-0.996-2.944
		c-0.84-1.016-1.929-1.523-3.267-1.523c-1.211,0-2.229,0.405-3.054,1.216S256.798,196.449,256.71,197.807z"/>
	<path fill="#FFFFFF" d="M271.403,213.041v-21.519h2.402v2.021c0.566-0.791,1.206-1.384,1.919-1.78
		c0.713-0.396,1.577-0.593,2.593-0.593c1.328,0,2.5,0.342,3.516,1.025s1.782,1.648,2.3,2.893s0.776,2.61,0.776,4.094
		c0,1.592-0.286,3.024-0.856,4.299c-0.572,1.274-1.402,2.251-2.49,2.93c-1.09,0.679-2.234,1.019-3.436,1.019
		c-0.879,0-1.668-0.186-2.365-0.557c-0.7-0.371-1.273-0.84-1.722-1.406v7.573H271.403z M273.791,199.389
		c0,2.002,0.405,3.481,1.216,4.438c0.811,0.957,1.792,1.436,2.945,1.436c1.172,0,2.176-0.496,3.01-1.487
		c0.836-0.991,1.253-2.526,1.253-4.606c0-1.982-0.408-3.467-1.224-4.453s-1.789-1.479-2.922-1.479c-1.123,0-2.117,0.525-2.981,1.575
		C274.222,195.861,273.791,197.387,273.791,199.389z"/>
	<path fill="#FFFFFF" d="M288.059,207.079v-15.557h2.373v2.358c0.605-1.104,1.165-1.831,1.677-2.183
		c0.514-0.352,1.077-0.527,1.692-0.527c0.889,0,1.792,0.283,2.71,0.85l-0.908,2.446c-0.645-0.381-1.289-0.571-1.934-0.571
		c-0.576,0-1.094,0.173-1.553,0.52s-0.786,0.828-0.981,1.443c-0.293,0.938-0.439,1.963-0.439,3.076v8.145H288.059z"/>
	<path fill="#FFFFFF" d="M308.728,202.069l2.725,0.337c-0.43,1.592-1.226,2.827-2.388,3.706s-2.646,1.318-4.453,1.318
		c-2.275,0-4.079-0.701-5.413-2.103c-1.332-1.401-1.999-3.366-1.999-5.896c0-2.617,0.674-4.648,2.021-6.094s3.096-2.168,5.244-2.168
		c2.08,0,3.779,0.708,5.098,2.124s1.978,3.408,1.978,5.977c0,0.156-0.005,0.391-0.015,0.703h-11.602
		c0.098,1.709,0.581,3.018,1.45,3.926s1.953,1.362,3.252,1.362c0.967,0,1.792-0.254,2.476-0.762S308.327,203.183,308.728,202.069z
		 M300.07,197.807h8.687c-0.117-1.309-0.449-2.29-0.996-2.944c-0.84-1.016-1.929-1.523-3.267-1.523
		c-1.211,0-2.229,0.405-3.054,1.216C300.614,195.365,300.158,196.449,300.07,197.807z"/>
	<path fill="#FFFFFF" d="M313.708,202.436l2.607-0.41c0.146,1.045,0.554,1.846,1.224,2.402c0.668,0.557,1.604,0.835,2.805,0.835
		c1.211,0,2.109-0.247,2.695-0.74s0.879-1.071,0.879-1.735c0-0.596-0.259-1.064-0.776-1.406c-0.361-0.234-1.26-0.532-2.695-0.894
		c-1.934-0.488-3.274-0.911-4.021-1.267c-0.748-0.356-1.314-0.85-1.699-1.479c-0.387-0.63-0.579-1.326-0.579-2.087
		c0-0.693,0.158-1.335,0.476-1.926s0.75-1.082,1.297-1.472c0.41-0.303,0.969-0.559,1.678-0.769c0.707-0.21,1.467-0.315,2.277-0.315
		c1.221,0,2.293,0.176,3.215,0.527c0.924,0.352,1.604,0.828,2.044,1.428s0.742,1.404,0.908,2.41l-2.578,0.352
		c-0.117-0.801-0.457-1.426-1.019-1.875s-1.354-0.674-2.38-0.674c-1.211,0-2.075,0.2-2.593,0.601s-0.776,0.869-0.776,1.406
		c0,0.342,0.107,0.649,0.322,0.923c0.215,0.283,0.552,0.518,1.011,0.703c0.264,0.098,1.04,0.322,2.329,0.674
		c1.865,0.498,3.166,0.906,3.903,1.223s1.316,0.779,1.736,1.384s0.63,1.357,0.63,2.256c0,0.879-0.257,1.706-0.769,2.482
		c-0.514,0.776-1.253,1.377-2.22,1.802s-2.061,0.638-3.281,0.638c-2.021,0-3.563-0.42-4.622-1.26S314.001,204.086,313.708,202.436z"
		/>
	<path fill="#FFFFFF" d="M328.708,202.436l2.607-0.41c0.146,1.045,0.554,1.846,1.224,2.402c0.668,0.557,1.604,0.835,2.805,0.835
		c1.211,0,2.109-0.247,2.695-0.74s0.879-1.071,0.879-1.735c0-0.596-0.259-1.064-0.776-1.406c-0.361-0.234-1.26-0.532-2.695-0.894
		c-1.934-0.488-3.274-0.911-4.021-1.267c-0.748-0.356-1.314-0.85-1.699-1.479c-0.387-0.63-0.579-1.326-0.579-2.087
		c0-0.693,0.158-1.335,0.476-1.926s0.75-1.082,1.297-1.472c0.41-0.303,0.969-0.559,1.678-0.769c0.707-0.21,1.467-0.315,2.277-0.315
		c1.221,0,2.293,0.176,3.215,0.527c0.924,0.352,1.604,0.828,2.044,1.428s0.742,1.404,0.908,2.41l-2.578,0.352
		c-0.117-0.801-0.457-1.426-1.019-1.875s-1.354-0.674-2.38-0.674c-1.211,0-2.075,0.2-2.593,0.601s-0.776,0.869-0.776,1.406
		c0,0.342,0.107,0.649,0.322,0.923c0.215,0.283,0.552,0.518,1.011,0.703c0.264,0.098,1.04,0.322,2.329,0.674
		c1.865,0.498,3.166,0.906,3.903,1.223s1.316,0.779,1.736,1.384s0.63,1.357,0.63,2.256c0,0.879-0.257,1.706-0.769,2.482
		c-0.514,0.776-1.253,1.377-2.22,1.802s-2.061,0.638-3.281,0.638c-2.021,0-3.563-0.42-4.622-1.26S329.001,204.086,328.708,202.436z"
		/>
</g>
</svg>
