<?xml version="1.0" encoding="utf-8"?>
<!-- Generator: Adobe Illustrator 17.0.0, SVG Export Plug-In . SVG Version: 6.00 Build 0)  -->
<!DOCTYPE svg PUBLIC "-//W3C//DTD SVG 1.1//EN" "http://www.w3.org/Graphics/SVG/1.1/DTD/svg11.dtd">
<svg version="1.1" id="Layer_1" xmlns="http://www.w3.org/2000/svg" xmlns:xlink="http://www.w3.org/1999/xlink" x="0px" y="0px"
	 width="6456px" height="3376px" viewBox="0 0 6456 3376" enable-background="new 0 0 6456 3376" xml:space="preserve">
<circle fill="none" cx="5723.632" cy="1504.513" r="15.5"/>
<g>
	<path fill="#191919" d="M2472.37,2826.611c-5.358,46.053-18.211,58.916-50.341,67.479c-26.628,7.094-62.695,15.248-77.726,19.111
		c-15.03,3.865-19.753,6.475-19.753,9.457c0,0,0,0.162,0.033,0.451c0.014,0.146,0.032,0.293,0.06,0.436
		c0.649,3.963,86.25,14.65,127.975,14.65h723.532c41.721,0,127.325-10.688,127.971-14.65c0.029-0.143,0.047-0.289,0.062-0.436
		c0.031-0.289,0.031-0.451,0.031-0.451c0-2.982-4.722-5.592-19.751-9.457c-15.031-3.863-51.1-12.018-77.728-19.111
		c-32.128-8.563-44.983-21.426-50.34-67.479c-4.004-34.434-15.193-170.65-20.583-237.197h-642.858
		C2487.562,2655.961,2476.374,2792.178,2472.37,2826.611z"/>
	<path fill="#191919" d="M4354.229,337.363H1274.529c-40.081,0-72.685,32.61-72.685,72.691v2071.67
		c0,40.082,32.604,72.691,72.685,72.691H2494.17c0,0.002,0,0.002,0,0.004h640.421c0-0.002,0-0.002,0-0.004h1219.637
		c40.085,0,72.689-32.609,72.689-72.691V410.054C4426.918,369.973,4394.313,337.363,4354.229,337.363z M4290.238,2119.715H1338.524
		V474.043h2951.714V2119.715z"/>
</g>
<g>
	<rect x="1339.524" y="475.043" fill="#90AABB" width="2951.714" height="1645.672"/>
	<linearGradient id="SVGID_1_" gradientUnits="userSpaceOnUse" x1="4349.9199" y1="1990.7494" x2="1280.8428" y2="605.0079">
		<stop  offset="0" style="stop-color:#E5D4D4"/>
		<stop  offset="0.6305" style="stop-color:#B3AAAC"/>
		<stop  offset="0.635" style="stop-color:#E9D6D7"/>
		<stop  offset="1" style="stop-color:#FFE9E9"/>
	</linearGradient>
	<rect x="1339.524" y="475.043" opacity="0.5" fill="url(#SVGID_1_)" width="2951.714" height="1645.672"/>
</g>
<path fill="#191919" d="M6162.79,2860.998c0-1.744-1.425-3.172-3.175-3.172h-268.707c0.056-0.102,0.106-0.209,0.161-0.311h-871.328
	c-3.559,17.895-19.343,31.383-38.282,31.383h-375.758c-18.939,0-34.723-13.488-38.281-31.383h-871.328
	c0.055,0.102,0.105,0.209,0.16,0.311h-268.704c-1.744,0-3.177,1.428-3.177,3.172v39.162c0,1.746,0.715,3.332,1.866,4.482h-0.035
	c0,0,31.168,33.553,125.842,33.553h2483.042c94.676,0,125.844-33.553,125.844-33.553h-0.003c1.15-1.15,1.863-2.736,1.863-4.482
	V2860.998z"/>
<rect x="3817.664" y="2711.717" fill="none" width="1953.538" height="11.209"/>
<path fill="#191919" d="M5826.502,1374.582H3760.659c-40.165,0-73.027,32.864-73.027,73.033v1388.729h2211.9V1447.615
	C5899.532,1407.446,5866.669,1374.582,5826.502,1374.582z M4793.58,1422.858c8.561,0,15.5,6.94,15.5,15.5
	c0,8.56-6.939,15.5-15.5,15.5c-8.56,0-15.499-6.94-15.499-15.5C4778.081,1429.798,4785.021,1422.858,4793.58,1422.858z
	 M5771.202,2711.717v11.209H3817.664v-11.209V1503.124h1953.538V2711.717z"/>
<g>
	<polygon fill="#90AABB" points="5771.202,2711.717 5771.202,2722.926 3817.664,2722.926 3817.664,2711.717 3817.664,1503.124 
		5771.202,1503.124 	"/>
	<linearGradient id="SVGID_2_" gradientUnits="userSpaceOnUse" x1="5834.5391" y1="2582.6504" x2="3754.3274" y2="1643.3989">
		<stop  offset="0" style="stop-color:#E5D4D4"/>
		<stop  offset="0.6305" style="stop-color:#B3AAAC"/>
		<stop  offset="0.635" style="stop-color:#E9D6D7"/>
		<stop  offset="1" style="stop-color:#FFE9E9"/>
	</linearGradient>
	<polygon opacity="0.5" fill="url(#SVGID_2_)" points="5771.202,2711.717 5771.202,2722.926 3817.664,2722.926 3817.664,2711.717 
		3817.664,1503.124 5771.202,1503.124 	"/>
</g>
<path fill="#191919" d="M1758.274,1265.003H565.412c-29.298,0-53.124,23.827-53.124,53.124v1566.93
	c0,29.305,23.826,53.139,53.124,53.139h1192.863c29.301,0,53.127-23.834,53.127-53.139v-1566.93
	C1811.402,1288.83,1787.575,1265.003,1758.274,1265.003z M1161.848,1327.416c8.07,0,14.607,6.543,14.607,14.616
	c0,8.061-6.537,14.602-14.607,14.602c-8.072,0-14.61-6.542-14.61-14.602C1147.237,1333.959,1153.775,1327.416,1161.848,1327.416z
	 M1161.843,2890.637c-15.943,0-28.866-12.924-28.866-28.865c0-15.943,12.923-28.867,28.866-28.867
	c15.941,0,28.865,12.924,28.865,28.867C1190.708,2877.713,1177.784,2890.637,1161.843,2890.637z M1686.883,2784.982H636.808
	V1418.223h1050.076V2784.982z"/>
<g>
	<rect x="636.807" y="1418.223" fill="#90AABB" width="1050.076" height="1366.759"/>
	<linearGradient id="SVGID_3_" gradientUnits="userSpaceOnUse" x1="1854.276" y1="2414.2476" x2="469.4134" y2="1788.958">
		<stop  offset="0" style="stop-color:#E5D4D4"/>
		<stop  offset="0.6547" style="stop-color:#E9D6D7"/>
		<stop  offset="0.6552" style="stop-color:#B3AAAC"/>
		<stop  offset="1" style="stop-color:#FFE9E9"/>
	</linearGradient>
	<rect x="636.807" y="1418.223" opacity="0.5" fill="url(#SVGID_3_)" width="1050.076" height="1366.759"/>
</g>
<g>
	<rect x="1688.925" y="2018.451" fill="#90AABB" width="420.953" height="750.988"/>
	<linearGradient id="SVGID_4_" gradientUnits="userSpaceOnUse" x1="2215.0654" y1="2536.4734" x2="1583.7365" y2="2251.4172">
		<stop  offset="0" style="stop-color:#E5D4D4"/>
		<stop  offset="0.6207" style="stop-color:#B3AAAC"/>
		<stop  offset="0.6399" style="stop-color:#E9D6D7"/>
		<stop  offset="1" style="stop-color:#FFE9E9"/>
	</linearGradient>
	<rect x="1688.925" y="2018.451" opacity="0.5" fill="url(#SVGID_4_)" width="420.953" height="750.988"/>
</g>
<g id="_x23_ffffffff">
	<path fill="#020202" d="M2259.585,1080.689c18.354-15.168,46.806-19.883,68.877-9.461c5.888,5.366,12.664,12.594,9.407,20.938
		c-6.25,18.208-27.202,26.304-45.622,29.375c-3.75,13.524-6.94,27.203-11.052,40.665c1.743,0.465,5.197,1.396,6.907,1.861
		c3.684,1.055,7.269,2.326,10.756,3.815c7.763-5.273,16.677-9.244,23.683-15.354c-3.651-10.981,1.151-23.791,11.94-29.499
		c10.493-7.382,24.077-7.413,36.61-6.855c9.736,1.675,20.525,7.382,22.827,17.215c-0.559,5.18-1.48,10.36-2.697,15.447
		c-13.815,16.688-39.734,20.534-59.7,12.283c-7.631,4.529-15.131,9.306-22.499,14.206c2.763,5.242,4.177,10.919,4.605,16.75
		c3.947-0.031,7.894-0.093,11.874-0.155c29.307-0.248,58.648-0.775,87.922,0.062l0.526,2.699l0.658,7.693l-1.349,0.279
		c-33.419-0.403-66.937-0.807-100.388,0.217l-1.283,0.093c-3.684,5.025-7.598,9.926-11.841,14.517
		c1.579,1.458,4.737,4.312,6.315,5.739c4.21,3.784,8.355,7.6,12.466,11.477c17.828-8.437,42.399-7.414,56.773,6.793
		c9.276,12.035,5.986,27.917-0.132,40.541c-4.835-0.465-7.335,1.737-7.565,6.576c-18.387,13.493-47.596,14.641-65.095-0.775
		c-11.216-12.283-7.532-31.453,2.632-43.209c-4.079-3.815-8.125-7.662-12.137-11.539c-2.368-2.295-4.77-4.56-7.171-6.824
		c-7.203,2.823-14.703,5.056-22.433,6.297c-5.394,19.852-10.164,39.859-15.821,59.649c2.039,0.496,6.151,1.551,8.19,2.078
		c9.671,2.295,17.959,8.189,24.505,15.137c10.328,15.789,10.657,36.137,1.71,52.546c-16.742,34.152-66.312,53.166-101.211,31.329
		c-12.039-9.74-18.979-25.063-16.709-40.045c3.256-32.445,34.34-58.625,68.154-61.665c4.671-17.743,9.637-35.423,14.834-53.042
		c0.625-2.171,1.283-4.343,1.941-6.514c-7.697-0.558-14.933-3.009-21.841-6.049c-8.157,5.18-16.348,10.267-24.505,15.416
		c2.632,16.223-5.164,33.779-19.999,42.651c-15.394,10.919-38.978,13.431-54.898,2.419c-10.756-11.539-4.407-27.42,3.388-38.649
		c13.979-17.339,41.741-26.304,62.66-15.354c6.875-4.281,13.782-8.499,20.755-12.594c1.151-0.682,3.388-2.078,4.539-2.761
		c-1.48-4.963-2.763-9.957-3.881-15.013c-20.69,0.434-41.412-0.093-62.101,0.248c-17.894,25.497-58.582,42.433-87.758,23.884
		c-11.479-13.09-3.816-31.639,7.697-42.185c19.045-18.921,51.938-30.274,77.561-16.626c7.302,6.452,8.848,15.695,7.861,24.722
		c1.974-0.031,5.954-0.124,7.927-0.155c17.927-0.434,35.853-0.093,53.78-0.279c2.072-6.483,6.907-11.353,12.335-15.602
		c-1.447-1.458-4.408-4.374-5.855-5.863c-2.401-2.357-4.802-4.746-7.171-7.103c-13.617,4.622-30.097,6.886-42.695-1.334
		c-9.309-9.182-1.842-22.644,5.888-30.243c15.624-12.718,44.076-18.487,58.713-1.644c0.888,9.492-2.862,18.704-9.802,25.528
		c2.368,2.078,4.737,4.156,7.138,6.235c2.566,2.264,5.164,4.529,7.763,6.793c6.71-3.133,13.914-5.304,21.446-5.583
		c3.684-12.904,7.796-25.745,10.624-38.835c0.099-6.793-8.256-4.125-12.762-5.583c-4.605-1.985-8.881-4.529-12.96-7.289
		C2245.771,1101.069,2250.408,1088.072,2259.585,1080.689z"/>
	<path fill="#020202" d="M3225.083,1122.254c-5.394-6.235-4.605-18.952,4.605-21.775c6.348-2.823,12.335,1.427,17.367,4.591
		c-0.131,5.118,0.23,10.329-1.085,15.323l-1.316,1.861C3238.997,1125.263,3229.721,1128.148,3225.083,1122.254z"/>
	<path fill="#020202" d="M2425.726,1106.497c11.019-0.155,22.071-0.186,33.09,0.062c0.427,1.117,1.316,3.381,1.743,4.498
		c17.269,44.698,35.557,89.023,53.089,133.628c1.349-2.637,2.73-5.242,4.013-7.91c17.071-43.581,35.524-86.666,52.595-130.247
		c11.019-0.217,22.005-0.186,33.024-0.031c-0.296,47.117,0.099,94.297-0.559,141.445c-0.428,8.065,2.039,16.874-1.447,24.474
		c-6.282,2.636-13.519,0.806-20.196,1.52c1.612-49.072-0.987-98.236,2.039-147.276c-13.914,28.475-23.946,58.594-36.445,87.659
		c-7.335,19.542-16.841,38.401-22.531,58.439l-1.677,0.713c-6.25,0.651-12.565,0.807-18.815,0.341
		c-16.38-43.085-34.34-85.611-50.885-128.665c-2.302-6.328-4.737-12.625-7.861-18.642c1.974,49.071,0.427,98.205,1.579,147.307
		c-6.907-0.186-13.782-0.093-20.689,0.186C2425.891,1218.164,2426.055,1162.33,2425.726,1106.497z"/>
	<path fill="#020202" d="M2783.795,1106.528c31.347,1.179,64.075-4.436,94.172,6.297c19.012,6.607,34.504,21,42.07,38.68
		c9.078,27.576,9.44,59.215-5.098,85.177c-12.96,22.861-40.293,35.051-66.838,36.819c-21.347,1.117-42.76,0.714-64.108,0.186
		c0.428-55.368,0.757-110.767-0.132-166.105L2783.795,1106.528 M2805.998,1124.55c-0.033,43.426,0.099,86.883-0.099,130.309
		c1.283,0.496,3.783,1.427,5.033,1.892c19.604-1.613,40.359,0.775,58.615-7.755c18.815-7.693,30.163-26.18,32.465-44.884
		c3.125-22.365,0.362-48.234-17.762-64.674c-7.236-5.552-15.887-11.198-25.459-11.384
		C2842.41,1121.293,2823.431,1125.759,2805.998,1124.55z"/>
	<path fill="#020202" d="M2958.061,1188.448c4.539-20.596,21.742-39.332,44.438-42.558c24.933-5.149,53.483,7.041,62.562,30.243
		c1.48,5.056,3.059,10.112,4.079,15.292c0.493,7.724,0.493,15.447,0.395,23.171c-30.755,0.248-61.509-0.62-92.231,0.465
		c0.395,3.629,0.691,7.289,1.447,10.857c1.02,6.762,4.046,13.028,7.763,18.828c7.434,9.709,20.229,15.075,32.827,14.548
		c15.098,0.31,29.965-3.04,43.714-8.778c0.033,6.266,0.132,12.531,0.132,18.797c-27.827,9.647-62.43,12.625-87.001-5.863
		C2954.409,1244.778,2952.239,1214.007,2958.061,1188.448 M2999.571,1164.471c-14.374,5.832-21.084,21.496-21.051,35.423
		l3.388-2.202c21.643,1.737,43.385-0.217,65.094,0.496c-0.954-9.988-2.631-20.72-10.46-28.196
		C3027.168,1160.842,3011.577,1159.756,2999.571,1164.471z"/>
	<path fill="#020202" d="M3122.655,1147.659c21.578-5.366,45.392-2.761,65.358,6.421l-0.724,1.706
		c-2.171,4.591-4.342,9.182-6.48,13.803c-6.842-2.14-13.618-4.467-20.558-6.204c-13.091-2.543-27.268-2.543-39.307,3.536
		c-6.085,5.273-6.381,13.648-1.743,19.852c20.328,15.757,50.885,16.006,67.726,36.385c7.467,15.075,4.21,35.516-11.479,44.729
		c-21.314,12.376-48.484,10.236-71.772,4.653c-2.73-1.024-5.46-2.109-8.125-3.257c-0.033-6.359-0.066-12.749-0.263-19.138
		c18.058,8.561,38.945,12.656,58.878,8.251c6.118-1.489,11.118-5.459,14.769-10.205c2.829-7.289,0.197-15.354-6.644-19.697
		c-18.913-12.407-43.714-14.951-60.687-30.336c-6.644-8.375-7.993-19.852-4.671-29.685
		C3100.42,1157.585,3111.571,1150.636,3122.655,1147.659z"/>
	<path fill="#020202" d="M3297.875,1160.097c16.775-18.115,48.056-19.852,68.548-6.452c4.671,3.381,8.388,7.786,13.19,11.012
		c0.822-5.583,1.48-11.198,2.138-16.812c5.855-0.155,11.743-0.217,17.63-0.217c-1.217,43.767-0.395,87.535-0.526,131.302
		c-0.132,8.406-0.329,17.029-3.914,24.908c-6.184,12.997-18.683,22.768-33.616,25.435c-21.808,3.939-44.964,2.575-65.95-4.374
		c-0.954-0.403-2.862-1.241-3.815-1.644c0.23-6.204,0.23-12.438,0.197-18.642c19.933,8.84,43.846,12.997,65.193,6.855
		c17.104-6.049,22.499-24.567,21.216-40.231c0.198-4.591,0.46-9.182,0.79-13.772c-17.663,22.427-54.174,25.59-77.166,8.778
		c-13.519-11.725-19.472-29.22-20.229-46.156C3280.047,1199.336,3282.843,1176.413,3297.875,1160.097 M3304.354,1198.622
		c-1.941,17.712-1.513,37.812,10.953,52.297c17.104,16.874,54.536,10.267,60.194-13.834c4.342-20.689,4.77-43.736-5.921-62.875
		l-1.25-0.372c-7.861-10.515-23.288-12.78-35.952-11.012C3314.617,1165.587,3305.9,1183.361,3304.354,1198.622z"/>
	<path fill="#020202" d="M3487.862,1147.721c21.117-6.235,49.273-2.854,61.772,16.316c7.368,17.836,5,37.191,5.328,55.865
		c0.099,18.115-0.329,36.261,0.395,54.376c-7.467-0.682-14.966-0.465-22.466-0.496c1.118-25.094,0.164-50.25,0.559-75.406
		c0.296-9.864-0.362-20.472-7.203-28.506c-11.874-10.236-30.491-9.244-44.306-3.288c-13.19,6.452-17.006,21.682-17.663,34.586
		c-0.592,24.319-0.165,48.668-0.165,73.018c-7.105-0.093-14.21-0.217-21.281-0.403c0.033-42.092,0.756-84.216-0.395-126.277
		c5.855,0.093,11.71,0.155,17.598,0.217c0.921,5.49,1.842,10.95,2.664,16.471
		C3470.758,1158.267,3477.501,1150.233,3487.862,1147.721z"/>
	<path fill="#020202" d="M2634.857,1147.535c8.355,0.093,16.709,0.093,25.064,0.186c11.578,15.851,23.42,31.546,34.241,47.862
		c11.776-15.975,22.795-32.415,34.833-48.203c7.631,0.341,15.887-0.775,22.499,3.629c-15.789,18.797-29.143,39.27-44.603,58.284
		c1.382,1.83,2.73,3.629,4.145,5.459c15.164,19.821,30.064,39.859,45.195,59.711c-9.407-1.768-23.617,4.56-29.209-5.428
		c-8.947-12.407-17.894-24.846-26.808-37.253c-2.039-2.73-4.079-5.428-6.118-8.096c-10.986,16.161-23.156,31.515-34.176,47.645
		c-8.881,2.264-18.025,2.947-27.169,2.481c16.545-20.938,31.511-42.961,48.484-63.588
		C2666.204,1189.068,2650.153,1168.534,2634.857,1147.535z"/>
	<path fill="#020202" d="M3223.537,1147.721c7.335-0.093,14.703-0.093,22.071,0.093c-0.033,1.644-0.099,4.963-0.099,6.607
		c-0.296,33.159,0.066,66.349-0.197,99.508c-0.099,6.39,0.296,12.811,1.579,19.108l-1.316,0.372
		c-7.434,0.465-14.868,0.558-22.269,0.527C3224.326,1231.874,3223.866,1189.782,3223.537,1147.721z"/>
</g>
<g id="_x23_ffffffff_1_">
	<path fill="#020202" d="M4314.913,1992.559c16.034-11.909,40.889-15.61,60.17-7.428c5.144,4.213,11.063,9.887,8.218,16.438
		c-5.459,14.295-23.763,20.651-39.854,23.062c-3.276,10.618-6.063,21.358-9.655,31.927c1.523,0.365,4.54,1.096,6.035,1.461
		c3.218,0.828,6.35,1.826,9.396,2.995c6.781-4.14,14.568-7.257,20.689-12.055c-3.189-8.621,1.006-18.679,10.431-23.16
		c9.167-5.796,21.034-5.82,31.981-5.382c8.505,1.315,17.931,5.796,19.942,13.516c-0.488,4.067-1.293,8.134-2.356,12.128
		c-12.068,13.102-34.711,16.122-52.153,9.644c-6.667,3.556-13.218,7.306-19.655,11.154c2.414,4.115,3.649,8.572,4.023,13.151
		c3.448-0.024,6.896-0.073,10.373-0.122c25.603-0.195,51.234-0.609,76.808,0.049l0.46,2.119l0.575,6.04l-1.178,0.219
		c-29.194-0.316-58.475-0.633-87.698,0.171l-1.121,0.073c-3.218,3.945-6.638,7.793-10.344,11.397
		c1.379,1.145,4.138,3.385,5.517,4.505c3.678,2.971,7.298,5.966,10.89,9.01c15.574-6.624,37.039-5.82,49.596,5.333
		c8.103,9.449,5.229,21.918-0.115,31.829c-4.224-0.365-6.408,1.364-6.609,5.163c-16.063,10.594-41.579,11.495-56.866-0.609
		c-9.798-9.644-6.58-24.694,2.299-33.924c-3.563-2.995-7.097-6.015-10.603-9.059c-2.069-1.802-4.167-3.58-6.264-5.358
		c-6.293,2.216-12.844,3.969-19.597,4.944c-4.712,15.586-8.879,31.294-13.821,46.831c1.782,0.39,5.374,1.218,7.155,1.632
		c8.448,1.802,15.689,6.429,21.407,11.884c9.022,12.396,9.31,28.371,1.494,41.254c-14.626,26.813-57.929,41.741-88.417,24.596
		c-10.517-7.647-16.58-19.677-14.597-31.44c2.845-25.473,29.999-46.027,59.538-48.414c4.081-13.93,8.419-27.811,12.959-41.644
		c0.546-1.705,1.121-3.409,1.695-5.114c-6.724-0.438-13.045-2.362-19.08-4.749c-7.126,4.067-14.281,8.061-21.407,12.104
		c2.299,12.737-4.511,26.521-17.471,33.485c-13.448,8.572-34.05,10.545-47.958,1.9c-9.396-9.059-3.85-21.528,2.96-30.344
		c12.212-13.613,36.464-20.651,54.739-12.055c6.005-3.361,12.04-6.673,18.131-9.887c1.006-0.536,2.96-1.632,3.966-2.167
		c-1.293-3.896-2.414-7.817-3.391-11.787c-18.074,0.341-36.177-0.073-54.25,0.195c-15.632,20.018-51.176,33.315-76.664,18.752
		c-10.028-10.277-3.333-24.84,6.724-33.12c16.638-14.855,45.372-23.768,67.756-13.053c6.379,5.065,7.729,12.323,6.868,19.409
		c1.724-0.024,5.201-0.097,6.925-0.122c15.661-0.341,31.321-0.073,46.981-0.219c1.81-5.09,6.034-8.913,10.775-12.25
		c-1.265-1.145-3.851-3.434-5.115-4.603c-2.098-1.851-4.195-3.726-6.264-5.577c-11.896,3.629-26.292,5.406-37.298-1.047
		c-8.132-7.208-1.609-17.778,5.144-23.744c13.649-9.985,38.504-14.514,51.292-1.291c0.776,7.452-2.5,14.685-8.563,20.042
		c2.069,1.632,4.138,3.263,6.235,4.895c2.241,1.778,4.511,3.555,6.781,5.333c5.862-2.46,12.155-4.164,18.735-4.384
		c3.218-10.131,6.81-20.213,9.281-30.49c0.086-5.333-7.212-3.239-11.149-4.384c-4.022-1.559-7.758-3.556-11.321-5.723
		C4302.844,2008.559,4306.896,1998.355,4314.913,1992.559z"/>
	<path fill="#020202" d="M5158.359,2025.192c-4.712-4.895-4.022-14.88,4.023-17.096c5.546-2.216,10.775,1.12,15.172,3.604
		c-0.115,4.018,0.201,8.11-0.948,12.03l-1.149,1.461C5170.514,2027.555,5162.411,2029.819,5158.359,2025.192z"/>
	<path fill="#020202" d="M4460.051,2012.821c9.626-0.122,19.281-0.146,28.907,0.049c0.374,0.877,1.149,2.655,1.523,3.531
		c15.085,35.093,31.062,69.893,46.377,104.913c1.178-2.07,2.385-4.116,3.506-6.21c14.913-34.216,31.033-68.042,45.947-102.258
		c9.626-0.171,19.223-0.146,28.849-0.024c-0.258,36.992,0.086,74.033-0.488,111.05c-0.374,6.332,1.782,13.248-1.264,19.215
		c-5.488,2.07-11.81,0.633-17.643,1.193c1.408-38.527-0.862-77.126,1.781-115.628c-12.155,22.356-20.918,46.003-31.838,68.822
		c-6.408,15.343-14.712,30.149-19.683,45.881l-1.465,0.56c-5.459,0.511-10.977,0.633-16.437,0.268
		c-14.31-33.826-29.999-67.214-44.452-101.016c-2.011-4.968-4.138-9.912-6.868-14.636c1.724,38.526,0.374,77.102,1.379,115.652
		c-6.034-0.146-12.04-0.073-18.074,0.146C4460.195,2100.492,4460.338,2056.656,4460.051,2012.821z"/>
	<path fill="#020202" d="M4772.856,2012.845c27.384,0.925,55.975-3.483,82.267,4.944c16.608,5.187,30.143,16.487,36.751,30.368
		c7.931,21.65,8.247,46.49-4.454,66.873c-11.321,17.948-35.2,27.519-58.389,28.907c-18.648,0.877-37.355,0.56-56.003,0.146
		c0.374-43.47,0.661-86.965-0.115-130.41L4772.856,2012.845 M4792.251,2026.994c-0.028,34.094,0.086,68.213-0.086,102.307
		c1.121,0.39,3.304,1.12,4.396,1.485c17.125-1.266,35.257,0.609,51.205-6.088c16.436-6.04,26.35-20.554,28.361-35.239
		c2.73-17.559,0.316-37.869-15.517-50.776c-6.322-4.359-13.879-8.791-22.241-8.938
		C4824.061,2024.437,4807.481,2027.944,4792.251,2026.994z"/>
	<path fill="#020202" d="M4925.092,2077.162c3.965-16.17,18.994-30.88,38.82-33.412c21.781-4.043,46.723,5.528,54.653,23.744
		c1.293,3.969,2.672,7.939,3.563,12.006c0.431,6.064,0.431,12.128,0.345,18.192c-26.867,0.195-53.733-0.487-80.572,0.365
		c0.345,2.849,0.604,5.723,1.264,8.524c0.891,5.309,3.535,10.228,6.782,14.782c6.494,7.623,17.671,11.836,28.677,11.422
		c13.189,0.243,26.177-2.387,38.188-6.892c0.029,4.919,0.115,9.839,0.115,14.758c-24.309,7.574-54.538,9.912-76.003-4.603
		C4921.902,2121.387,4920.005,2097.229,4925.092,2077.162 M4961.354,2058.337c-12.557,4.578-18.418,16.877-18.39,27.811l2.959-1.729
		c18.907,1.364,37.901-0.17,56.866,0.39c-0.833-7.842-2.299-16.268-9.138-22.137
		C4985.463,2055.488,4971.843,2054.635,4961.354,2058.337z"/>
	<path fill="#020202" d="M5068.879,2045.137c18.85-4.213,39.654-2.167,57.096,5.041l-0.632,1.339
		c-1.896,3.604-3.793,7.208-5.661,10.837c-5.977-1.68-11.896-3.507-17.959-4.871c-11.437-1.997-23.821-1.997-34.338,2.776
		c-5.316,4.14-5.574,10.715-1.523,15.586c17.758,12.371,44.453,12.566,59.165,28.566c6.523,11.836,3.678,27.884-10.028,35.117
		c-18.62,9.717-42.354,8.036-62.699,3.653c-2.385-0.804-4.77-1.656-7.098-2.557c-0.029-4.992-0.057-10.009-0.23-15.026
		c15.775,6.721,34.022,9.936,51.435,6.478c5.345-1.169,9.712-4.286,12.902-8.012c2.471-5.723,0.172-12.055-5.804-15.464
		c-16.522-9.741-38.188-11.738-53.016-23.817c-5.804-6.575-6.982-15.586-4.08-23.306
		C5049.455,2052.93,5059.196,2047.475,5068.879,2045.137z"/>
	<path fill="#020202" d="M5221.949,2054.903c14.655-14.222,41.981-15.586,59.883-5.065c4.081,2.654,7.327,6.113,11.522,8.645
		c0.719-4.384,1.293-8.792,1.868-13.199c5.115-0.122,10.258-0.171,15.401-0.171c-1.063,34.362-0.345,68.724-0.459,103.086
		c-0.115,6.6-0.288,13.37-3.419,19.556c-5.402,10.204-16.321,17.875-29.367,19.969c-19.051,3.093-39.28,2.021-57.613-3.434
		c-0.833-0.317-2.5-0.974-3.333-1.291c0.201-4.871,0.201-9.766,0.172-14.636c17.413,6.941,38.303,10.204,56.952,5.382
		c14.942-4.749,19.654-19.288,18.534-31.586c0.172-3.604,0.402-7.208,0.689-10.813c-15.43,17.607-47.326,20.091-67.411,6.892
		c-11.81-9.206-17.011-22.941-17.672-36.237C5206.375,2085.709,5208.817,2067.713,5221.949,2054.903 M5227.609,2085.149
		c-1.695,13.906-1.322,29.686,9.569,41.059c14.942,13.248,47.642,8.061,52.584-10.861c3.793-16.243,4.167-34.338-5.172-49.364
		l-1.092-0.292c-6.867-8.256-20.344-10.033-31.407-8.645C5236.575,2059.213,5228.96,2073.168,5227.609,2085.149z"/>
	<path fill="#020202" d="M5387.92,2045.186c18.447-4.895,43.044-2.24,53.963,12.81c6.437,14.003,4.368,29.199,4.655,43.86
		c0.086,14.222-0.288,28.469,0.345,42.691c-6.523-0.536-13.074-0.365-19.626-0.39c0.977-19.702,0.144-39.452,0.489-59.202
		c0.258-7.744-0.316-16.073-6.293-22.38c-10.373-8.037-26.637-7.257-38.706-2.582c-11.522,5.065-14.856,17.023-15.431,27.154
		c-0.517,19.093-0.144,38.21-0.144,57.327c-6.207-0.073-12.413-0.171-18.591-0.317c0.029-33.047,0.661-66.118-0.345-99.141
		c5.115,0.073,10.229,0.122,15.373,0.171c0.805,4.31,1.609,8.597,2.328,12.932
		C5372.978,2053.466,5378.868,2047.159,5387.92,2045.186z"/>
	<path fill="#020202" d="M4642.746,2045.04c7.298,0.073,14.597,0.073,21.896,0.146c10.115,12.444,20.459,24.767,29.913,37.577
		c10.287-12.542,19.913-25.449,30.43-37.844c6.667,0.268,13.879-0.609,19.655,2.849c-13.793,14.758-25.459,30.831-38.964,45.759
		c1.207,1.437,2.385,2.849,3.621,4.286c13.247,15.562,26.263,31.294,39.481,46.88c-8.218-1.388-20.632,3.58-25.517-4.262
		c-7.816-9.741-15.631-19.507-23.418-29.248c-1.782-2.143-3.563-4.262-5.345-6.356c-9.597,12.688-20.229,24.743-29.855,37.406
		c-7.758,1.778-15.747,2.313-23.734,1.948c14.453-16.438,27.527-33.729,42.354-49.924
		C4670.129,2077.649,4656.107,2061.527,4642.746,2045.04z"/>
	<path fill="#020202" d="M5157.009,2045.186c6.408-0.073,12.844-0.073,19.281,0.073c-0.029,1.291-0.086,3.897-0.086,5.187
		c-0.258,26.033,0.058,52.091-0.172,78.125c-0.086,5.017,0.259,10.058,1.379,15.001l-1.149,0.292
		c-6.494,0.365-12.988,0.438-19.453,0.414C5157.698,2111.256,5157.296,2078.209,5157.009,2045.186z"/>
</g>
<path fill="#191919" d="M2073.196,1849.695H1714.31c-43.871,0-79.952,34.145-79.952,78.018v929.109
	c0,43.873,36.082,81.373,79.952,81.373h358.964c43.872,0,79.179-37.5,79.179-81.373v-929.109
	C2152.453,1883.84,2117.067,1849.695,2073.196,1849.695z M1851.21,1926.369h83.31c4.822,0,8.729,2.921,8.729,7.74
	c0,4.822-3.907,7.742-8.729,7.742h-83.31c-4.821,0-8.73-2.92-8.73-7.742C1842.48,1929.29,1846.39,1926.369,1851.21,1926.369z
	 M2103.882,2768.816h-420.953v-750.988h420.953V2768.816z M1892.867,2879.18c-14.326,0-25.938-11.613-25.938-25.939
	s11.612-25.936,25.938-25.936c14.324,0,25.939,11.609,25.939,25.936S1907.191,2879.18,1892.867,2879.18z"/>
</svg>
