<?xml version="1.0" encoding="utf-8"?>
<!-- Generator: Adobe Illustrator 17.0.0, SVG Export Plug-In . SVG Version: 6.00 Build 0)  -->
<!DOCTYPE svg PUBLIC "-//W3C//DTD SVG 1.1//EN" "http://www.w3.org/Graphics/SVG/1.1/DTD/svg11.dtd">
<svg version="1.1" id="Capa_1" xmlns="http://www.w3.org/2000/svg" xmlns:xlink="http://www.w3.org/1999/xlink" x="0px" y="0px"
	 width="400px" height="300px" viewBox="0 0 400 300" enable-background="new 0 0 400 300" xml:space="preserve">
<symbol  id="img" viewBox="-208.691 -92.578 417.382 185.156">
	<g>
		<path fill="#808285" d="M-169.824-90.43h-38.867V92.578h38.867V78.027h-20.41V-75.781h20.41V-90.43z"/>
		<path fill="#808285" d="M-129.296-50.586h-19.043V92.578h19.043V-50.586z"/>
		<path fill="#808285" d="M42.481-50.586H24.024v66.992c0,8.594-1.237,14.712-3.711,18.359c-2.476,3.646-6.608,5.469-12.402,5.469
			c-8.92,0-17.676-5.534-26.27-16.602v-74.219h-18.359v66.992c0,8.594-1.237,14.712-3.711,18.359
			c-2.475,3.646-6.641,5.469-12.5,5.469c-8.92,0-17.644-5.534-26.172-16.602v-74.219h-18.457V53.027h18.457V39.844
			c8.724,10.352,18.392,15.527,29.004,15.527c15.169,0,24.837-6.25,29.004-18.75c6.9,8.138,12.759,13.296,17.578,15.479
			c4.817,2.181,9.537,3.271,14.16,3.271c21.224,0,31.836-12.729,31.836-38.184V-50.586z"/>
		<path fill="#808285" d="M153.027-42.578c0-33.333-15.039-50-45.116-50c-13.022,0-23.291,2.832-30.811,8.496
			S65.821-70.801,65.821-61.23h19.043c0-11.328,7.617-16.992,22.852-16.992c8.593,0,15.233,2.36,19.921,7.08
			c4.688,4.721,7.031,13.981,7.031,27.783v5.176c-8.203-9.896-18.066-14.844-29.589-14.844c-13.542,0-24.023,4.817-31.445,14.453
			C66.211-28.939,62.5-15.952,62.5,0.391c0,16.927,4.15,30.322,12.451,40.186s18.733,14.795,31.299,14.795
			c11.196,0,20.669-3.452,28.417-10.352v8.008h18.359V-42.578z M134.667-20.801v49.219c-7.943,8.398-17.025,12.598-27.245,12.598
			c-7.878,0-14.177-3.403-18.896-10.205c-4.722-6.804-7.08-16.943-7.08-30.42c0-12.761,2.229-22.446,6.689-29.053
			c4.458-6.608,10.628-9.912,18.506-9.912C116.927-38.574,126.269-32.65,134.667-20.801z"/>
		<path fill="#808285" d="M208.691-90.43h-38.77v14.648h20.41V78.027h-20.41v14.551h38.77V-90.43z"/>
	</g>
</symbol>
<rect fill="#6D6E71" width="400" height="300"/>
<use xlink:href="#img"  width="417.382" height="185.156" x="-208.691" y="-92.578" transform="matrix(0.2752 0 0 -0.3 198.1157 148.4917)" overflow="visible"/>
</svg>
