<?xml version="1.0" encoding="utf-8"?>
<!-- Generator: Adobe Illustrator 17.0.0, SVG Export Plug-In . SVG Version: 6.00 Build 0)  -->
<!DOCTYPE svg PUBLIC "-//W3C//DTD SVG 1.1//EN" "http://www.w3.org/Graphics/SVG/1.1/DTD/svg11.dtd">
<svg version="1.1" id="Capa_1" xmlns="http://www.w3.org/2000/svg" xmlns:xlink="http://www.w3.org/1999/xlink" x="0px" y="0px"
	 width="1900px" height="791px" viewBox="0 0 1900 791" enable-background="new 0 0 1900 791" xml:space="preserve">
<rect x="-16" y="-15.119" fill="#E4E4E4" width="1937.932" height="829.119"/>
<linearGradient id="SVGID_1_" gradientUnits="userSpaceOnUse" x1="952.9659" y1="814" x2="952.9659" y2="-15.1186">
	<stop  offset="0" style="stop-color:#FFFFFF;stop-opacity:0"/>
	<stop  offset="1" style="stop-color:#FEBFE0"/>
</linearGradient>
<linearGradient id="SVGID_2_" gradientUnits="userSpaceOnUse" x1="-24.8999" y1="367.7193" x2="1914.0316" y2="367.7193" gradientTransform="matrix(1 0 0 -1 8.4 767.16)">
	<stop  offset="0" style="stop-color:#FFFFFF"/>
	<stop  offset="1" style="stop-color:#000000"/>
</linearGradient>
<rect x="-16" y="-15.119" fill="url(#SVGID_1_)" stroke="url(#SVGID_2_)" stroke-miterlimit="10" width="1937.932" height="829.119"/>
<g>
	<path fill="#FFFFFF" d="M1920.432,201.969c1.4-0.74,2.4-0.55,3.01,0.55C1922.022,203.209,1921.012,203.029,1920.432,201.969z"/>
	<path fill="#FFFFFF" d="M2100.482,354.629c-0.64-1.58,1.6-2.39,2.73-2.92v2.2c-0.5,0.27-1.5,0.82-2,1.1L2100.482,354.629z"/>
</g>
<g>
	<path fill="#00C3E4" d="M1211.842-17.371h358.16c12.17,4.97,23.25,12.34,33.3,20.76c6.76,5.38,9.51,14.38,16.6,19.41
		c4.63,1.38,9.58,1.05,14.26,2.3c3.27,0.91,5.53,4.01,8.99,4.45c2.65,0.82,6.31,0.3,8.1,2.8c4.78,12.2,13.02,23.02,23.67,30.7
		c9.3,6.87,20.37,10.78,31.16,14.65c18.29,6.16,36.97,11.15,55.78,15.43c11.92,2.88,23.84,5.79,35.9,8.08
		c5.32,1.04,10.6,2.47,16.05,2.61l0.01,0.15c9.08,1.04,18.18,2.03,27.34,2.24c16.36,0.75,32.67,2.26,48.93,4.19
		c6.86,0.89,13.57,2.89,20.52,3.09c2.47-0.09,5.21,0.05,7.36-1.43c7.04-4.84,16.1-3.73,24.16-4.95c26.02-2.6,52-5.53,78.02-8.3
		c11.78-1.05,22.33,6.46,34.09,5.62c11.97,0.45,23.97-1.46,35.91,0.07c4.38,0.08,8.7,0.84,13.06,1.25v28.88
		c-13.31,0-26.62-0.03-39.93,0c-8.72,0.05-17.39,1.22-26.11,0.99c-6.73-0.28-13.39,1.22-20.11,0.83
		c-13.29-0.02-26.58,0.11-39.87,0.16c-5.59,0.52-11.37-0.44-16.81,1.24c-1.26,1.03-3.42,1.75-3.14,3.74
		c-0.12,6.33,0.06,12.66-0.04,18.99c-0.19,4.74-2.66,8.93-5.17,12.79c-0.76,1.34-2.98,2.02-3.75,0.36
		c-4.46-7.08-8.12-14.65-11.99-22.06c-5.35-10.19-13.75-18.73-23.7-24.47c-7.12-4.13-15.14-6.36-23.16-7.93
		c-31.36-5.89-63.21-0.12-94.72,0.91c-6.72,0.22-12.21-4.06-18.41-5.86c-7.94-2.49-15.83-5.32-24.1-6.46
		c-11.84-2.53-23.65-5.2-35.47-7.82c-26.87-6.13-54.2-9.91-81.4-14.17c-5.06-0.42-10.05-1.45-15.13-1.38
		c-7.31-0.16-14.41-2.09-21.05-5.08c-7.61-2.62-15.21-5.34-22.32-9.15c-5.47-3.01-11.01-5.87-16.75-8.31
		c-7.63-3.26-13.84-8.86-20.46-13.69c-15.69-11.51-29.5-25.41-45.7-36.24c-8.17-6.18-16.8-12.08-26.65-15.22
		c-10.8-3.08-21.88-5.05-32.92-7.02c-14.32-1.69-28.75-2.41-43.16-2.52c-21.64-0.01-43.31-0.54-64.92,0.81
		C1288.112-9.701,1249.492-10.001,1211.842-17.371z"/>
	<path fill="#00C3E4" d="M1123.852,172.109c10.94-4.19,22.77-4.92,34.35-5.52c8.17,0.25,16.2,2.36,23.94,4.87
		c4.91,1.85,9.77,3.96,14.95,4.98c4.05,0.46,8.08,1.11,12.17,1.28c11.67,3.25,23.31-2.31,33.34-7.83c1.67-1.1,3.68-0.98,5.53-0.45
		c5.16,1.32,10.49,1.6,15.76,2.22c4.62,0.6,8.77,2.97,13.38,3.64c6.17,0.99,12.24,2.65,18.51,2.96c12.16,0.87,23.29-5.88,35.34-6.36
		c3.64-0.15,7.52,0.03,10.73,1.93c4.34,4.54,6.66,10.53,10.61,15.37c2.39,3.27,5.6,5.8,8.88,8.14c11.37,8.36,22.53,17.5,35.79,22.71
		c12.17,4,25.14,1.46,37.51-0.12c12.79-1.96,25.7-3.03,38.48-5.07c17.08-2.63,33.9-6.74,50.46-11.65
		c21.31-5.98,42.84-11.21,64.56-15.43c10.3-1.59,20.64-4.22,31.13-3.12c8.36,0.98,16.6,2.94,25.03,3.23
		c9.92,1.94,19.91-0.23,29.87-0.26c11.91-1.17,23.81-3.51,34.91-8.13c7.09-2.64,13.55-7.14,21.07-8.47
		c-0.3,0.67-0.89,2.03-1.19,2.71c-1.25,1.78-2.67,3.42-4.01,5.12c-1.48,1.88-3.17,4.15-2.6,6.69c1.31,3.76,4.78,6.34,8.51,7.46
		c4.66,1.52,8.82,4.14,13.23,6.22c3.24,1.51,6.06,3.76,9.33,5.23c6.13,2.93,12.95,3.99,19.16,6.76c6.74,2.98,13.25,6.47,19.54,10.32
		c8.61,4.92,17.38,9.85,24.52,16.85c6.41,6.96,14.62,11.86,21.54,18.27c11.28,11.41,25.86,18.63,38.23,28.71
		c16.3,12.88,33.22,26.02,44.02,44.14c2.63,7.06,6.76,13.4,10.6,19.84c0.74,2.25,1.84,4.36,3.41,6.17
		c4.19,5.21,4.63,12.14,6.68,18.27c2.45,11.27,2.2,23.32,6.99,33.98c5.77,18.58,12.8,37.04,23.59,53.35
		c8.03,11.16,18.37,20.7,30.1,27.86c11.6,5.59,23.85,9.73,35.89,14.23c4.99,2.11,10.47,2.65,15.51,4.68
		c16.4,3.44,33.46,4.27,50.01,1.26v5.16c-10.35,3.86-21.41,5.18-31.88,8.54c-2.57,0.35-0.9,2.52,0.67,2.91
		c3.41,1.33,6.3,3.71,9.72,5.04c6.09,4.65,14.18,5.31,21.49,6.76v84.77c-16.21-0.75-32.37-2.42-48.46-4.49
		c-11.35-1.71-22.81-3.27-33.74-6.91c-12.65-4.17-25.16-8.95-36.93-15.21c-6.83-3.44-12.98-8.03-19.56-11.88
		c-13.09-10.66-26.94-20.67-37.68-33.84c-4.84-5.5-10.58-10.35-14.1-16.87c-0.72-1.42-2.3-1.89-3.56-2.62
		c-1.14-1.16-2.24-2.34-3.24-3.59c-11.29-12.89-21.96-26.36-31.05-40.9c-7-10.35-14.92-20.08-20.99-31.04
		c-0.84-1.33-1.62-2.68-2.39-4.04c-4.43-7.48-9.09-14.83-13.62-22.25c-9.39-15.64-21.11-29.89-34.76-41.99
		c-14.99-12.9-31.41-24.21-49.09-33.11c-7.84-3.97-16.12-7.23-24.84-8.52c-8.63-1.66-17.44-1.12-26.16-1.25
		c-4.55-0.13-9.12,0.12-13.58,1.03c-11.5,1.59-22.74,4.63-33.8,8.07c-18.75,5.98-36.96,13.79-53.94,23.74
		c-17.62,11-33.32,24.76-48.1,39.27c-16.68,17.68-31.59,37.12-50.01,53.09c-16.6,15.67-34.36,30.33-54.19,41.75
		c-14.98,8.79-31.78,14.72-49.11,16.32c-11.08,1.12-22.24,0.07-33.17-1.76c-8.91-2.42-18.24-1.95-27.32-3.13
		c-8.56-1.68-16.44-5.6-24.49-8.79c-7.01-3.18-14.26-6.02-20.66-10.35c-8.72-7.19-15.07-17.31-25.36-22.53
		c-3.91-0.97-8.12-1.03-11.66-3.18c-6.96-3.83-15.07-6.16-22.98-4.39c-4.6,1.83-8.78,4.53-13.03,7.04
		c-7.59,6.78-15.03,14.13-19.56,23.41c-6.44,12.37-7.11,27.8-1.09,40.46c4.31,9.34,10.06,18.31,18.19,24.78
		c6.69,4.99,11.7,12.55,12.99,20.87c0.46,6.64-2.36,13.33-7.28,17.8c-9.71,9.04-19.53,18.23-31.25,24.67
		c-6.6,3.52-15.45,3.35-20.35,9.63c-1.89,1.95-1.18,4.73-0.1,6.88c2.8,1.31,5.93,1.5,8.94,0.89c6.95-1.24,14.23-1.34,20.84-4.04
		c12.3-5.58,23.56-13.08,35.15-19.92c6.01-3.47,11.68-7.53,17.03-11.94c5.32-4.02,9.79-9.43,12.08-15.74
		c0.67-1.71,1.14-3.48,1.68-5.23c1.73,6.65-3.01,12.32-6.27,17.61c-4.94,6.05-11.7,10.27-17.83,15.01
		c-13.06,8.04-25.95,16.41-39.6,23.44c-4.3,1.76-8.81,3.21-13.48,3.48c0.02,0.31,0.07,0.92,0.09,1.23
		c-5.92,1.53-12.21,1.88-18.24,0.88c-5.42-1.21-8.31-6.63-8.77-11.75c0.3-2.06,0.88-4.04,1.35-6.05c-2.7,0.1-4.79,1.9-6.97,3.26
		c-8.83,5.2-18.72,8.42-28.86,9.83c-6.37,0.74-12.29,3.39-18.58,4.5c-9.06,1.4-17.7,4.65-26.66,6.49
		c-19.91,4.97-39.93,9.5-59.96,13.94c-3.47,0.67-6.96,1.19-10.38,2.07c-0.61,0.14-1.83,0.43-2.44,0.57
		c-5.16,0.9-10.38,1.46-15.47,2.69c-9.54,1.27-19.11,2.27-28.68,3.32c-13.64,0.54-27.31,0.53-40.95-0.08
		c-23.62-1.93-46.74-7.83-69.22-15.16c-47.44-15.66-91.24-40.14-134.82-64.17c-17.42-9.51-34.72-19.23-51.98-29.02
		c-25.71-14.36-51.9-28.06-76.01-45.07c-15.39-11.18-31.32-21.73-45.51-34.45c-4.18-3.88-6.99-8.92-10.04-13.67
		c-3.36-5.26-3.34-11.82-2.74-17.82c1.64-4.7,4.71-8.7,7.45-12.81c2.48-3.87,6.32-6.55,10.19-8.86
		c17.05-11.17,37.77-14.16,57.64-16.02c44.34-3.13,88.84,3.11,131.9,13.42c41.19,9.61,82.74,19.28,125.16,21.03
		c27.5,1.08,55.15-4.26,80.34-15.31c12.75-6.56,25.67-13.08,36.88-22.12c26.68-19.02,47.76-45.91,59.68-76.44
		c7.65-20.04,10.63-41.53,11.19-62.88c0.74-24.65,0.56-49.86,8.37-73.54c4.72-14.2,11.98-28.19,23.6-37.93
		c-1.82,4.09-5.03,7.3-7.47,11.01c-6.04,9.04-10.59,19.05-13.61,29.49c-6.99,23.33-6.16,47.93-6.12,72.01
		c0.07,20.92-1.92,42-7.98,62.09c-9.56,30.16-28.04,57.27-51.87,77.98c-5.76,5.68-12.68,9.97-19.17,14.75
		c-9.1,7.47-19.98,12.22-30.38,17.53c-17.26,8.75-36.35,13.1-55.39,15.78c-17.01,1.11-34.14,0.96-51.08-1.01
		c-34.98-3.78-69.17-12.41-103.48-19.94c-22.74-5.31-45.77-9.8-69.15-10.82c-10.03-2.44-20.36-0.46-30.49-0.03
		c-6.25,1.49-12.84,1.8-18.67,4.79c-4.05,1.49-7.14,6.03-5.88,10.37c0.87,2.9,2.89,6.35,6.4,5.92c26.22,1.95,52.61,3.15,78.43,8.41
		c16.78,3.4,33.45,7.36,49.97,11.88c20.83,5.76,41.76,11.18,62.76,16.29c27.52,6.42,55.79,10.65,84.1,9.24
		c5.01-0.66,9.99-1.58,15.04-1.86c16.84-3.14,33.51-7.91,49.02-15.3c7.75-3.82,15.53-7.62,22.95-12.07
		c7.65-4.87,14.95-10.27,22.29-15.59c7.47-6.54,15.03-13.04,21.74-20.39c7.66-7.87,14.13-16.79,20.32-25.84
		c5.13-7.89,9.29-16.36,13.38-24.82c8.45-21.13,13.67-43.67,14.49-66.45c1.23-25.7-2.91-51.27-2.13-76.95
		c0.65-18.63,4.43-38,15.57-53.36C1100.422,184.489,1111.522,176.509,1123.852,172.109z"/>
	<path fill="#00C3E4" d="M2040.322,244.459c17.63-2.43,36.65,4.22,48.08,18.08c5.4,6.54,10.01,13.69,14.81,20.68v8.18
		c-3.11-8.65-8.65-16.2-15.21-22.56c-6.68-7.36-15.87-12.31-25.65-13.98c-10.01-1.85-20.2,0.37-29.81,3.16
		c-10.12,2.98-18.32,10.02-25.59,17.38c-10.47,10.23-18.66,22.59-25.11,35.66c-7.28,17.98-13.79,36.85-14.22,56.41l-0.18,0.04
		c-1,8.53,0.83,17.14,3.27,25.29c1.97,5.51,4.5,10.82,5.76,16.57c4.31,9.85,6.51,20.5,11.01,30.29c2.35,5.94,5.97,11.27,8.66,17.02
		c1.43,1.1,3.1,2.23,3.46,4.16c0.07,1.76,2.03,2.28,2.66,3.73c1.16,3.17,4.47,4.73,6.04,7.67c-0.68-0.12-2.05-0.36-2.73-0.48
		c-0.32-0.34-0.95-1.04-1.26-1.39c-14.19-8.42-23.38-22.83-31.1-37c-6.6-12.01-12.3-24.5-17.43-37.2
		c-2.4-7.64-4.42-15.51-4.34-23.57c-0.1-7.07,0.22-14.14,0.46-21.2c0.89-4.88,1.55-9.81,2.19-14.74c1.57-0.77,1.54-2.65,1.99-4.13
		c1.06-5.74,3.23-11.21,4.15-16.98c1.88-8.44,5.72-16.32,10.33-23.59c9.21-14.67,22.07-26.71,36.06-36.76
		C2016.422,248.129,2028.512,245.589,2040.322,244.459z"/>
</g>
<g>
	<path fill="#33CFE9" d="M1802.972-17.371h100.92c6.04,3.56,12.13,7.17,17.15,12.16c14.98,14.37,30.36,28.92,40.56,47.25
		c2.94,5.56,6.13,11.02,8.46,16.88c1.53,4.35,4.4,8.44,9.09,9.67c5.94,1.79,10.98,5.63,14.15,11
		c-19.01,6.51-36.69,16.45-55.98,22.22c-6.85,2.5-14.43,3.14-20.64,7.18c-6.88-6.89-14.55-13.36-19.01-22.2
		c-6.04-8.51-12.16-17.03-17.6-25.95c2.42-1.89,5.11-4.04,5.61-7.29c1.37-5.83-2.55-11.07-6.47-14.91
		c-9.49-9.15-21.6-14.75-32.96-21.15c-8.47-7.49-15.81-16.17-24.33-23.61C1816.552-11.241,1809.702-14.461,1802.972-17.371z"/>
	<path fill="#33CFE9" d="M1960.382,137.849c5.44-1.68,11.22-0.72,16.81-1.24c13.29-0.05,26.58-0.18,39.87-0.16
		c4.87,5.35,10.48,10.06,16.76,13.7c8.63,5.06,17.46,9.85,26.79,13.5c14.16,5.38,28.14,11.24,42.6,15.78v27.2
		c-10.49-4.36-20.73-9.27-30.91-14.3c-7.85-3.52-15.75-6.97-23.85-9.84c-10.42-4.22-21.46-6.74-31.73-11.36
		c-8.91-3.82-18.05-7.07-26.91-11c-10.74-4.93-21.44-9.94-31.72-15.76C1957.762,141.879,1958.892,139.729,1960.382,137.849z"/>
	<path fill="#33CFE9" d="M1380.762,178.099c2.83-10.13,8.49-19.68,16.39-26.64c0.42,0.45,1.26,1.36,1.67,1.81
		c-0.07,2.81,0.14,5.65-0.31,8.44c-1.05,2.24-1.77,4.61-2.33,7.02c0.54,1.29,0.61,2.65,0.07,3.96c-2.5,8.96-8.68,16.28-15.04,22.83
		C1379.252,189.929,1379.052,183.779,1380.762,178.099z"/>
	<path fill="#33CFE9" d="M1674.132,181.079c9.1-0.25,17.9-2.85,26.84-4.36c0.33,0.01,1,0.04,1.33,0.05
		c-7.36,2.91-15.37,3.25-23.06,4.72C1677.512,181.749,1675.812,181.329,1674.132,181.079z"/>
	<path fill="#33CFE9" d="M1722.352,185.549c-0.57-2.54,1.12-4.81,2.6-6.69c5.4,0.09,10.8,0.38,16.18,1.07
		c10,0.06,19.63,2.83,29.18,5.47c2.38,2.71,4.84,5.35,7.51,7.79c0.03,1.01,0.07,2.03,0.13,3.04c-0.72,0.06-2.17,0.16-2.89,0.21
		c0.53,0.34,1.6,1.02,2.14,1.36c4.81,1.96,10.03,0.68,14.97,1.96c3.23,0.76,6.61,0.28,9.85,0.99c1.63,1.63,4.19,1.66,5.93,3.2
		c3.44,2.77,8.14,3.49,11.26,6.71c1.99,2.01,3.98,4.02,6.04,5.98c2.48,2.16,2.51,6.07,5.45,7.83c0.04,0.4,0.12,1.2,0.16,1.6
		c-7.45,2.12-15.22,1.01-22.71-0.11c-5.61-1.87-10.26-5.85-16.01-7.39c-6.38-3.49-13.08-6.22-19.85-8.82
		c-1.33-1.5-2.79-2.86-4.28-4.16c-0.32-1.27-1.05-2.29-2.18-2.95c-0.78-1.45-0.22-3.03,1.55-3.22c-7.75-0.54-15.53-0.21-23.29-0.19
		c-4.41-2.08-8.57-4.7-13.23-6.22C1727.132,191.889,1723.662,189.309,1722.352,185.549z"/>
	<path fill="#33CFE9" d="M1931.032,349.349c2.4,2.61,5.29,4.85,7.07,7.98c2.62,4.65,3.44,10.01,4.36,15.19
		c0.05,11.96,2.63,23.72,5.65,35.25c-4.79-10.66-4.54-22.71-6.99-33.98c-2.05-6.13-2.49-13.06-6.68-18.27
		C1932.872,353.709,1931.772,351.599,1931.032,349.349z"/>
	<path fill="#33CFE9" d="M1558.532,426.559c12.98,4.76,25.2,11.94,35.04,21.73c4.71,5.01,9.31,10.55,11.09,17.35
		c0.71,4.28,0.31,8.64-0.1,12.94c-0.22,2.75-2.62,4.4-4.57,5.97c-2.99,2.25-5.49,5.11-8.67,7.09c-1.46,1.07-3.45,1.78-4,3.69
		c-4.12,3.75-9.76,4.78-15,6c-11.44,2.61-23.25,1.12-34.74-0.25c-12.9-1.76-25.82-3.94-38.29-7.69
		C1521.082,473.019,1539.772,449.669,1558.532,426.559z"/>
	<path fill="#33CFE9" d="M643.102,440.979c10.13-0.43,20.46-2.41,30.49,0.03c-14.84-0.18-30.11-0.3-44.24,4.9
		c-2.58,0.91-4.49,2.99-6.62,4.62c-0.18,2.27-0.22,4.56-0.07,6.84c1.34,1.24,2.31,2.78,2.29,4.69c-3.51,0.43-5.53-3.02-6.4-5.92
		c-1.26-4.34,1.83-8.88,5.88-10.37C630.262,442.779,636.852,442.469,643.102,440.979z"/>
	<path fill="#33CFE9" d="M2071.332,522.849c10.47-3.36,21.53-4.68,31.88-8.54v6.14c-10.62,2.89-21.75,2.84-32.67,3.03
		c0.37,0.57,1.09,1.71,1.46,2.28C2070.432,525.369,2068.762,523.199,2071.332,522.849z"/>
	<path fill="#33CFE9" d="M2081.722,530.799c7.24,0.08,14.42-0.81,21.49-2.36v9.12
		C2095.902,536.109,2087.812,535.449,2081.722,530.799z"/>
	<path fill="#33CFE9" d="M1909.182,530.509c1.26,0.73,2.84,1.2,3.56,2.62c3.52,6.52,9.26,11.37,14.1,16.87
		c10.74,13.17,24.59,23.18,37.68,33.84c-15.76,3.87-31.72,6.88-47.41,11.01c-17.05,4.08-33.72,9.53-50.66,14.02
		c-43.32,13.1-87.33,24.32-132.2,30.61c-44.96,6.47-90.59,8.86-135.93,5.68c-21.64-1.39-43.14-4.26-64.61-7.16
		c-22.16-3.4-44.15-8.03-66.51-9.94c-30.23-1.49-60.33,2.76-90.07,7.78c-5.74,0.42-11.22,2.26-16.86,3.27
		c-12.12,2.54-24.24,5.09-36.01,9.01c-15.55,4.02-30.44,10.04-45.56,15.37c-15.47,6-30.73,12.53-46.12,18.72
		c-10.98,4.49-21.35,10.49-32.79,13.84c-8.87,2.74-17.3,7.05-26.58,8.31c-8.72,1.38-17.35,3.22-26.07,4.58
		c-9.28,0.34-18.59,0.26-27.88-0.13c-4.63-0.09-9.03-1.65-13.49-2.71c-7.31-1.91-14.85-2.89-22.09-5.07
		c-9.4-3.86-19.06-7.11-28.11-11.78c-3.17-1.54-6.28-3.24-9.63-4.35c-7.32-2.75-12.79-9.66-20.81-10.51
		c20.03-4.44,40.05-8.97,59.96-13.94c8.96-1.84,17.6-5.09,26.66-6.49c6.29-1.11,12.21-3.76,18.58-4.5
		c10.14-1.41,20.03-4.63,28.86-9.83c2.18-1.36,4.27-3.16,6.97-3.26c-0.47,2.01-1.05,3.99-1.35,6.05c0.46,5.12,3.35,10.54,8.77,11.75
		c6.03,1,12.32,0.65,18.24-0.88c-0.02-0.31-0.07-0.92-0.09-1.23c4.67-0.27,9.18-1.72,13.48-3.48c13.65-7.03,26.54-15.4,39.6-23.44
		c6.13-4.74,12.89-8.96,17.83-15.01c3.26-5.29,8-10.96,6.27-17.61c-0.54,1.75-1.01,3.52-1.68,5.23c0.23-3.03-1.36-5.71-2.96-8.13
		c-5.74-8.34-9.01-18.01-12.78-27.32c-1.48-3.59-2.49-7.43-1.9-11.33c6.06-2.03,12.5-0.22,18.68,0.28
		c4.93,0.65,9.92,0.83,14.87,1.42c28.89,3.43,57.96,6.64,87.1,5.3c5-0.55,9.37,2.58,14.25,3.01c3.04-2.37,7.13-1.1,10.68-1.35
		c13.76,0.88,26.72,6.02,39.8,9.97c12.56,4.59,25.17,9.06,37.82,13.36c17.32,5.43,34.81,10.3,52.29,15.16
		c25.84,7.39,52.19,13.43,78.99,15.9c47.24,4.56,95-0.15,141.22-10.4c40.55-9.18,79.92-23.34,117.18-41.77
		c17.24-8.14,34.2-16.98,50.52-26.82C1911.392,533.789,1910.032,532.329,1909.182,530.509z"/>
	<path fill="#33CFE9" d="M996.842,679.719c5.09-1.23,10.31-1.79,15.47-2.69c0.03,2.51-0.01,5.03-0.14,7.55
		c-1.95,0.35-3.89,0.83-5.88,0.89C1002.902,684.009,999.792,681.919,996.842,679.719z"/>
</g>
<g>
	<path fill="#FF0F41" d="M1728.242-12.781c9.58-3.43,20.01-3.03,29.95-1.67c10.12,2.02,20.16,4.51,29.91,7.91
		c12.14,4.2,24.42,8.04,36.27,13.05c7.52,3.2,14.61,7.27,21.88,10.98c11.36,6.4,23.47,12,32.96,21.15
		c3.92,3.84,7.84,9.08,6.47,14.91c-0.5,3.25-3.19,5.4-5.61,7.29c-9.42,5.97-20.05,9.55-30.62,12.87
		c-15.23,4.73-30.65,8.89-46.27,12.09c-13.67,3.05-27.58,4.72-41.32,7.33c-18.81-4.28-37.49-9.27-55.78-15.43
		c-10.79-3.87-21.86-7.78-31.16-14.65c16.5-1.72,33.37-2.72,49.11-8.41c7.01-2.57,14.52-6.15,18.11-13.08
		c1.45-4.39,0.45-9.13-0.67-13.48l-0.92-0.28c-4.22-12.1-16.86-19.52-19.74-32.22C1721.352-8.481,1724.512-11.461,1728.242-12.781z"
		/>
	<g>
		<path fill="#FF0F41" d="M1415.312,76.049c12.7-2.72,25.95-5.65,38.86-2.54c3,0.89,5.12,3.33,6.59,5.98
			c-0.28,6.66-4.26,12.37-8.53,17.18c-8.56,10.38-18.86,19.09-28.56,28.36c-9.16,8.49-16.99,18.35-26.52,26.43
			c-7.9,6.96-13.56,16.51-16.39,26.64c-1.71,5.68-1.51,11.83,0.45,17.42c0.76,1.74,1.76,3.36,2.76,4.98
			c0.97,2.6,3.62,3.97,6.24,4.35c6.66,1.2,13.44-0.88,19.29-4.01c15.51-8.32,29.59-18.94,43.87-29.16
			c14.08-9.9,28.24-19.7,42.6-29.21c2.28-1.49,4.3-3.32,6.35-5.12c3.6-1.35,6.7-3.64,9.87-5.76c8.68-5.94,17.24-12.07,25.42-18.7
			c13.42-12.01,29.18-21.28,45.96-27.78c5.19-1.9,10.16-4.49,15.58-5.7c6.64,2.99,13.74,4.92,21.05,5.08
			c5.08-0.07,10.07,0.96,15.13,1.38c27.2,4.26,54.53,8.04,81.4,14.17c-1.29,0.89-2.72,1.58-4.23,1.94
			c-10.86,2.7-21.31,6.79-31.97,10.18c-14.33,5.23-29,9.63-42.97,15.82c-3.21,1.45-2.65,5.87-0.92,8.28
			c2.62,3.53,6.81,5.32,10.44,7.61c4.9,2.66,9.19,6.43,14.48,8.39c5.06,1.98,10.17,4.25,15.68,4.54c7.37,0.37,14.85-0.08,21.98-2.06
			c10.39-2.15,20.6-5.19,30.64-8.59c5.44-2.07,10.51-5.27,16.32-6.26c1.54-0.58,2.81,0.56,3.81,1.58
			c-4.17,10.3-14.28,16.09-22.58,22.69c-8.29,5.18-16.94,10.02-26.44,12.56c-8.94,1.51-17.74,4.11-26.84,4.36
			c1.68,0.25,3.38,0.67,5.11,0.41c7.69-1.47,15.7-1.81,23.06-4.72c9.76-3.35,18.93-8.16,27.47-13.94
			c7.67-2.26,13.64-8.01,19.25-13.46c3.53-3.8,7.7-8.12,7.62-13.67c-1.04-1.92-3.28-3.71-5.52-2.62c-6.45,1.7-12.95,3.44-18.93,6.47
			c-6.58,3.39-13.97,4.58-20.71,7.58c-6.03,0.38-11.82,3.08-17.92,2.02c-0.42-3.93,5.87-4.58,5.01-8.58
			c-0.93-1.36-2.28-3.6-4.25-2.79c-6.24,2.01-12.57,3.85-19.13,4.46c0.63-1.55,2.52-1.39,3.89-1.81
			c10.41-1.79,20.28-5.8,29.88-10.09c3.33-1.37,6.72-2.74,10.3-3.37c4.61-0.59,9.38-0.09,13.9-1.45c9.51-2.58,19.3-6.38,29.3-4.3
			c7.51,1.2,15.22,4.47,22.86,2.48c9.55-1.57,19.24-2.14,28.87-3.18c24.93-2.74,50.28-4.84,75.24-1.25
			c8.02,1.57,16.04,3.8,23.16,7.93c9.95,5.74,18.35,14.28,23.7,24.47c3.87,7.41,7.53,14.98,11.99,22.06
			c0.77,1.66,2.99,0.98,3.75-0.36c2.51-3.86,4.98-8.05,5.17-12.79c0.1-6.33-0.08-12.66,0.04-18.99c-0.28-1.99,1.88-2.71,3.14-3.74
			c-1.49,1.88-2.62,4.03-2.29,6.52c-0.17,11.62,1.33,24.04-4.46,34.69c-1.71,4.06-5.32,7-6.62,11.24c-2.08,0.74-4.18,1.91-5.03,4.08
			c0.08-1.15,0.19-2.3,0.33-3.44c-5.06,4.82-11.65,7.7-18.08,10.24c0.91,0.56,4.28,1.83,0.06,1.75c-3.32,1.15-6.7-0.49-10.06-0.23
			c-9.92,1.21-19.94-1.21-28.96-5.27c-6.69-3.19-10.99-9.86-12.84-16.85c-0.54-2.37-1.14-5.14,0.43-7.26
			c1.53-1.3,3.75-1.96,5.69-1.12c4.94,1.81,8.83,5.78,14,7.08c6.17,1.93,13.18,1.8,18.88-1.48c3.42-2.44,6.75-6.59,5.62-11.06
			c-2.75-9.57-12.06-15.84-21.42-17.79c-11.76-1.02-23.53-5.18-35.36-2.54c-8.89,1.69-16.65,6.84-25.52,8.54
			c-6.43,1.22-12.71,3.11-19.19,4.03c-7.63,2.7-15.58,4.28-23.46,6.07c-8.55,0.97-16.97,2.78-25.32,4.84
			c-7.03,0.65-13.76,2.86-20.63,4.33c-3.28,0.98-5.84-2.12-8.97-2.07c-2.75,0.52-5.45,1.26-8.22,1.59c0.3-0.68,0.89-2.04,1.19-2.71
			c-7.52,1.33-13.98,5.83-21.07,8.47c-11.1,4.62-23,6.96-34.91,8.13c-9.96,0.03-19.95,2.2-29.87,0.26
			c-8.43-0.29-16.67-2.25-25.03-3.23c-10.49-1.1-20.83,1.53-31.13,3.12c-21.72,4.22-43.25,9.45-64.56,15.43
			c-16.56,4.91-33.38,9.02-50.46,11.65c-12.78,2.04-25.69,3.11-38.48,5.07c-12.37,1.58-25.34,4.12-37.51,0.12
			c-13.26-5.21-24.42-14.35-35.79-22.71c-3.28-2.34-6.49-4.87-8.88-8.14c-3.95-4.84-6.27-10.83-10.61-15.37
			c-3.21-1.9-7.09-2.08-10.73-1.93c-12.05,0.48-23.18,7.23-35.34,6.36c1.96-15.21,5.64-30.48,13.09-44
			c3.47-6.56,8.82-11.8,14.04-16.96c9.08-8.02,19.76-13.97,30.63-19.19C1373.362,88.819,1394.032,81.229,1415.312,76.049z
			 M1920.432,201.969c0.58,1.06,1.59,1.24,3.01,0.55C1922.832,201.419,1921.832,201.229,1920.432,201.969z"/>
	</g>
	<path fill="#FF0F41" d="M1993.302,79.589c15.14-4.99,31.26-4.9,46.99-3.83c11.33,0.37,22.6,1.7,33.89,2.63l-0.73-1.7
		c0.21,0.45,0.65,1.36,0.87,1.82c9.63,1.05,19.28,1.96,28.89,3.26v23.98c-4.36-0.41-8.68-1.17-13.06-1.25
		c-11.94-1.53-23.94,0.38-35.91-0.07c-11.76,0.84-22.31-6.67-34.09-5.62c-26.02,2.77-52,5.7-78.02,8.3
		c-8.06,1.22-17.12,0.11-24.16,4.95l-1.45,0.43c0.04-0.88,0.12-2.62,0.16-3.5c6.21-4.04,13.79-4.68,20.64-7.18
		C1956.612,96.039,1974.292,86.099,1993.302,79.589z"/>
	<path fill="#FF0F41" d="M1247.402,148.889c3.02-1.56,7.05-1.44,9.57,1.03c6.19,5.32,6.96,14.11,6.92,21.74
		c-5.27-0.62-10.6-0.9-15.76-2.22c-1.85-0.53-3.86-0.65-5.53,0.45c-10.03,5.52-21.67,11.08-33.34,7.83
		c-4.09-0.17-8.12-0.82-12.17-1.28c-5.18-1.02-10.04-3.13-14.95-4.98c7.42-0.11,14.82-0.82,22.18-1.68
		c10.91-1.11,21.57-5.06,30.39-11.61C1238.802,154.909,1242.702,151.269,1247.402,148.889z"/>
	<path fill="#FF0F41" d="M1933.462,197.679c3.29-0.61,5.06-4.02,8.44-4.32c-1.64,2.55-5.07,3.02-6.58,5.55
		C1934.672,198.499,1934.052,198.089,1933.462,197.679z"/>
	<path fill="#FF0F41" d="M1929.732,200.479c-0.42-1.56,3.73-2.78,3.4-0.88C1932.282,199.819,1930.582,200.259,1929.732,200.479z"/>
	<path fill="#FF0F41" d="M1927.422,200.709l0.55-0.55l0.83,0.34l0.02,0.88l-0.83,0.47
		C1927.842,201.559,1927.562,200.989,1927.422,200.709z"/>
	<path fill="#FF0F41" d="M2031.662,287.149c7.43-4.13,16.15-6.98,24.71-5.22c8.59,1.42,16.1,6.23,24.6,8.01
		c5.69,1.47,6.7,8.21,9.35,12.61c1.19,2.72,2.89,5.2,4.03,7.96c0.3,4.05-0.34,8.11-0.53,12.17c-0.16,5.15-2.65,9.84-3.02,14.98
		c-0.27,2.79-3.83,3.03-5.75,4.31c2.14,1.38,4.56,2.28,6.74,3.65c-1.96,1.37-6.5,1.95-4.98,5.28c1.82,6.05,9.54,6.23,14.4,4.11
		c0.5-0.28,1.5-0.83,2-1.1v51.62c-15.16,1.08-30.41,0.56-45.55-0.62c-7.96-0.42-15.32-3.78-22.38-7.2
		c-2.85-1.25-5.59-2.77-7.96-4.79c-7.55-4.89-13.15-12.21-17.59-19.92c-2.07-4.54-4-9.43-4.03-14.47
		c1.42-4.87,0.13-10.01,1.54-14.87c0.83-2.97,0.04-6.07,0.51-9.07c0.92-5.37,1.87-10.75,3.83-15.85c0.41-1.92,1.74-4.15,0.18-5.9
		C2015.102,302.319,2021.912,292.609,2031.662,287.149z"/>
	<path fill="#FF0F41" d="M2102.412,322.669c0.03-4.82-0.47-9.73,0.8-14.44v22.85
		C2102.492,328.329,2102.362,325.489,2102.412,322.669z"/>
	<path fill="#FF0F41" d="M1945.342,371.839c2.56-6.68,4.57-13.57,6.56-20.44c-0.24,7.06-0.56,14.13-0.46,21.2
		c-0.08,8.06,1.94,15.93,4.34,23.57c5.13,12.7,10.83,25.19,17.43,37.2c7.72,14.17,16.91,28.58,31.1,37
		c0.31,0.35,0.94,1.05,1.26,1.39c2,1.56,3.89,3.32,6.13,4.55c2.38,0.81,4.91,1.35,6.8,3.18c-1.42-4.87-6.6-6.98-10.23-9.92
		c-2.09-3.21-5.1-5.71-6.92-9.09c-1.2-2.36-3.37-3.98-4.78-6.17c-6.49-10.1-12.06-21-14.71-32.76c1.69,0.24,3.85-0.16,5.06,1.41
		c2.33,2.52,4.9,4.91,8.31,5.86c5.56,2.54,11.5,0.01,17.16-0.7c4.97-0.11,9.99-0.05,14.91,0.82c3.59,0.52,7.18,1.51,10.85,1.18
		c5.58-0.52,11.17,0.75,16.32,2.84c0.2-0.14,0.61-0.42,0.81-0.55c2.13-0.47,4.34-0.38,6.54-0.33c4.69,0.41,9.27-0.87,13.94-1.13
		c9.28-1.9,18.85-3.34,27.45-7.51v85.71c-16.55,3.01-33.61,2.18-50.01-1.26c-5.04-2.03-10.52-2.57-15.51-4.68
		c-12.04-4.5-24.29-8.64-35.89-14.23c-11.73-7.16-22.07-16.7-30.1-27.86c-10.79-16.31-17.82-34.77-23.59-53.35
		c-3.02-11.53-5.6-23.29-5.65-35.25C1943.182,372.349,1944.622,372.009,1945.342,371.839z"/>
	<path fill="#FF0F41" d="M1553.622,415.929c14.78-14.51,30.48-28.27,48.1-39.27c-0.15,0.89,0.07,2.01-0.76,2.64
		c-3.26,3.12-7.05,5.72-9.81,9.34c-2.37,3.15-5.74,5.36-8.02,8.58c-6.66,7.75-13.37,15.48-19.82,23.42c-1.68,1.9-3.24,3.9-4.78,5.92
		c-18.76,23.11-37.45,46.46-59.24,66.83c-1.33,1.14-2.59,2.33-3.77,3.61c-11.46,10.95-23.51,21.47-36.85,30.1
		c-13.04,9.27-27.41,16.8-42.61,21.76c-3.57,1.62-7.42,2.43-11.24,3.13c-19.78,6.76-41,5.41-61.57,5.87
		c-14.68-1.36-29.41-2.2-44.05-4.09c-5.36-0.29-10.68-1.23-16.06-1.1c-4.95-0.59-9.94-0.77-14.87-1.42
		c-6.18-0.5-12.62-2.31-18.68-0.28c-0.59,3.9,0.42,7.74,1.9,11.33c3.77,9.31,7.04,18.98,12.78,27.32c1.6,2.42,3.19,5.1,2.96,8.13
		c-2.29,6.31-6.76,11.72-12.08,15.74c-5.35,4.41-11.02,8.47-17.03,11.94c-11.59,6.84-22.85,14.34-35.15,19.92
		c-6.61,2.7-13.89,2.8-20.84,4.04c-3.01,0.61-6.14,0.42-8.94-0.89c-1.08-2.15-1.79-4.93,0.1-6.88c4.9-6.28,13.75-6.11,20.35-9.63
		c11.72-6.44,21.54-15.63,31.25-24.67c4.92-4.47,7.74-11.16,7.28-17.8c-1.29-8.32-6.3-15.88-12.99-20.87
		c-8.13-6.47-13.88-15.44-18.19-24.78c-6.02-12.66-5.35-28.09,1.09-40.46c4.53-9.28,11.97-16.63,19.56-23.41
		c4.25-2.51,8.43-5.21,13.03-7.04c7.91-1.77,16.02,0.56,22.98,4.39c3.54,2.15,7.75,2.21,11.66,3.18
		c10.29,5.22,16.64,15.34,25.36,22.53c6.4,4.33,13.65,7.17,20.66,10.35c8.05,3.19,15.93,7.11,24.49,8.79
		c9.08,1.18,18.41,0.71,27.32,3.13c10.93,1.83,22.09,2.88,33.17,1.76c17.33-1.6,34.13-7.53,49.11-16.32
		c19.83-11.42,37.59-26.08,54.19-41.75C1522.032,453.049,1536.942,433.609,1553.622,415.929z"/>
	<path fill="#FF0F41" d="M2070.542,523.479c10.92-0.19,22.05-0.14,32.67-3.03v7.99c-7.07,1.55-14.25,2.44-21.49,2.36
		c-3.42-1.33-6.31-3.71-9.72-5.04C2071.632,525.189,2070.912,524.049,2070.542,523.479z"/>
</g>
<g>
	<path fill="#FF3F67" d="M2068.962,56.589c2.28-3.11,6.45-4.66,10.24-4.08c8.6,1.02,16.66,4.67,24.01,9.12v20.14
		c-9.61-1.3-19.26-2.21-28.89-3.26c-0.22-0.46-0.66-1.37-0.87-1.82C2070.542,70.459,2066.942,63.649,2068.962,56.589z"/>
	<path fill="#FF3F67" d="M1761.862,93.129c13.74-2.61,27.65-4.28,41.32-7.33c4.06,2.12,8.14,4.91,10.17,9.18
		c0.97,2.84,0.45,5.9,0.46,8.84c-5.45-0.14-10.73-1.57-16.05-2.61C1785.702,98.919,1773.782,96.009,1761.862,93.129z"/>
	<path fill="#FF3F67" d="M1716.732,100.039c11.82,2.62,23.63,5.29,35.47,7.82c8.27,1.14,16.16,3.97,24.1,6.46
		c6.2,1.8,11.69,6.08,18.41,5.86c-3.11,1.23-6.31,2.22-9.39,3.52c-7.64,1.99-15.35-1.28-22.86-2.48c-10-2.08-19.79,1.72-29.3,4.3
		c-4.52,1.36-9.29,0.86-13.9,1.45c-3.58,0.63-6.97,2-10.3,3.37c-9.6,4.29-19.47,8.3-29.88,10.09c-1.37,0.42-3.26,0.26-3.89,1.81
		c6.56-0.61,12.89-2.45,19.13-4.46c1.97-0.81,3.32,1.43,4.25,2.79c0.86,4-5.43,4.65-5.01,8.58c6.1,1.06,11.89-1.64,17.92-2.02
		c-4.24,2.29-8.18,5.06-12.26,7.61c-7.13,1.98-14.61,2.43-21.98,2.06c-5.51-0.29-10.62-2.56-15.68-4.54
		c-5.29-1.96-9.58-5.73-14.48-8.39c-3.63-2.29-7.82-4.08-10.44-7.61c-1.73-2.41-2.29-6.83,0.92-8.28
		c13.97-6.19,28.64-10.59,42.97-15.82c10.66-3.39,21.11-7.48,31.97-10.18C1714.012,101.619,1715.442,100.929,1716.732,100.039z"/>
	<path fill="#FF3F67" d="M2037.172,135.619c8.72,0.23,17.39-0.94,26.11-0.99c13.31-0.03,26.62,0,39.93,0v24.73
		c-14.23,0.98-28.47,2.27-42.6,4.29c-9.33-3.65-18.16-8.44-26.79-13.5c-6.28-3.64-11.89-8.35-16.76-13.7
		C2023.782,136.839,2030.442,135.339,2037.172,135.619z"/>
	<path fill="#FF3F67" d="M1457.572,155.019c14.62-6.61,29.38-13.02,44.75-17.67c-2.05,1.8-4.07,3.63-6.35,5.12
		c-14.36,9.51-28.52,19.31-42.6,29.21c-14.28,10.22-28.36,20.84-43.87,29.16c-5.85,3.13-12.63,5.21-19.29,4.01
		c-2.62-0.38-5.27-1.75-6.24-4.35c2.06,1.32,4.12,2.65,6.18,4c6.33-6.01,12.08-12.65,19.03-17.99c5.5-4.11,10.54-8.79,16.18-12.71
		C1435.472,166.529,1446.372,160.419,1457.572,155.019z"/>
	<path fill="#FF3F67" d="M1958.092,144.369c10.28,5.82,20.98,10.83,31.72,15.76c8.86,3.93,18,7.18,26.91,11
		c-23.56,5.19-46.01,14.57-69.71,19.17c1.3-4.24,4.91-7.18,6.62-11.24C1959.422,168.409,1957.922,155.989,1958.092,144.369z"/>
	<path fill="#FF3F67" d="M1895.632,148.949c9.36,1.95,18.67,8.22,21.42,17.79c1.13,4.47-2.2,8.62-5.62,11.06
		c-5.7,3.28-12.71,3.41-18.88,1.48c-5.17-1.3-9.06-5.27-14-7.08c-1.94-0.84-4.16-0.18-5.69,1.12c-1.57,2.12-0.97,4.89-0.43,7.26
		c1.85,6.99,6.15,13.66,12.84,16.85c9.02,4.06,19.04,6.48,28.96,5.27c1.27,0.46,2.57,0.91,3.89,1.34l-0.09,0.42
		c-2.04-0.2-4.09-0.27-6.1-0.2c1.58,4.15,5.89,6.1,9.5,8.18c10.13,5.14,21.33,8.58,32.76,8.68c15.26-0.2,29.7-5.71,44.09-10.18
		c-4.4,0.36-8.77,2.25-13.19,1.22c4.96-1.84,9.95-3.66,14.83-5.74c10.66-5.58,22.73-7.31,34.35-9.9
		c12.57-2.07,25.27-3.85,38.03-4.19c10.18,5.03,20.42,9.94,30.91,14.3v7.09l-0.61,0.62c-10.8,0.22-21.61-1.07-32.4-0.27
		c-12.76,0.61-25.53,2.02-37.95,5.04c-10.77,2.22-21.07,6.1-31.63,9.06c-2.16,0.7-4.39,1.17-6.65,1.25c3.75-4.1,9.31-5.71,14.3-7.78
		c17.45-7.09,36.28-9.55,54.85-11.8c10.01-1.5,20.11-2.36,30.23-2.75c-13.54-0.86-27.1,0.62-40.57,1.89
		c-22.03,2.31-43.47,8.74-63.65,17.75c-8.18,3.69-16.45,7.32-25.15,9.58c-5.19,1.38-10.51,2.52-15.31,5.02
		c-11.8,6.05-25.5,6.41-38.46,5.89c-31.25-2.22-62.06-10.84-93.57-8.83c-7.14-7-15.91-11.93-24.52-16.85
		c-6.29-3.85-12.8-7.34-19.54-10.32c-6.21-2.77-13.03-3.83-19.16-6.76c-3.27-1.47-6.09-3.72-9.33-5.23
		c7.76-0.02,15.54-0.35,23.29,0.19c-1.77,0.19-2.33,1.77-1.55,3.22c1.13,0.66,1.86,1.68,2.18,2.95c1.49,1.3,2.95,2.66,4.28,4.16
		c6.77,2.6,13.47,5.33,19.85,8.82c5.75,1.54,10.4,5.52,16.01,7.39c7.49,1.12,15.26,2.23,22.71,0.11c-0.04-0.4-0.12-1.2-0.16-1.6
		c-2.94-1.76-2.97-5.67-5.45-7.83c-2.06-1.96-4.05-3.97-6.04-5.98c-3.12-3.22-7.82-3.94-11.26-6.71c-1.74-1.54-4.3-1.57-5.93-3.2
		c-3.24-0.71-6.62-0.23-9.85-0.99c-4.94-1.28-10.16,0-14.97-1.96c-0.54-0.34-1.61-1.02-2.14-1.36c0.72-0.05,2.17-0.15,2.89-0.21
		c-0.06-1.01-0.1-2.03-0.13-3.04c-2.67-2.44-5.13-5.08-7.51-7.79c-9.55-2.64-19.18-5.41-29.18-5.47
		c-5.38-0.69-10.78-0.98-16.18-1.07c1.34-1.7,2.76-3.34,4.01-5.12c2.77-0.33,5.47-1.07,8.22-1.59c3.13-0.05,5.69,3.05,8.97,2.07
		c6.87-1.47,13.6-3.68,20.63-4.33c8.35-2.06,16.77-3.87,25.32-4.84c7.88-1.79,15.83-3.37,23.46-6.07c6.17,1.19,12.46,0.58,18.7,0.76
		c13.99-0.13,28.11-0.19,41.87-3.06C1883.022,155.289,1889.752,152.849,1895.632,148.949z"/>
	<path fill="#FF3F67" d="M2090.322,302.549c4.4-2.28,8.48-5.12,12.89-7.41v13.09c-1.27,4.71-0.77,9.62-0.8,14.44
		c-0.05,2.82,0.08,5.66,0.8,8.41v20.63c-1.13,0.53-3.37,1.34-2.73,2.92l0.73,0.38c-4.86,2.12-12.58,1.94-14.4-4.11
		c-1.52-3.33,3.02-3.91,4.98-5.28c-2.18-1.37-4.6-2.27-6.74-3.65c1.92-1.28,5.48-1.52,5.75-4.31c0.37-5.14,2.86-9.83,3.02-14.98
		c0.19-4.06,0.83-8.12,0.53-12.17C2093.212,307.749,2091.512,305.269,2090.322,302.549z"/>
	<path fill="#FF3F67" d="M2008.832,320.909c0.77-2.76,1.74-5.46,2.93-8.07c1.56,1.75,0.23,3.98-0.18,5.9
		c-1.96,5.1-2.91,10.48-3.83,15.85c-0.47,3,0.32,6.1-0.51,9.07c-1.41,4.86-0.12,10-1.54,14.87c0.03,5.04,1.96,9.93,4.03,14.47
		c4.44,7.71,10.04,15.03,17.59,19.92c-3.36-0.59-6.21,1.48-9.14,2.71c-12.67,5.76-25.69,10.79-38.07,17.17
		c0.61,3.06,3.02,5.2,4.79,7.64c11.75-4.8,23.41-9.84,34.9-15.23c5.09-2.64,10.74-4.22,15.48-7.5c7.06,3.42,14.42,6.78,22.38,7.2
		c15.14,1.18,30.39,1.7,45.55,0.62v17.91c-8.6,4.17-18.17,5.61-27.45,7.51c-4.67,0.26-9.25,1.54-13.94,1.13
		c7.06-2.85,13.64-6.72,20.33-10.32c-9.19,2.82-18.57,5.76-26.87,10.65c-0.2,0.13-0.61,0.41-0.81,0.55
		c-5.15-2.09-10.74-3.36-16.32-2.84c-3.67,0.33-7.26-0.66-10.85-1.18c-4.92-0.87-9.94-0.93-14.91-0.82
		c-5.66,0.71-11.6,3.24-17.16,0.7c-3.41-0.95-5.98-3.34-8.31-5.86c-1.21-1.57-3.37-1.17-5.06-1.41
		c2.65,11.76,8.22,22.66,14.71,32.76c1.41,2.19,3.58,3.81,4.78,6.17c1.82,3.38,4.83,5.88,6.92,9.09c3.63,2.94,8.81,5.05,10.23,9.92
		c-1.89-1.83-4.42-2.37-6.8-3.18c-2.24-1.23-4.13-2.99-6.13-4.55c0.68,0.12,2.05,0.36,2.73,0.48c-1.57-2.94-4.88-4.5-6.04-7.67
		c-0.63-1.45-2.59-1.97-2.66-3.73c-0.36-1.93-2.03-3.06-3.46-4.16c-2.69-5.75-6.31-11.08-8.66-17.02
		c-4.5-9.79-6.7-20.44-11.01-30.29c-1.26-5.75-3.79-11.06-5.76-16.57c-2.44-8.15-4.27-16.76-3.27-25.29l0.18-0.04
		c12.36-2.25,24.46-5.84,36.31-9.97c-0.47-7.22-0.16-14.52,1.74-21.51c0.65-2.35,1.74-5.03,0.48-7.36
		C2008.782,326.699,2006.732,322.899,2008.832,320.909z"/>
	<path fill="#FF3F67" d="M1689.462,344.849c4.46-0.91,9.03-1.16,13.58-1.03c2.82,7.9,6.59,15.44,9.91,23.15
		c3.11,7.51,8.35,13.98,10.88,21.75c3.86,11.52,5,24.33,1.17,36.01c-2.18,6.29-6.11,11.75-9.05,17.68
		c-10.87,20-29.94,34.01-49.71,44.43c-23.47,12.59-50.29,17.94-76.8,17.75c-1.07,0.19-2.11,0.39-3.15,0.6
		c13.98-0.73,28.06-0.52,41.84-3.44c22.15-3.93,42.35-14.77,60.72-27.38c2.47-1.61,4.62-3.85,7.52-4.69
		c-12.13,12.02-27.4,20.34-42.91,27.19c-23.95,10.12-50.33,13.41-76.17,12c-27.11-1.07-53.69-7.09-80.18-12.46
		c-0.4,0.15-1.19,0.44-1.59,0.59c1.18-1.28,2.44-2.47,3.77-3.61c12.47,3.75,25.39,5.93,38.29,7.69c11.49,1.37,23.3,2.86,34.74,0.25
		c5.24-1.22,10.88-2.25,15-6c24.56,0.55,49.47-3.4,71.91-13.7c8.38-3.51,16.64-7.58,23.46-13.7l-0.33,2.18
		c9.16-6.65,16.55-15.82,21.06-26.2c4.59-11.54,4.01-24.27,3.07-36.41c-1.26-11.75-3.15-23.47-6.28-34.88
		C1697.692,362.979,1692.912,354.159,1689.462,344.849z"/>
	<path fill="#FF3F67" d="M1601.722,376.659c16.98-9.95,35.19-17.76,53.94-23.74c10.04,11.32,19.98,23.08,26.28,36.97
		c5.8,12.19,8.17,26.47,4.08,39.56c-2.7,8.43-6.51,16.84-12.9,23.14c-6.74,7.57-15.26,13.52-24.65,17.3
		c-13.72,6.31-28.98,8.03-43.91,8.69c0.41-4.3,0.81-8.66,0.1-12.94c-1.78-6.8-6.38-12.34-11.09-17.35
		c-9.84-9.79-22.06-16.97-35.04-21.73c1.54-2.02,3.1-4.02,4.78-5.92c7.44,4.94,15.91,8.37,24.82,9.32
		c5.37,0.06,11.07,0.85,16.09-1.56c4.64,0.04,8.02-3.72,10.44-7.25c2.38-3.15,0.69-7.31-0.07-10.74c-3.74-2.62-6.31-6.78-10.69-8.45
		c-6.44-3.01-13.68-4.63-20.77-4.74c2.28-3.22,5.65-5.43,8.02-8.58c2.76-3.62,6.55-6.22,9.81-9.34
		C1601.792,378.669,1601.572,377.549,1601.722,376.659z"/>
	<path fill="#FF3F67" d="M1815.162,454.689c8.52-7.81,15.33-17.18,22.73-26c4.53,7.42,9.19,14.77,13.62,22.25
		c-0.07,0.52-0.22,1.56-0.3,2.08c-15.57,12.35-30.85,25.13-47.49,36.04c-14.24,9.31-29.26,17.37-44.31,25.26
		c9.33-4.26,18.26-9.32,27.27-14.22c15.69-8.43,30.53-18.41,44.56-29.39c6.92-5.26,13.91-10.42,20.85-15.65
		c0.45-0.02,1.36-0.06,1.81-0.08c6.07,10.96,13.99,20.69,20.99,31.04c9.09,14.54,19.76,28.01,31.05,40.9
		c-32.68,18.05-66.01,35.11-100.85,48.62c-41.33,16.08-84.76,26.67-128.81,31.73c-26.89,2.92-54.05,3.56-81.02,1.41
		c-23.63-1.74-46.9-6.38-70.18-10.56c-17.48-4.86-34.97-9.73-52.29-15.16c44.65,6.93,89.03,17.38,134.39,18.2
		c-49.58-4.55-98.33-15.12-146.94-25.49c-5.51-1.92-11.45-2.12-16.9-4.2c-2.69-1.03-5.54-1.51-8.37-1.87
		c-13.08-3.95-26.04-9.09-39.8-9.97c-3.55,0.25-7.64-1.02-10.68,1.35c-4.88-0.43-9.25-3.56-14.25-3.01
		c-29.14,1.34-58.21-1.87-87.1-5.3c5.38-0.13,10.7,0.81,16.06,1.1c14.64,1.89,29.37,2.73,44.05,4.09
		c20.57-0.46,41.79,0.89,61.57-5.87c9.96,2.34,20.18,3.36,30.25,5.16c29.76,4.73,59.46,9.89,89.34,13.8
		c13.85,1.73,27.89,3.54,41.85,1.84c1.69-0.67-0.38-2.07-1.37-1.15c-10.06-5.57-21.49-7.83-31.78-12.85
		c-3.45-1.6-6.72-3.53-10.08-5.27c-0.09-1.61-0.54-3.16-1.3-4.57c-1.33,0.03-2.65,0.05-3.96,0.04c-0.84,1.53-2.07,3.93-0.1,5.18
		c6.12,4.37,13.32,6.89,19.9,10.46c0.98,0.49,1.81,1.29,2.41,2.24c-11.62,0.74-23.15-1.35-34.62-2.83
		c-28.18-4.05-56.15-9.42-84.02-15.2c-1.76-0.37-3.54-0.22-5.28,0.02c15.2-4.96,29.57-12.49,42.61-21.76
		c34.98,4.92,69.52,12.67,104.6,16.92c25.15,2.93,50.66,4.02,75.85,0.97c22.48-2.82,44.22-9.83,65.02-18.62
		C1744.912,509.119,1782.802,484.919,1815.162,454.689z"/>
	<path fill="#FF3F67" d="M1014.752,676.459c3.42-0.88,6.91-1.4,10.38-2.07c8.02,0.85,13.49,7.76,20.81,10.51
		c3.35,1.11,6.46,2.81,9.63,4.35C1041.002,689.339,1027.042,683.939,1014.752,676.459z"/>
</g>
</svg>
