<?xml version="1.0" encoding="utf-8"?>
<!-- Generator: Adobe Illustrator 17.0.0, SVG Export Plug-In . SVG Version: 6.00 Build 0)  -->
<!DOCTYPE svg PUBLIC "-//W3C//DTD SVG 1.1//EN" "http://www.w3.org/Graphics/SVG/1.1/DTD/svg11.dtd">
<svg version="1.1" id="Capa_1" xmlns="http://www.w3.org/2000/svg" xmlns:xlink="http://www.w3.org/1999/xlink" x="0px" y="0px"
	 width="1900px" height="791px" viewBox="0 0 1900 791" enable-background="new 0 0 1900 791" xml:space="preserve">
<rect x="-10.491" y="-2.933" fill="#E4E4E4" width="1927.997" height="808.933"/>
<g>
	<path fill="#FFFFFF" d="M823.985,238.727c17.29-3.19,34.54-6.65,51.98-8.86c2.18-0.52,4.85,1.24,6.42-1.22
		c0.27,0.58,0.21,1.24-0.14,1.77c-3.04-0.38-6.02,0.47-8.98,1.02c-10.38,1.75-20.74,3.65-31.13,5.32
		C836.085,237.407,830.105,239.047,823.985,238.727z"/>
	<path fill="#FFFFFF" d="M1602.655,271.347c8.23-10.98,21.38-16.16,33.28-22.05c-4.18,3.44-8.93,6.09-13.1,9.54
		c-6.25,5.15-13.45,9.37-18.25,16.06C1603.765,273.797,1603.055,272.647,1602.655,271.347z"/>
	<path fill="#FFFFFF" d="M1632.395,652.167c3.51,1.3,6.99,2.67,10.56,3.83c-2.51,2.68-4.99,5.4-7.71,7.87
		c-0.87-0.16-2.61-0.5-3.48-0.66C1631.445,659.507,1631.635,655.797,1632.395,652.167z"/>
</g>
<linearGradient id="SVGID_1_" gradientUnits="userSpaceOnUse" x1="944.093" y1="-38.84" x2="944.093" y2="770.0931" gradientTransform="matrix(1 0 0 -1 8.4 767.16)">
	<stop  offset="0.0049" style="stop-color:#E3E3E3;stop-opacity:0"/>
	<stop  offset="0.9852" style="stop-color:#00A766;stop-opacity:0.4"/>
</linearGradient>
<linearGradient id="SVGID_2_" gradientUnits="userSpaceOnUse" x1="-20.4055" y1="365.6266" x2="1908.5913" y2="365.6266" gradientTransform="matrix(1 0 0 -1 8.4 767.16)">
	<stop  offset="0" style="stop-color:#FFFFFF"/>
	<stop  offset="1" style="stop-color:#000000"/>
</linearGradient>
<rect x="-11.505" y="-2.933" fill="url(#SVGID_1_)" stroke="url(#SVGID_2_)" stroke-miterlimit="10" width="1927.997" height="808.933"/>
<g>
	<path fill="#76E1E2" d="M618.675-2.933h322.8c15.62,3.73,29.79,11.51,44.28,18.17c12.97,5.29,24.34,13.62,36.21,20.91
		c13.1,8.14,27.14,14.63,41.28,20.74c5.28,2.42,10.69,4.58,16.29,6.17c-19.86,11.17-39.69,22.87-61.44,30.02
		c-6.08,2.39-12.57,3.42-18.75,5.5c-5.95,1.32-12.19,1.4-18.23,0.93c-5.32-1.64-10.58-3.64-15.64-5.97
		c-9.93-6.86-18.81-15.09-28.55-22.22c-5.64-4.36-10.28-9.9-16.16-13.98c-5.51-3.84-10.29-8.57-15.09-13.23
		c-9.19-9.38-20.05-17.1-31.94-22.69c-18.56-10.86-40.41-15.25-61.76-14.22c-13.23,0.41-26.22,3.36-38.91,6.95
		c-14.56,5.35-29.2,11.05-42.02,19.94c-7.78,4.58-14.44,10.74-21.12,16.75c-11.66,9.74-22.2,20.99-30.1,34.03
		c-3.78,4.92-6.25,10.62-8.7,16.27c-7.42,15.13-10.81,32.12-10.21,48.94c-0.43,6.11,1.28,12.02,2.15,18.01
		c0.79,5.7,3.07,11.03,4.42,16.6c1.34,5.41,4.34,10.16,6.8,15.1c3.04,6.28,7.97,11.32,12.22,16.77
		c4.65,6.05,11.13,10.21,17.04,14.88c7.13,5.72,15.12,10.22,22.85,15.06c15.17,9.29,31.57,16.27,47.99,23
		c20.18,7.53,41.28,12.1,61.91,18.19c10.55,3.26,21.15,6.72,30.74,12.3c3.45,2.12,6.17,5.18,9.01,8.02c2.8,3.74,6.3,7.24,7.32,11.98
		c1.36,5.27,3.06,10.62,2.57,16.14c-0.38,7.22-0.29,14.46-0.33,21.69c0.75-0.59,1.5-1.18,2.26-1.76c3.22,9.56,2.22,19.89,4.88,29.55
		c1,10.12,4.03,19.99,7.84,29.38c5.9,13.29,13.8,25.76,23.29,36.77c9.58,12.76,21.86,23.26,34.59,32.77
		c23.84,17.64,50.74,30.94,78.84,40.29c22.59,8.92,46.43,13.93,69.87,20.03c9.14,1.87,18.09,4.96,27.39,5.87
		c8.95,13.38,20.08,25.08,31.14,36.72c7.29,6.77,14.89,13.3,23.31,18.63c4.6,2.98,9.15,6.08,13.28,9.69
		c7.41,6.32,16.84,9.28,25.39,13.62c7.98,3.88,15.42,9.35,24.35,10.86c8.11,1.56,15.74,4.85,23.65,7.12
		c5.65,1.67,11.56,1.92,17.36,2.8c5.6,0.83,11.33,0.91,16.94,0.03c4.66-0.74,9.32,0.81,13.99,0.27c2.69-1.67,3.94-5.19,7.15-6.1
		c2.87-0.94,5.65-2.18,7.96-4.16c2.41-2.14,5.76-2.89,8.07-5.09c0.25-2.57-0.05-5.16,0.32-7.71c0.65-2.22,1.96-4.17,2.71-6.35
		c0.34-2.57-0.82-5.07-0.71-7.64c0.75-2.19,2.19-4.09,2.87-6.32c-0.5-2.43-2.23-4.33-3.76-6.17c33.35,4.01,67.46,3.8,100.47-2.79
		c0.67,1.31,1.35,2.62,2.05,3.94c-4.84,10.84-14.53,18.22-22.69,26.44c-3.92,3.85-3.03,10.26-6.83,14.2
		c-4.89,5.15-10.1,10.02-15.9,14.14c-4.75,3.37-6.25,9.51-10.75,13.1c-6.5,5.36-14.04,9.22-20.86,14.13
		c-3.81,2.75-8.11,4.76-12.59,6.13c-8.42,2.54-17.41,2.34-25.73,5.28c-8.24,3.07-17.17,1.76-25.73,1.34
		c-15.6,1.6-30.75-3.85-45.16-9.15c-9.49-2.53-18.34-6.88-26.92-11.58c-9.06-4.62-16.99-11.08-25.81-16.1
		c-17.59-10.54-32.58-24.69-47.56-38.53c-5.84-4.79-11.86-9.36-17.49-14.38c-4.31-4-9.65-6.55-14.52-9.75
		c-5.16-3.07-9.94-6.77-15.2-9.66c-11.2-5.05-22.31-10.3-33.41-15.56c-13.48-4.96-26.92-10.09-40.06-15.91
		c-13.32-4.95-26.56-10.21-39.24-16.66c-14.98-6-28.97-14.13-42.88-22.22c-25.97-16.24-50.07-35.89-69.34-59.82
		c-16.39-21.08-30.48-44.62-37.1-70.7c-3.52-11.06-5.6-22.66-11.04-33.04c-3.14-7.88-9.49-13.76-15.89-19.06
		c-4.55-4.26-10.51-6.41-16.01-9.11c-12.41-5.4-25.1-10.25-38.16-13.82c-30.45-8.95-60.83-18.68-89.46-32.52
		c-22.96-10.69-43.45-27.1-57.73-48.11c-12.98-19.73-21.71-42.48-23.54-66.11c-0.98-8.22-0.22-16.51-0.55-24.76
		c1.16-7.88,1.72-15.84,3.43-23.64c1.11-11.99,5.25-23.41,9.87-34.44c2.6-6.99,6.18-13.56,9.66-20.14c2.51-4.83,5.9-9.21,7.65-14.41
		c2.23-6.84,6.55-12.68,10.21-18.79c3.32-5.77,7.57-10.95,10.54-16.92c-1.35,1.19-2.75,2.32-4.17,3.44
		c1.56-3.52,3.2-7.01,4.62-10.58c-2.32,1.7-4.21,4.72-7.48,4.16c-3.92,4.92-7.2,10.34-11.46,14.98c-1.89,2.16-4.74,3.25-6.44,5.59
		c-1.25,1.66-2.32,3.43-3.45,5.17c-2.57,2.89-4.43,6.35-7.23,9.04c-5.1,4.65-7.99,11.16-13.28,15.65
		c-3.87,3.12-5.07,9.58-10.6,10.26c-0.42-0.28-1.26-0.83-1.68-1.1c-1.09,0.84-2.18,1.68-3.27,2.51c0.87-3.69,2.51-7.17,3.06-10.94
		c0.81-5.62,3.46-10.72,5.02-16.14c2.24-7.88,6.6-14.91,9.48-22.54C610.485,13.007,614.545,5.007,618.675-2.933z"/>
	<path fill="#76E1E2" d="M1091.755-2.933h66.12c-0.36,2.44-0.42,4.9-0.45,7.36c-3.2,5.87-7.39,11.18-11.51,16.43
		c-11.32-1.94-22.08-6.23-32.27-11.42C1106.195,5.607,1098.515,2.077,1091.755-2.933z"/>
	<path fill="#76E1E2" d="M1342.025-2.933h40.58c5.16,7.26,10.63,14.3,16.24,21.23c2,2.11,2.11,5.11,2.65,7.81
		c1.29,7.11,2.61,14.28,5.15,21.07c-5.97-3.51-12.43-6.06-18.63-9.12c-7.13-3.45-14.5-6.39-22.09-8.65
		c-1.23-3.15-1.94-6.58-3.85-9.41C1355.695,12.087,1348.475,4.907,1342.025-2.933z"/>
	<g>
		<path fill="#76E1E2" d="M768.405,64.497c6.6-2.62,13.81-2.73,20.72-4.01c8.29,0.25,16.77,0.03,24.7,2.87
			c7.23,1.28,13.69,4.78,20.26,7.85c8.09,3.7,13.97,10.48,20.38,16.39c5.99,5.77,9.66,13.4,13.03,20.89
			c1.51,5.79,3.13,11.62,3.76,17.59c-0.28,6.32,0.78,12.78-0.94,18.96c-1.37,5.04-1.74,10.46-4.47,15.03
			c-3.09,5.42-5.32,11.5-9.88,15.92c-4.44,5.31-10.04,9.47-15.69,13.38c-8.66,4.14-17.68,7.99-27.28,9.19
			c-7.21,1.88-14.7,1.54-22.08,1.59c-17.36-1.59-34.84-5.89-49.72-15.28c-5.35-3.92-10.38-8.26-15.58-12.36
			c-3.67-5.06-7.07-10.34-10.32-15.68c-1.94-4.38-2.82-9.14-4.14-13.73c-1.16-3.25-0.34-6.68-0.28-10.02
			c0.21-3.68-0.28-7.52,1.13-11.03c2.37-6.23,3.38-13.07,7.23-18.65c3.05-4.35,4.62-9.82,8.91-13.2c4.82-4.17,9.07-8.96,13.84-13.18
			c3.85-2.56,8.12-4.44,12.06-6.88C758.435,67.357,763.615,66.367,768.405,64.497z M787.215,83.347c-4.75,0.88-9.61,1.02-14.34,1.91
			c-5.4,2.17-10.92,4.12-16.23,6.53c-4.97,5.59-10.07,11.16-15.57,16.26c-1.97,5.36-3.41,10.91-5.7,16.16
			c-0.9,5.33-2.15,10.59-3.37,15.85c-0.21,4.72,2.25,8.94,3.76,13.26c2.84,7.67,10.69,11.36,15.91,17.14
			c4.13,4.48,10.2,6,15.65,8.19c2.56,0.92,4.98,2.34,7.73,2.66c7.34,0.82,14.63,2.88,22.04,1.54c6.45,0.13,12.47-2,18.43-4.14
			c12.11-3.2,21.75-12.39,27.8-23.07c1.28-3.5,2.27-7.09,3.41-10.62c2.51-6.45-0.06-13.36,0.02-20.01
			c-1.24-5.42-2.94-10.79-4.97-15.98c-2.33-5.48-7.87-8.18-12.61-11.2c-3.72-2.22-6.96-5.29-11.18-6.58
			c-4.63-1.5-8.82-4.05-13.39-5.66C798.775,85.117,793.075,82.887,787.215,83.347z"/>
	</g>
	<path fill="#76E1E2" d="M1367.605,88.507c12.6,10.01,24.75,20.56,36.67,31.36c11.26,10.41,23,20.29,34.22,30.75
		c6.47,5.99,14,10.64,20.73,16.3c7.99,6.56,15.61,13.7,24.65,18.83c-3.4,6.83-6.63,13.88-8.06,21.42
		c-3.03,14.29,0.48,29.1-3.05,43.33c-4.6-5.73-7.72-12.44-11.28-18.83c-5.51-10.17-11.16-20.26-16.59-30.47
		c-3.58-6.16-7.72-12.06-12.7-17.17c-3.44-3.6-8.07-5.61-12.37-7.94c-3.93-2.22-8.35-3.42-12.84-3.68
		c-5.55-1.25-11.28-0.92-16.91-0.73c-6.93-3.29-14.9-4.1-22.28-1.86c-14.84,4.46-27.13,14.44-38.69,24.37
		c-14.96,13.52-29.29,28.21-39.51,45.73c-9.23-17.21-24.3-30.58-41.25-39.95c-9.66-6.15-20.16-11.53-31.67-13
		c-20.77-2.89-41.87-2.64-62.75-1.29c-18.55,1.04-36.93,4.21-54.9,8.88c-20.21,5.12-39.67,13.66-56.4,26.2
		c-7.64,6.25-15.39,12.52-21.43,20.4c-10.88,12.37-18.46,27.21-24.8,42.3c-7.9,21.81-13.59,45.11-11.06,68.43
		c0.89,4.01,1.34,8.1,2.41,12.07c2.61,7.33,4.59,14.98,8.54,21.75c2.94,5.29,5.96,10.6,9.99,15.15c3.85,4.46,7.05,9.57,11.72,13.25
		c3.49,2.84,6.9,5.77,10.35,8.66c10.15,7.92,21.98,13.22,33.77,18.18c6.07,1.96,12.06,4.37,18.39,5.36
		c-0.08-0.82-0.23-2.47-0.31-3.3c1.31,6.93,3.77,13.56,6.13,20.19c-11.53-1.65-22.71-5.3-33.3-10.06
		c-8.31-3.27-16.3-7.38-23.82-12.2c-5.72-4.29-11.65-8.32-17.2-12.81c-5.09-5.29-10.32-10.47-15.17-15.97
		c-5.04-7.72-10.68-15.13-14.24-23.7c-3.83-7-5.51-14.84-7.58-22.47c-1.27-4.31-0.85-8.87-1.86-13.22
		c-1.73-23.93,2.41-47.98,9.8-70.71c8.32-25,21.27-49.16,41.19-66.84c16.57-15.06,36.56-25.9,57.5-33.6
		c27.35-10.2,55.97-16.29,84.32-22.99c14.09-3.29,27.77-8.1,41.63-12.19c7.56-1.62,14.78-4.45,22.37-5.98
		c7.13-2.52,14.63-3.7,21.81-6.09c6.39-1.97,13.04-3.05,19.37-5.25c9.23-1.87,18.81,2.44,27.92-0.17c0.49,0.28,1.47,0.82,1.96,1.1
		c0.68-0.4,2.04-1.2,2.72-1.59c0.7,0.42,1.42,0.83,2.16,1.23c2.53-1.26,5.28-1.93,7.9-2.98c6.31-2.72,11.61-7.5,18.3-9.39
		c3.51-0.97,6.73-2.69,10.08-4.09c0.27,0.18,0.81,0.53,1.08,0.71c1.51-2.51,4.79-2.76,6.68-4.89c3.65-3.61,7.41-7.12,11.04-10.75
		C1363.775,95.497,1366.395,92.337,1367.605,88.507z"/>
	<path fill="#76E1E2" d="M1540.265,254.677c13.17,5.12,26.73,9.49,39.07,16.48c-0.02,0.48-0.07,1.43-0.1,1.91
		c-0.61,2.06-0.98,4.18-1.07,6.33c2.36-1.65,3.86-4.17,5.77-6.27c-3.33,9.15-5.9,18.74-11.25,26.99
		c-8.7-13.79-24.81-20.23-39.71-24.94C1534.995,268.207,1537.645,261.447,1540.265,254.677z"/>
	<path fill="#76E1E2" d="M1596.275,286.797c1.02,1.72,1.97,3.49,2.61,5.41c0.26,2.21,0.28,4.56,1.52,6.51
		c0.5,1.02,1.02,2.07,1.08,3.24c1.54,12.52-0.82,25.15-4.18,37.19c-2.02,5.61-4.18,11.3-7.4,16.35c1.75-5.64,3-11.52,2.67-17.46
		c-0.16-4.41-1.78-8.61-2.03-13c-0.03-4.75,1.77-9.24,2.3-13.93C1593.905,302.997,1594.425,294.797,1596.275,286.797z"/>
	<path fill="#76E1E2" d="M845.905,288.297c3.36,0.18,6.63,1.03,9.81,2.11c7.57,2.55,15.43,5.09,21.59,10.4
		c3.72,3.3,7.17,7.06,9.45,11.53c3.07,5.59,3.27,12.13,4.58,18.25c-0.46,1.89,0.07,4.54-1.9,5.7c-0.59-5.22-2.35-10.18-3.51-15.27
		c-0.54-2.39-1.36-4.73-2.76-6.75c-3.33-5.82-7.88-10.97-13.11-15.15C862.595,294.347,854.295,291.027,845.905,288.297z"/>
	<path fill="#76E1E2" d="M1087.445,447.767c13.17,1.62,26.61,3.33,39.83,1.76c1.49,5.72,3.64,11.26,6.19,16.6
		c-12.57,0.94-25.18-0.08-37.69-1.28C1093.035,459.137,1090.125,453.507,1087.445,447.767z"/>
	<path fill="#76E1E2" d="M1173.775,560.217c10.31,1.8,20.29,5.15,30.55,7.3c-0.03-0.91-0.09-2.73-0.12-3.64
		c1.48,3.73-0.46,7.72-3.15,10.34C1191.295,571.117,1181.975,566.337,1173.775,560.217z"/>
</g>
<g>
	<path fill="#29D0D1" d="M941.475-2.933h150.28c6.76,5.01,14.44,8.54,21.89,12.37c10.19,5.19,20.95,9.48,32.27,11.42
		c13.22,2.47,26.64,4.39,40.12,3.87c15.58,0.08,31.15-0.65,46.7-1.55c8.4-0.5,16.79-1.21,25.19-1.85
		c13.32-1.15,26.71-1.94,40.09-1.49c5.24,0.36,10.48,0.72,15.74,0.8c17.62,1.22,35.22,3.69,52.17,8.77
		c7.59,2.26,14.96,5.2,22.09,8.65c6.2,3.06,12.66,5.61,18.63,9.12c6.91,3.95,13.29,8.76,19.36,13.9
		c6.1,5.52,12.47,10.91,17.32,17.62c1.83,2.47,3.54,5.03,5.38,7.51c2.6,3.44,5.07,7,8.02,10.15c3.21,3.91,9.08,1.3,12.88,4.15
		c2.07,1.56,3.74,3.63,5.96,5.01c1.73,0.67,3.59,0.91,5.35,1.52c1.51,0.9,2.19,2.61,3.06,4.06c8.36,15.83,18.11,30.99,29.71,44.66
		c15.32,17.61,36.51,29.19,58.63,35.94c22.89,7.57,46.79,11.49,70.73,13.79c11.98,1.1,24.01,1.03,36.03,0.93
		c4.96-0.24,9.98-1.55,14.94-0.61c4.33,2.14,6.48,6.91,10.48,9.49c5.81,0.93,11.69,0.21,17.54,0.21c4.05-0.02,8,1.07,12.05,1.23
		c16.76,0.72,33.23-3.48,49.96-3.57c10.82-0.79,21.7-0.26,32.46-1.9c11.82-0.51,23.78-1.34,35.52,0.6
		c9.62,1.5,19.35,2.73,28.72,5.49c7.98,2.22,15.8,5.01,23.6,7.82c1.23,0.52,2.45,1.09,3.67,1.71v66.69
		c-13.18-13.3-30.33-22.03-48.02-27.67c-16.15-5.27-32.98-7.83-49.51-11.56c-12.41-1.51-24.97-0.99-37.43-0.54
		c-12.61,0.88-25.27,1.14-37.85,2.4c-12.38,1.01-24.78,1.76-37.2,2.03c-10.1,0.31-19.55-3.75-29.4-5.28
		c-7.32-1.67-14.85-2.24-22.11-4.17c-6.7-1.38-12.79-4.6-19.07-7.18c-6.99-3.01-14.02-5.92-20.83-9.29
		c-16.18-8.03-33.87-12.07-50.84-17.96c-24.19-8.91-49.45-15.57-71.88-28.61c-9.04-5.13-16.66-12.27-24.65-18.83
		c-6.73-5.66-14.26-10.31-20.73-16.3c-11.22-10.46-22.96-20.34-34.22-30.75c-11.92-10.8-24.07-21.35-36.67-31.36
		c-8.01-6.08-15.66-12.79-24.62-17.48c-5.38-3-11.29-4.82-17.15-6.61c-11.43-3.78-23.28-6.34-35.31-7.04
		c-1.26-0.08-2.51-0.17-3.75-0.26c-2.58-0.21-5.18-0.31-7.76-0.32c-11.33-0.13-22.67-0.16-34,0.07
		c-25.48,0.99-50.63,5.57-75.98,8.03c-21.59,2.21-43.37,3.29-65.05,1.96c-8.24-0.49-16.42-1.87-24.45-3.8
		c-5.6-1.59-11.01-3.75-16.29-6.17c-14.14-6.11-28.18-12.6-41.28-20.74c-11.87-7.29-23.24-15.62-36.21-20.91
		C971.265,8.577,957.095,0.797,941.475-2.933z"/>
	<path fill="#29D0D1" d="M1308.235,290.107c9.96-4.43,20.63-7.95,31.63-8.11c6.32,0.98,11.36,5.39,17.03,8.06
		c8.43,4.69,18.05,6.18,27.1,9.22c11.95,3.64,23.62,8.12,35.29,12.6c13.62,5.35,28.23,7.33,42.21,11.49
		c16.44,4.82,30.94,14.34,46.98,20.18c16.18,5.41,31.74,12.48,47.72,18.44c8.6,3.11,16.38,8.17,25.21,10.67
		c2.91,1.1,5.21,3.28,7.64,5.16c5.56,4.95,12.58,8.06,17.54,13.7c5.1,5.91,12.85,8.3,18.72,13.26c5.08,4.24,11.04,7.68,14.76,13.33
		c2.66,4.25,5.07,8.72,8.63,12.33c5.01,5.17,7.98,11.92,13.19,16.92c4.89,4.88,9.75,9.82,13.81,15.45
		c8.55,11.6,16.5,23.72,23.13,36.53c3.33,8.93,11,15.06,15.77,23.11c3.25,5.28,6.56,10.52,9.74,15.84
		c6.07,10.41,9.94,23.3,20.99,29.72c-0.21-2-0.59-3.98-0.46-5.98c1.39-3.06,5.03-5.4,8.39-4.09c4.79,1.85,8.28,5.81,11.8,9.4
		c5.1,5.88,10.34,11.64,15.86,17.14c6.64,4.65,14.5,7.08,21.92,10.16c11.43,4.72,23.95,5.75,36.18,6.24
		c8.69,0.45,17.3-1.15,25.85-2.51c14.86-2.48,29.46-6.79,43.15-13.11v93.79c-33.33,10.24-68.52,11.02-103.1,10.83
		c-10.69-0.2-21.27-1.81-31.91-2.64c-13.13-1.07-26.08-3.56-39.12-5.38c-10.5-1.05-20.68-3.93-30.93-6.28
		c-11.62-2.88-23.19-6.09-34.38-10.37c-8.41-3.42-16.93-6.57-25.62-9.21c-3.57-1.16-7.05-2.53-10.56-3.83
		c-8.26-3.15-16.59-6.13-24.6-9.88c-8.83-4.13-17.55-8.5-26.46-12.46c-10.75-4.67-21.75-8.73-32.43-13.54
		c-7.01-2.98-13.61-6.93-20.92-9.17c-14.64-4.59-28.93-10.26-42.95-16.49c-6.26-2.66-12.54-5.38-19.12-7.11
		c-4.97-0.67-10.06,0.42-14.97-0.83c-13.2-3.05-25.91-7.87-39.02-11.25c-4.08-0.9-7.87,1.84-11.96,1.34
		c-10.83-1.43-21.33-4.75-32.18-6.07c-0.24,1.69-0.41,3.39-0.63,5.1c-6.13,0.17-12.26,0.05-18.38-0.02
		c-0.49,1.84-0.6,3.74-0.55,5.64c-2.63,1.61-5.36,3.01-8.08,4.45c3.48,3.03,6.71,6.37,9.36,10.16c-1.35,2.25-2.66,4.53-3.93,6.83
		c0.98,0.68,2,1.36,3.01,2.05c1.53,1.84,3.26,3.74,3.76,6.17c-0.68,2.23-2.12,4.13-2.87,6.32c-0.11,2.57,1.05,5.07,0.71,7.64
		c-0.75,2.18-2.06,4.13-2.71,6.35c-0.37,2.55-0.07,5.14-0.32,7.71c-2.31,2.2-5.66,2.95-8.07,5.09c-2.31,1.98-5.09,3.22-7.96,4.16
		c-3.21,0.91-4.46,4.43-7.15,6.1c-4.67,0.54-9.33-1.01-13.99-0.27c-5.61,0.88-11.34,0.8-16.94-0.03c-5.8-0.88-11.71-1.13-17.36-2.8
		c-7.91-2.27-15.54-5.56-23.65-7.12c-8.93-1.51-16.37-6.98-24.35-10.86c-8.55-4.34-17.98-7.3-25.39-13.62
		c-4.13-3.61-8.68-6.71-13.28-9.69c-8.42-5.33-16.02-11.86-23.31-18.63c-11.06-11.64-22.19-23.34-31.14-36.72
		c-4.15-5.28-8.12-10.7-11.91-16.23c-5.59-8.89-11.1-17.84-16.15-27.04c-7.2-14.53-14.33-29.12-20.18-44.25
		c-2.36-6.63-4.82-13.26-6.13-20.19c-0.33-1.94-0.55-3.9-0.68-5.85c3.94,2.38,5.84,6.72,7.93,10.61c2.68,5.74,5.59,11.37,8.33,17.08
		c7.68,15.58,16.84,30.41,26.72,44.68c7.09,10.59,16.27,19.56,25.24,28.54c8.36,7.71,15.89,16.68,26.04,22.15
		c8.2,6.12,17.52,10.9,27.28,14c2.69-2.62,4.63-6.61,3.15-10.34c-2.52-7.72-8.31-13.71-13.26-19.94
		c-10.7-12.89-22.78-24.63-32.57-38.26c-9.32-12.5-17.94-25.59-24.91-39.55c-2.55-5.34-4.7-10.88-6.19-16.6
		c-2.9-11.87-4.33-24.56-1-36.5c1.28-4.35,1.49-9.45,4.95-12.78c3.87-3.8,8.28-7.09,13.12-9.55c4.19-2.06,8.62-3.87,12.17-6.98
		c3.68-3.2,5.45-7.94,8.79-11.43c2.68-2.94,6.14-5.42,7.53-9.3c3.79-9.74,8.53-19.11,14.01-28.01c1.73-3.04,5.23-4.21,8.31-5.37
		c7.84-2.68,15.3-6.27,22.88-9.57c7.51-2.58,15.45-3.63,22.99-6.15c5.55-1.89,11.25-3.31,16.9-4.89c4.48-1.07,8.84-2.56,13.24-3.92
		C1284.145,301.737,1295.775,294.847,1308.235,290.107z"/>
	<path fill="#29D0D1" d="M1722.075,522.197c2.63-0.06,5.82-0.24,7.57,2.19c2.61,3.51,5.38,6.9,7.86,10.51
		c1.4,2.77,1.41,6.02,0.55,8.95c-4.11,0.17-7.37-2.72-9.39-6.01C1726.145,532.767,1723.775,527.597,1722.075,522.197z"/>
</g>
<g>
	<path fill="#FF76A5" d="M1157.875-2.933h66.9c6.43,5.85,13.65,10.69,20.81,15.59c4.16,2.81,7.78,6.46,12.34,8.67
		c-8.4,0.64-16.79,1.35-25.19,1.85c-3.3-1.69-6.8-2.92-10.11-4.59c-9.38-4.57-20.14-4.1-30.01-6.98
		c-11.75-2.3-23.45-4.84-35.19-7.18C1157.455,1.967,1157.515-0.493,1157.875-2.933z"/>
	<path fill="#FF76A5" d="M1280.415-2.933h61.61c6.45,7.84,13.67,15.02,20.05,22.93c1.91,2.83,2.62,6.26,3.85,9.41
		c-16.95-5.08-34.55-7.55-52.17-8.77C1303.675,11.447,1292.045,4.107,1280.415-2.933z"/>
	<path fill="#FF76A5" d="M1382.605-2.933h16.88c8.91,6.44,18.82,11.81,29.53,14.55c4.36,0.18,9.46,0.78,12.89-2.55
		c2.88-3.31,1.69-8.01,1.73-12h71.09c6.08,7.02,12.26,13.95,18.38,20.94c4,4.08,4.49,10.09,6.66,15.15
		c2.45,0.18,4.91,0.41,7.34,0.89c-8.85-0.83-18.9-1.07-26.01,5.17c-4.64,4.24-4.08,11.23-1.72,16.51
		c3.69,8.44,9.12,15.95,13.51,24.02c-6.97,8.92-15.31,18.05-26.8,20.63c-8.02,1.09-15.94-1.39-23.51-3.74
		c-11.2-3.78-22.54-7.1-33.87-10.43c-1.84-2.48-3.55-5.04-5.38-7.51c-4.85-6.71-11.22-12.1-17.32-17.62
		c-6.07-5.14-12.45-9.95-19.36-13.9c-2.54-6.79-3.86-13.96-5.15-21.07c-0.54-2.7-0.65-5.7-2.65-7.81
		C1393.235,11.367,1387.765,4.327,1382.605-2.933z"/>
	<path fill="#FF76A5" d="M647.285,8.957c3.27,0.56,5.16-2.46,7.48-4.16c-1.42,3.57-3.06,7.06-4.62,10.58
		c1.42-1.12,2.82-2.25,4.17-3.44c-2.97,5.97-7.22,11.15-10.54,16.92c-3.66,6.11-7.98,11.95-10.21,18.79
		c-1.75,5.2-5.14,9.58-7.65,14.41c-3.48,6.58-7.06,13.15-9.66,20.14c-4.62,11.03-8.76,22.45-9.87,34.44
		c-1.71,7.8-2.27,15.76-3.43,23.64c-0.62-4.24-1.11-8.5-1.57-12.77c-1.33-18.6,2.7-37.08,8.5-54.65
		c4.77-12.95,10.23-25.64,16.05-38.16c1.13-1.74,2.2-3.51,3.45-5.17c1.7-2.34,4.55-3.43,6.44-5.59
		C640.085,19.297,643.365,13.877,647.285,8.957z"/>
	<path fill="#FF76A5" d="M773.065,14.147c12.69-3.59,25.68-6.54,38.91-6.95c21.35-1.03,43.2,3.36,61.76,14.22
		c11.89,5.59,22.75,13.31,31.94,22.69c-14.68-1.86-28.08-8.77-42.29-12.53c-13.98-4.71-28.68-6.74-43.29-8.38
		c-20.53-1.45-41.37,0.88-61.07,6.86c-8.43,3.07-16.86,6.25-24.95,10.14c-4.59,2.19-9.74,3.16-13.89,6.22
		c-3.09,2.17-6.75,3.16-10.26,4.42c6.68-6.01,13.34-12.17,21.12-16.75C743.865,25.197,758.505,19.497,773.065,14.147z"/>
	<path fill="#FF76A5" d="M778.045,58.017c5.01-0.38,9.91-2.12,14.96-1.48c5.7,0.54,11.65,0.18,17.04,2.42
		c5.25,1.99,10.95,3.04,15.6,6.36c2.82,1.93,6.18,3.26,8.44,5.89c-6.57-3.07-13.03-6.57-20.26-7.85c-7.93-2.84-16.41-2.62-24.7-2.87
		c-6.91,1.28-14.12,1.39-20.72,4.01c-4.79,1.87-9.97,2.86-14.36,5.64c-3.94,2.44-8.21,4.32-12.06,6.88
		c-4.77,4.22-9.02,9.01-13.84,13.18c-4.29,3.38-5.86,8.85-8.91,13.2c1.33-4.09,3.34-7.99,5.42-11.75c4.54-4.76,9-9.61,13.29-14.61
		c2.83-3.41,7.08-5.02,10.71-7.38c4.13-2.28,7.82-5.46,12.46-6.7C766.735,61.247,772.065,58.237,778.045,58.017z"/>
	<path fill="#FF76A5" d="M1279.015,56.797c2.58,0.01,5.18,0.11,7.76,0.32c8.24,6.53,14.17,15.36,20.54,23.6
		c6.68,8.14,10.89,17.94,17.34,26.25c-3.14-7.54-7.07-14.75-10.54-22.15c-6.31-10.3-14.15-19.85-23.59-27.44
		c12.03,0.7,23.88,3.26,35.31,7.04c5.41,4.52,10.69,9.21,16,13.85c6.94,6.12,13.03,13.11,19.15,20.03
		c-3.63,3.63-7.39,7.14-11.04,10.75c-1.89,2.13-5.17,2.38-6.68,4.89c-0.27-0.18-0.81-0.53-1.08-0.71c-3.35,1.4-6.57,3.12-10.08,4.09
		c-6.69,1.89-11.99,6.67-18.3,9.39c-2.62,1.05-5.37,1.72-7.9,2.98c-0.74-0.4-1.46-0.81-2.16-1.23c-0.24-0.59-0.71-1.76-0.95-2.34
		c-0.26-5.69-1.41-11.27-1.88-16.94c-2.01-6.88-1.08-14.08-2.27-21.08c-0.16-4.41-2.4-8.33-4.26-12.21
		C1290.345,68.747,1285.305,62.107,1279.015,56.797z"/>
	<g>
		<path fill="#FF76A5" d="M787.215,83.347c5.86-0.46,11.56,1.77,17.39,2.24c4.57,1.61,8.76,4.16,13.39,5.66
			c4.22,1.29,7.46,4.36,11.18,6.58c4.74,3.02,10.28,5.72,12.61,11.2c2.03,5.19,3.73,10.56,4.97,15.98
			c-0.08,6.65,2.49,13.56-0.02,20.01c-1.14,3.53-2.13,7.12-3.41,10.62c-6.05,10.68-15.69,19.87-27.8,23.07
			c-5.96,2.14-11.98,4.27-18.43,4.14c-7.41,1.34-14.7-0.72-22.04-1.54c-2.75-0.32-5.17-1.74-7.73-2.66
			c-5.45-2.19-11.52-3.71-15.65-8.19c-5.22-5.78-13.07-9.47-15.91-17.14c-1.51-4.32-3.97-8.54-3.76-13.26
			c1.22-5.26,2.47-10.52,3.37-15.85c2.29-5.25,3.73-10.8,5.7-16.16c5.5-5.1,10.6-10.67,15.57-16.26c5.31-2.41,10.83-4.36,16.23-6.53
			C777.605,84.367,782.465,84.227,787.215,83.347z M785.555,107.787c-3.94,1.21-8.13,1.47-11.98,2.96
			c-4.47,4.45-8.95,8.95-13.19,13.63c-1.1,5.44-1.94,11.06-1.86,16.65c1.69,2.44,3.69,4.67,5.31,7.17c2.8,3.76,5,8.36,9.34,10.61
			c3.88,1.31,7.97,1.86,11.87,3.12c6.48,2.8,13.38-0.47,20.1-0.56c2.56-1.38,5.11-2.9,7.36-4.77c2.56-3.26,4.1-7.19,6.48-10.58
			c1.21-2.14,3.23-4.26,2.62-6.92c-0.72-4.9-2-9.72-3.32-14.49c-2.26-2.65-4.94-4.91-7.32-7.45c-2.69-2.66-5.05-6.14-9-6.94
			C796.605,108.947,791.125,106.007,785.555,107.787z"/>
	</g>
	<path fill="#FF76A5" d="M1099.025,194.557c17.97-4.67,36.35-7.84,54.9-8.88c20.88-1.35,41.98-1.6,62.75,1.29
		c11.51,1.47,22.01,6.85,31.67,13c16.95,9.37,32.02,22.74,41.25,39.95c-11.88,19.5-18.66,42.28-18.43,65.16
		c-4.4,1.36-8.76,2.85-13.24,3.92c-3.49-25.52-16.79-48.97-34.29-67.57c-8.45-9.02-17.67-17.57-28.58-23.52
		c-10.82-6.16-23-9.19-35.05-11.84c-28.36-4.97-57.4,0.99-84,10.98c-6.78,3.41-13.86,6.35-19.97,10.91
		c-5.07,3.63-10.72,6.54-15.03,11.13c-5.42,5.58-11.79,10.29-16.26,16.74c-4.78,6.54-10.18,12.69-13.93,19.92
		c-8.26,14.97-16.46,30.34-19.68,47.31c-2.09,7.53-2.8,15.32-3.47,23.08c-0.33,5.94,0.83,11.88,0.08,17.82
		c-1.07-3.97-1.52-8.06-2.41-12.07c-2.53-23.32,3.16-46.62,11.06-68.43c6.34-15.09,13.92-29.93,24.8-42.3
		c6.04-7.88,13.79-14.15,21.43-20.4C1059.355,208.217,1078.815,199.677,1099.025,194.557z"/>
	<g>
		<path fill="#FF76A5" d="M846.035,232.027c19.42-3.01,37.65-10.95,57-14.23c3.67-0.25,7.29,0.59,10.95,0.65
			c4.95-0.03,9.52,2.07,14.06,3.78c8.67,3.33,15.52,11.12,17.27,20.3c2.45,13.02,2.93,26.48,1.24,39.61
			c-1.55-6.1-3.27-12.15-5.2-18.14c-0.37,4.75,1.46,9.25,1.97,13.93c2.22,17.03,0.22,34.22-2.23,51.11
			c-1.87,12.07-2.56,24.75,1.52,36.46c1.34,3.02,3.08,6.4,6.48,7.45c4.96,1.74,10.13,2.84,15.06,4.73c2.19,0.65,4.95,2.22,7.04,0.49
			c1.49-2.75,1.49-5.98,1.58-9.02c-0.05-5.46,0.11-10.93,0.38-16.38c1.01,4.35,0.59,8.91,1.86,13.22
			c2.07,7.63,3.75,15.47,7.58,22.47c3.56,8.57,9.2,15.98,14.24,23.7c4.85,5.5,10.08,10.68,15.17,15.97
			c5.55,4.49,11.48,8.52,17.2,12.81c7.52,4.82,15.51,8.93,23.82,12.2c10.59,4.76,21.77,8.41,33.3,10.06
			c5.85,15.13,12.98,29.72,20.18,44.25c5.05,9.2,10.56,18.15,16.15,27.04c-18.07-2.41-36.01-5.87-53.66-10.42
			c-18.39-3.8-36.44-9.22-53.88-16.15c-33.86-12.17-65.16-31.36-91.24-56.16c-9.49-11.01-17.39-23.48-23.29-36.77
			c11.78,15.06,24.59,29.88,40.77,40.35c-4.3-5.18-9.55-9.48-14.14-14.4c-9.58-10.35-18.99-21.1-25.41-33.76
			c-3.64-5.91-6.86-12.28-7.88-19.2c-0.3-0.59-0.89-1.78-1.18-2.37c-2.66-9.66-1.66-19.99-4.88-29.55
			c-0.76,0.58-1.51,1.17-2.26,1.76c0.04-7.23-0.05-14.47,0.33-21.69c0.49-5.52-1.21-10.87-2.57-16.14
			c-1.02-4.74-4.52-8.24-7.32-11.98c2.51,1.92,4.8,4.11,7.12,6.26c1.4,2.02,2.22,4.36,2.76,6.75c1.16,5.09,2.92,10.05,3.51,15.27
			c1.97-1.16,1.44-3.81,1.9-5.7c4.69,15.19,7.79,31.57,17.78,44.41c1.51,1.52,3.4,4.62,5.87,3.3c2.05-2.13,1.94-5.3,2.36-8.02
			c0.76-10.77,1.11-21.61,3.03-32.26c2.32-14.66,6.49-29.09,7.25-43.95c-2.56,20.5-9.13,40.34-10.91,60.98
			c-0.52,3.46-0.86,7.35-3.62,9.85c-3.94-3.13-5.79-7.97-7.45-12.54c-3-8-3.06-16.68-5.19-24.89c-1.25-5-1.71-10.24-3.89-14.97
			c-1.94-4.23-3.82-8.52-6.44-12.38c-5.26-7.46-13.75-11.69-21.97-15.09c-20.38-6.93-41.91-9.71-62.27-16.67
			c-2.26-0.65-4-2.23-5.45-4.01c2.93-1.54,6.08-2.6,9.04-4.07c1.22-0.38,0.79-1.8,0.97-2.74c-4.91-3.07-10.26-5.33-15.72-7.22
			c-5.49-2.04-11.75-3.76-15.38-8.71c3.36-3.42,8.47-3.35,12.87-4.24C810.085,234.927,828.295,235.627,846.035,232.027z
			 M823.985,238.727c6.12,0.32,12.1-1.32,18.15-1.97c10.39-1.67,20.75-3.57,31.13-5.32c2.96-0.55,5.94-1.4,8.98-1.02
			c0.35-0.53,0.41-1.19,0.14-1.77c-1.57,2.46-4.24,0.7-6.42,1.22C858.525,232.077,841.275,235.537,823.985,238.727z"/>
	</g>
	<path fill="#FF76A5" d="M1546.845,237.017c12.05,6.54,24.86,11.59,36.72,18.51c-3.44,5.24-2.17,11.84-4.33,17.54
		c0.03-0.48,0.08-1.43,0.1-1.91c-12.34-6.99-25.9-11.36-39.07-16.48C1542.605,248.847,1544.695,242.917,1546.845,237.017z"/>
	<path fill="#FF76A5" d="M1596.275,286.797c1.32-5.42,3.33-10.74,6.38-15.45c0.4,1.3,1.11,2.45,1.93,3.55
		c-3.61,5.05-4.8,11.29-5.7,17.31C1598.245,290.287,1597.295,288.517,1596.275,286.797z"/>
	<path fill="#FF76A5" d="M1600.405,298.717c3.53-5.19,5.1-11.38,8.38-16.71c1.94,4.46,3.65,9.12,4.04,14.02
		c1.31,14.9-1.51,29.85-5.68,44.11c-4.8,13.1-10.97,25.69-18.1,37.68c-2.43-1.88-4.73-4.06-7.64-5.16
		c4.38-4.81,5.93-11.34,8.5-17.16c3.22-5.05,5.38-10.74,7.4-16.35c3.36-12.04,5.72-24.67,4.18-37.19
		C1601.425,300.787,1600.905,299.737,1600.405,298.717z"/>
	<path fill="#FF76A5" d="M1662.095,410.157c8.5-2.13,17.73-1.73,25.72,2.04c10.54,4.91,18.95,13.12,28.24,19.92
		c6.8,5.06,13.07,10.76,19.55,16.21c-3.26,6.75-7.83,12.92-9.77,20.27c-12.17,0.34-23.68-4.48-35.77-4.91
		c-4.8-0.22-9.59-0.45-14.37-0.88c-4.06-5.63-8.92-10.57-13.81-15.45c-5.21-5-8.18-11.75-13.19-16.92
		c-3.56-3.61-5.97-8.08-8.63-12.33C1647.295,415.157,1654.335,411.537,1662.095,410.157z"/>
	<path fill="#FF76A5" d="M1095.775,464.847c12.51,1.2,25.12,2.22,37.69,1.28c6.97,13.96,15.59,27.05,24.91,39.55
		c9.79,13.63,21.87,25.37,32.57,38.26c-14.38-2.11-28.78-4.16-43.21-5.87c-8.97-8.98-18.15-17.95-25.24-28.54
		C1112.615,495.257,1103.455,480.427,1095.775,464.847z"/>
	<path fill="#FF76A5" d="M1531.955,650.107c15.13-9.51,31.73-16.98,49.38-20.28c8.91,3.96,17.63,8.33,26.46,12.46
		c8.01,3.75,16.34,6.73,24.6,9.88c-0.76,3.63-0.95,7.34-0.63,11.04c0.87,0.16,2.61,0.5,3.48,0.66c2.72-2.47,5.2-5.19,7.71-7.87
		c8.69,2.64,17.21,5.79,25.62,9.21c-3.45,7.59-5.52,15.77-9.44,23.16c-2.53,5.11-6.95,8.9-11.12,12.64
		c-11.72,9.4-25.43,16.36-40.11,19.7c-14.01,3.63-28.51,4.27-42.89,4.88c-12.78,0.99-25.84,2.13-38.47-0.78
		c-7.19-1.47-14.43,1.64-21.59,0.03c-5.3-1-10.55-4.5-12.04-9.92c-2.87-7.51-0.57-15.68,2.51-22.72c2.75-7.75,6.89-15,12.26-21.23
		C1514.345,662.477,1523.405,656.477,1531.955,650.107z"/>
</g>
<g>
	<path fill="#FF2872" d="M1521.095,39.217c7.11-6.24,17.16-6,26.01-5.17c7.41,1.29,14.61,3.58,21.62,6.29
		c12.47,5.06,25.47,10.1,35.31,19.64c10.26,10.13,19.96,21.48,24.89,35.24c3.53,9.72,5.27,20.7,1.94,30.7
		c-4.2,10.33-13.17,17.44-20.78,25.18c-13.15,13-25.25,27-37.77,40.6c-22.12-6.75-43.31-18.33-58.63-35.94
		c6.67-3.69,13.22-7.96,18.18-13.83c7.01-8.63,11.41-19.71,10.86-30.93c-0.34-11.1-4.71-21.57-9.84-31.25
		c-4.39-8.07-9.82-15.58-13.51-24.02C1517.015,50.447,1516.455,43.457,1521.095,39.217z"/>
	<path fill="#FF2872" d="M1367.795,169.817c7.38-2.24,15.35-1.43,22.28,1.86c5.63-0.19,11.36-0.52,16.91,0.73
		c4.49,0.26,8.91,1.46,12.84,3.68c-5.31-2.39-11.16-2.62-16.78-3.59c-4.26,0.2-8.43-1.13-12.68-0.52
		c9.13,6.79,13.79,17.98,15.11,29.01c2.34,16.58-0.86,33.46-6.44,49.09c-3.11,9.04-7.2,18.16-6.53,27.94
		c-0.09,8.89,5.65,17.32,13.74,20.86c9.25,4.62,20.38,4.12,29.73,0.02c20.04-7.79,32.39-28.13,36.79-48.4
		c3.53-14.23,0.02-29.04,3.05-43.33c1.43-7.54,4.66-14.59,8.06-21.42c22.43,13.04,47.69,19.7,71.88,28.61
		c-3.45,7.36-6.27,14.98-8.91,22.66c-2.15,5.9-4.24,11.83-6.58,17.66c-2.62,6.77-5.27,13.53-7.29,20.5
		c-2.31,8.09-4.72,17.05-1.22,25.16c2.57,5.89,8.97,9.12,15.17,9.36c9.31,0.63,19.9-1.72,25.76-9.58
		c5.35-8.25,7.92-17.84,11.25-26.99c-1.91,2.1-3.41,4.62-5.77,6.27c0.09-2.15,0.46-4.27,1.07-6.33c2.16-5.7,0.89-12.3,4.33-17.54
		c5.27-9.75,13.83-17.26,23.03-23.21c6.81,3.37,13.84,6.28,20.83,9.29c6.28,2.58,12.37,5.8,19.07,7.18
		c7.26,1.93,14.79,2.5,22.11,4.17c-10.28,3.65-20.42,7.78-30.99,10.53c-11.06,3.17-22.63,8.28-28.83,18.52
		c-3.28,5.33-4.85,11.52-8.38,16.71c-1.24-1.95-1.26-4.3-1.52-6.51c0.9-6.02,2.09-12.26,5.7-17.31c4.8-6.69,12-10.91,18.25-16.06
		c4.17-3.45,8.92-6.1,13.1-9.54c-11.9,5.89-25.05,11.07-33.28,22.05c-3.05,4.71-5.06,10.03-6.38,15.45c-1.85,8-2.37,16.2-3.43,24.31
		c-0.53,4.69-2.33,9.18-2.3,13.93c0.25,4.39,1.87,8.59,2.03,13c0.33,5.94-0.92,11.82-2.67,17.46c-2.57,5.82-4.12,12.35-8.5,17.16
		c-8.83-2.5-16.61-7.56-25.21-10.67c-15.98-5.96-31.54-13.03-47.72-18.44c-16.04-5.84-30.54-15.36-46.98-20.18
		c-13.98-4.16-28.59-6.14-42.21-11.49c-11.67-4.48-23.34-8.96-35.29-12.6c-9.05-3.04-18.67-4.53-27.1-9.22
		c-5.67-2.67-10.71-7.08-17.03-8.06c-11,0.16-21.67,3.68-31.63,8.11c-12.46,4.74-24.09,11.63-37.07,14.97
		c-0.23-22.88,6.55-45.66,18.43-65.16c10.22-17.52,24.55-32.21,39.51-45.73C1340.665,184.257,1352.955,174.277,1367.795,169.817z"/>
	<path fill="#FF2872" d="M1684.355,172.567c4.82-2.61,10.47-1.93,15.55-0.52c12.07,2.93,23.8,7.19,36.01,9.57
		c9.04,1.58,17.68,4.79,26.17,8.2c17.89,7.77,37.79,10.79,54.42,21.45c-10.76,1.64-21.64,1.11-32.46,1.9
		c-16.73,0.09-33.2,4.29-49.96,3.57c-4.05-0.16-8-1.25-12.05-1.23c-5.85,0-11.73,0.72-17.54-0.21c-4-2.58-6.15-7.35-10.48-9.49
		c-4.96-0.94-9.98,0.37-14.94,0.61c-12.02,0.1-24.05,0.17-36.03-0.93c6.47-2.92,12.49-6.81,17.62-11.74
		C1668.595,186.747,1674.685,177.387,1684.355,172.567z"/>
	<path fill="#FF2872" d="M1810.485,254.347c16.53,3.73,33.36,6.29,49.51,11.56c17.69,5.64,34.84,14.37,48.02,27.67v246.57
		c-9.51,6.02-18.44,12.89-27.86,19.03c-14.73,9.02-29.85,17.57-45.84,24.17c-10.4,4.01-20.84,7.96-31.48,11.29
		c-7.42-3.08-15.28-5.51-21.92-10.16c9.59-4.38,19.28-8.65,28.25-14.25c6.61-4.37,13.74-8.37,18.81-14.63
		c-10.61,1.48-20.22,6.63-30.13,10.37c-7.29,2.38-15.1,2.48-22.39,4.82c-0.23-0.54-0.67-1.61-0.9-2.15
		c-2.29,0.55-4.63,0.77-6.94,0.36c0.8-1.39,2.25-2.14,3.57-2.96c-2.07,0.38-4.11,0.8-6.13,1.3c-3.52-3.59-7.01-7.55-11.8-9.4
		c-3.36-1.31-7,1.03-8.39,4.09c-0.13,2,0.25,3.98,0.46,5.98c-11.05-6.42-14.92-19.31-20.99-29.72c1.12-0.45,2.27-0.86,3.44-1.25
		c0.22,0.2,0.66,0.6,0.89,0.8c2.02,3.29,5.28,6.18,9.39,6.01c0.86-2.93,0.85-6.18-0.55-8.95c17.43-5.24,34.27-14.04,46.6-27.68
		c5.43-6.09,10.48-13.06,11.85-21.31c1.32-6.13-0.1-12.49-2.58-18.14c-4.29-9.25-11.63-16.57-16.74-25.32
		c-6.08-9.91-9.64-21.04-14.47-31.55c3.14,11.33,6.96,22.53,12.06,33.13c4.03,8.6,10.85,15.8,13.32,25.13
		c1.5,5.35,0.18,11.13-2.55,15.86c-5.28,8.99-13.75,16.14-23.59,19.64c-5.97,2.15-12.78,3.75-18.86,1.12
		c-6.43-2.35-10.34-8.52-12.74-14.6c-2.7-7.17-5.43-14.82-3.97-22.58c1.94-7.35,6.51-13.52,9.77-20.27
		c2.91-7.04,4.94-14.62,4.53-22.29c-0.53-9.02-6.59-16.84-6.03-26.02c0.05-11.76,6.71-22.13,13.63-31.14
		c4.56-6.09,11.31-10.96,19.11-11.42c-2.05,5.69-6.26,10.21-8.73,15.69c4.6-3.95,8.44-9.65,14.94-10.57
		c6.8-0.57,12.85,3.5,17.84,7.67c4.59,3.78,9.78,7.96,16.09,7.69c4.93,0.25,9.71-2.54,12.17-6.77c4.75-7.51,5.47-16.62,6.47-25.22
		c1.64-13.38,3.84-26.68,5.69-40.02c1.33-10.29,1.41-21.3-3.37-30.78C1824.055,266.837,1817.885,259.737,1810.485,254.347z"/>
	<path fill="#FF2872" d="M1185.975,307.117c6.25-4.62,15.22-4.87,21.8-0.78c5.11,3.01,8.01,8.42,10.26,13.7
		c-7.58,3.3-15.04,6.89-22.88,9.57c-3.08,1.16-6.58,2.33-8.31,5.37c-5.48,8.9-10.22,18.27-14.01,28.01
		c-1.39,3.88-4.85,6.36-7.53,9.3c-3.34,3.49-5.11,8.23-8.79,11.43c-3.55,3.11-7.98,4.92-12.17,6.98
		c4.4-20.34,13.03-39.46,22.42-57.92C1171.885,323.427,1177.125,313.497,1185.975,307.117z"/>
	<path fill="#FF2872" d="M1367.785,566.707c10.85,1.32,21.35,4.64,32.18,6.07c4.09,0.5,7.88-2.24,11.96-1.34
		c13.11,3.38,25.82,8.2,39.02,11.25c4.91,1.25,10,0.16,14.97,0.83c6.58,1.73,12.86,4.45,19.12,7.11c-3.22-0.65-6.42,0.23-9.53,0.98
		c-0.06,0.19-0.17,0.57-0.23,0.76c-1.42,0.16-2.85,0.25-4.19,0.68c-7.18,2.34-14.68,3.41-22.03,5.08
		c-33.01,6.59-67.12,6.8-100.47,2.79c-1.01-0.69-2.03-1.37-3.01-2.05c1.27-2.3,2.58-4.58,3.93-6.83c-2.65-3.79-5.88-7.13-9.36-10.16
		c2.72-1.44,5.45-2.84,8.08-4.45c-0.05-1.9,0.06-3.8,0.55-5.64c6.12,0.07,12.25,0.19,18.38,0.02
		C1367.375,570.097,1367.545,568.397,1367.785,566.707z"/>
</g>
</svg>
