<?xml version="1.0" encoding="utf-8"?>
<!-- Generator: Adobe Illustrator 17.0.0, SVG Export Plug-In . SVG Version: 6.00 Build 0)  -->
<!DOCTYPE svg PUBLIC "-//W3C//DTD SVG 1.1//EN" "http://www.w3.org/Graphics/SVG/1.1/DTD/svg11.dtd">
<svg version="1.1" id="Capa_1" xmlns="http://www.w3.org/2000/svg" xmlns:xlink="http://www.w3.org/1999/xlink" x="0px" y="0px"
	 width="1900px" height="791px" viewBox="0 0 1900 791" enable-background="new 0 0 1900 791" xml:space="preserve">
<rect x="0" y="1.163" fill="#E4E4E4" width="1900" height="788.674"/>
<linearGradient id="SVGID_1_" gradientUnits="userSpaceOnUse" x1="941.6" y1="-25.2944" x2="941.6" y2="766.6146" gradientTransform="matrix(1 0 0 -1 8.4 767.16)">
	<stop  offset="0" style="stop-color:#FFFFFF;stop-opacity:0"/>
	<stop  offset="1" style="stop-color:#FFA928"/>
</linearGradient>
<rect x="1.589" y="0.545" fill="url(#SVGID_1_)" width="1896.823" height="791.909"/>
<g>
	<path fill="#FFFFFF" d="M-503.16-995.646c-3.153-3.728-6.508-7.253-10.053-10.521
		C-510.144-1002.302-506.837-998.724-503.16-995.646z"/>
	<path fill="#FFFFFF" d="M-433.015-922.477c-3.141-3.728-6.472-7.226-9.994-10.466
		C-439.963-929.133-436.679-925.541-433.015-922.477z"/>
	<path fill="#FFFFFF" d="M-362.81-849.253c-3.141-3.728-6.472-7.24-10.005-10.493C-369.77-855.91-366.474-852.331-362.81-849.253z"
		/>
</g>
<g>
	<path fill="#FF0000" d="M1961.968-564.167h0.263c3.344,2.888,6.477,6.033,9.623,9.165c-38.374,36.09-76.668,72.261-115.015,108.364
		c-3.173,2.888-6.029,6.182-9.636,8.487c-1.606,0.773-3.186,1.654-4.449,2.928c-11.282,10.792-22.708,21.421-34.029,32.158
		c-2.264-2.115-4.476-4.338-6.99-6.141l-2.185-0.271c-0.237-0.176-0.698-0.542-0.935-0.719c21.379-20.201,42.81-40.36,64.215-60.534
		c1.804-1.708,3.594-3.403,5.411-5.111C1899.491-505.273,1930.716-534.733,1961.968-564.167z"/>
	<path fill="#FF0000" d="M1748.077-399.905c39.914-37.676,79.933-75.23,119.781-112.974c3.396,2.969,6.701,6.047,9.926,9.205
		c-8.412,7.809-16.666,15.808-25.13,23.563c-10.347,9.517-20.47,19.279-30.765,28.85c-9.017,8.758-18.548,16.96-27.039,26.274
		c-26.104,24.552-51.998,49.362-78.34,73.63c-12.585,11.009-24.42,22.926-36.728,34.273
		c-37.505,35.344-75.009,70.688-112.514,106.059c-28.711,26.898-57.159,54.094-85.988,80.856c-2.133-2.088-4.265-4.162-6.385-6.25
		c-63.334,59.329-126.324,119.036-189.552,178.485c-0.856-0.813-2.567-2.454-3.436-3.267c15.902-15.171,32.055-30.057,47.878-45.295
		c-2.988-2.698-5.884-5.477-8.715-8.338c52.038-49.024,104.063-98.061,156.088-147.111c47.115-44.346,94.15-88.787,141.291-133.106
		c32.976-31.114,65.9-62.283,99.008-93.248c3.12,2.657,5.687,6.453,9.347,8.202C1734.149-386.388,1740.915-393.384,1748.077-399.905
		z"/>
	<path fill="#FF0000" d="M2136.696-446.732c3.462,2.874,6.674,6.074,9.978,9.151c-39.519,37.31-79.117,74.552-118.649,111.862
		c-1.961,1.762-3.673,3.918-6.082,5.057c-4.265,1.925-7.148,5.857-10.624,8.894c-9.939,9.653-20.562,18.587-29.777,28.999
		c-93.215,87.852-186.444,175.704-279.646,263.569c-37.742,35.439-75.22,71.163-113.12,106.412
		c-0.487-0.461-1.461-1.396-1.948-1.857c-0.671-0.651-2.04-1.939-2.712-2.589c-41.203,38.461-82.064,77.33-123.163,115.901
		c-1.264-1.342-2.501-2.671-3.739-4.013c-6.832,5.07-12.572,11.537-18.891,17.259c-3.37-2.996-6.806-5.952-9.689-9.45
		c11.756-9.992,22.537-21.136,33.977-31.507c18.167-17.53,36.978-34.382,54.921-52.155
		c102.114-96.474,204.532-192.61,306.567-289.165l0.474,0.298c1.567,1.017,3.173,2.02,4.779,3.037
		c6.135-5.531,11.914-11.47,18.14-16.879c2.106,1.288,4.844,5.613,7.174,2.291c33.226-31.385,66.505-62.703,99.758-94.061
		c8.478-7.931,16.705-16.188,25.762-23.427c32.529-30.626,65.057-61.266,97.533-91.946
		C2097.388-409.599,2117.16-428.037,2136.696-446.732z"/>
	<path fill="#FF0000" d="M2305.276-443.79c3.541,2.752,6.648,6.006,10.005,9.002c-31.331,29.88-62.977,59.395-94.427,89.14
		c-10.084,9.219-19.641,19.089-30.054,27.888c-1.685,0.759-3.331,1.64-4.647,2.956c-11.308,10.792-22.708,21.475-34.095,32.172
		c-2.738-2.535-5.226-5.762-9.07-6.467c-0.237-0.176-0.737-0.515-0.974-0.691c21.379-20.146,42.77-40.306,64.149-60.466
		C2239.192-381.453,2272.353-412.486,2305.276-443.79z"/>
	<path fill="#FF0000" d="M2076.338-352.034c31.357-29.514,62.596-59.178,94.071-88.543c3.712,2.291,6.411,6.047,9.939,8.704
		c-74.786,71.081-150.124,141.553-225.107,212.417c-0.395-0.38-1.172-1.125-1.567-1.505c-12.48,11.754-24.972,23.495-37.413,35.29
		c-3.159-2.82-6.358-5.599-9.662-8.216c0.895-0.624,2.686-1.857,3.581-2.481c40.493-38.286,81.17-76.396,121.611-114.736
		c10.821-10.575,21.997-20.743,32.91-31.223C2068.295-345.92,2072.916-348.224,2076.338-352.034z"/>
	<path fill="#FF0000" d="M1553.273-364.711c16.666-15.699,33.332-31.399,49.997-47.098l1.619,1.491
		c2.738,2.522,5.476,5.07,8.188,7.646c-9.518,9.233-19.404,18.058-28.803,27.413c-28.803,27.02-57.62,54.026-86.317,81.155
		c-2.988,2.644-5.582,5.816-9.017,7.89c-4.792,2.644-8.425,6.846-12.427,10.534c-86.923,81.9-173.82,163.827-260.729,245.728
		c-2.936-2.793-5.884-5.559-8.794-8.365c5.845-5.518,11.703-11.049,17.574-16.554c73.101-68.926,146.228-137.838,219.354-206.75
		c21.839-20.743,43.981-41.174,65.676-62.093C1523.878-337.663,1538.727-351.017,1553.273-364.711z"/>
	<path fill="#FF0000" d="M1598.44-369.604c12.98-12.025,25.565-24.512,38.795-36.239c3.146,3.105,6.477,6.033,9.505,9.287
		c-132.209,124.253-264.008,248.981-396.242,373.194c-0.75-0.583-2.238-1.762-2.975-2.345c-5.516,5.125-10.834,10.466-16.837,15.008
		c-64.926,61.198-129.851,122.41-194.803,183.594c-3.146-3.037-6.503-5.843-9.465-9.07c7.438-8.08,15.942-15.157,23.788-22.871
		c41.836-39.438,83.685-78.877,125.533-118.315c0.5,0.434,1.514,1.315,2.027,1.749c106.143-100.094,212.285-200.202,318.533-300.188
		c-0.026-0.678-0.066-2.02-0.079-2.684c4.305-4.216,8.662-8.392,13.177-12.391c0.671,0.664,2.014,1.993,2.672,2.657
		C1540.873-315.334,1569.65-342.476,1598.44-369.604z"/>
	<g>
		<path fill="#FF0000" d="M2088.568-276.953c41.112-38.313,81.736-77.169,122.835-115.495c3.304,3.064,6.595,6.155,9.86,9.26
			c-5.371,5.07-10.755,10.127-16.113,15.211c-13.006,12.31-26.091,24.525-39.058,36.89c-11.111,10.005-22.024,20.282-32.687,30.789
			c-38.071,35.9-76.339,71.583-114.357,107.524c-12.309,11.822-25.052,23.183-37.083,35.29c4.055-3.213,7.648-6.982,11.479-10.48
			c2.054,1.952,4.12,3.891,6.174,5.857c1.132,1.112,2.238,2.223,3.409,3.362c-45.1,42.963-90.622,85.452-135.867,128.253
			c-3.344,3.267-7.148,6.101-9.939,9.91c-5.108,3.715-9.36,8.473-14.059,12.69c-78.761,74.24-157.536,148.467-236.297,222.721
			c-3.278-3.037-6.516-6.114-9.768-9.165c0.553-0.569,1.672-1.722,2.238-2.291c12.73-11.131,24.999-22.871,37.044-34.788
			c39.242-37.242,78.735-74.227,118.069-111.374c26.394-25.068,53.17-49.742,79.34-75.067c-3.173,2.508-6.029,5.382-8.978,8.134
			c-2.606-2.427-5.2-4.867-7.767-7.335c-0.5-0.475-1.488-1.437-1.988-1.912c20.878-19.658,41.73-39.33,62.609-59.002
			c9.899-9.572,20.299-18.614,29.87-28.552c-2.593-2.359-5.213-4.704-7.872-6.969c-77.945,73.766-156.127,147.26-234.23,220.85
			l-0.606-1.857c5.476-5.762,11.532-10.9,17.192-16.472c46.72-43.994,93.413-88.001,140.093-132.035
			c46.469-43.763,92.939-87.54,139.369-131.358c1.738-1.668,3.475-3.322,5.239-4.962c31.278-29.474,62.675-58.826,93.781-88.503
			c1.553,1.315,3.094,2.63,4.647,3.972c6.082-5.748,12.203-11.483,18.272-17.259
			C2085.119-279.746,2086.567-277.875,2088.568-276.953z M1920.185-99.243c17.535-15.767,34.411-32.348,51.709-48.413
			c3.015-3.05,6.622-5.572,8.938-9.287C1960.849-137.448,1940.023-118.86,1920.185-99.243z M1905.27-84.709l-1.119-3.267
			c0.197,0.841,0.605,2.508,0.803,3.349c-9.11,7.05-16.719,15.957-25.723,23.156c-6.306,6.914-13.585,12.812-19.931,19.685
			l-1.053-2.576c0.197,0.759,0.566,2.278,0.75,3.037c-8.32,6.657-15.744,14.425-23.564,21.678c-0.053,0.312-0.171,0.935-0.224,1.247
			c13.954-14.574,29.646-27.277,43.481-41.987c0.684,0.081,2.067,0.23,2.751,0.312l-1.738-1.491
			c9.241-6.901,16.719-15.971,25.815-23.075c1.632-1.369,2.699-3.267,3.989-4.962l1.474,1.898c-0.118-0.705-0.355-2.101-0.474-2.806
			c3.186-2.278,6.424-4.718,8.425-8.229C1914.814-93.576,1908.64-90.593,1905.27-84.709z"/>
	</g>
	<path fill="#FF0000" d="M1851.718-352.59c10.926-11.429,22.787-21.895,34.279-32.728c3.37,2.901,6.595,5.979,9.57,9.327
		c-31.594,29.704-63.096,59.517-94.703,89.221c-9.939,9.368-19.825,18.777-29.83,28.077c1.935,1.952,3.923,3.864,5.95,5.735
		c7.741-7.335,15.521-14.642,23.287-21.949c3.265,3.05,6.516,6.128,9.768,9.205c-36.675,34.626-73.39,69.224-110.118,103.795
		c-0.816,0.854-1.461,1.817-1.948,2.901c11.269-9.395,21.51-20.065,32.371-29.962c56.843-53.606,113.738-107.158,170.568-160.791
		c3.291,3.05,6.556,6.128,9.794,9.246c-41.599,39.33-83.448,78.389-124.875,117.895c-17.785,16.893-35.701,33.636-53.499,50.501
		c-3.923,3.267-7.635,6.792-11.124,10.521c-22.247,20.824-44.39,41.784-66.558,62.703c-3.897,3.24-7.583,6.738-11.058,10.466
		c-22.274,20.824-44.416,41.811-66.611,62.73c-3.91,3.254-7.596,6.765-11.071,10.493c-15.797,14.764-31.568,29.569-47.194,44.509
		c-1.488,1.261-3.015,2.454-4.515,3.688c-2.896-2.901-5.898-5.681-8.873-8.473c-29.501,27.969-59.318,55.599-88.621,83.771
		c3.08,2.888,6.371,5.572,9.017,8.894c-132.18,124.296-264.098,248.889-396.187,373.291c-3.173-3.037-6.319-6.087-9.663-8.894
		c10.531-10.954,22.037-20.919,32.937-31.494c42.481-40.021,84.922-80.07,127.416-120.078
		c40.98-38.354,81.802-76.897,122.585-115.495c-3.041-2.833-6.042-5.694-9.057-8.555c0.329-0.61,0.987-1.844,1.316-2.467
		c32.963-30.748,65.61-61.862,98.521-92.678c4.502-4.42,9.715-8.27,12.532-14.154c16.89-16.391,34.477-32.05,51.169-48.671
		c-1.461-1.396-2.909-2.766-4.357-4.162c94.045-88.448,187.892-177.127,281.924-265.589c-2.843-2.779-5.555-5.721-8.636-8.216
		c-1.382-1.654-2.87,0.841-3.989,1.546c-77.05,72.722-154.139,145.376-231.281,217.976l-1.264-1.451
		c14.072-13.069,27.75-26.627,42.112-39.357c11.677-9.788,22.326-20.824,33.582-31.114
		c77.669-73.196,155.324-146.393,232.979-219.589C1816.096-318.9,1834.276-335.358,1851.718-352.59z"/>
	<path fill="#FF0000" d="M1536.357-128.012c88.766-83.283,177.045-167.122,265.903-250.296c0.75,0.705,2.264,2.142,3.028,2.847
		c-95.032,89.438-189.814,179.147-284.978,268.409c-3.252-3.037-6.464-6.101-9.61-9.233c2.067-1.952,4.12-3.932,6.2-5.884
		c4.542-3.823,8.754-8.04,13.19-11.998C1532.171-132.106,1534.264-130.072,1536.357-128.012z"/>
	<path fill="#FF0000" d="M1250.287-101.317c94.887-89.587,189.998-178.93,284.82-268.585c3.409,2.942,6.635,6.101,9.926,9.192
		c-12.466,11.781-24.959,23.536-37.426,35.317c-2.607-2.251-5.226-4.488-7.885-6.684
		c-82.131,77.697-164.513,155.124-246.762,232.685C1252.288-99.867,1250.958-100.843,1250.287-101.317z"/>
	<path fill="#FF0000" d="M1372.714,42.12c132.168-124.457,264.165-249.09,396.386-373.479c3.199,3.145,6.648,6.047,9.61,9.45
		c-54.249,50.623-107.867,101.979-162.222,152.48c-36.491,33.799-72.469,68.207-108.762,102.25
		c-41.836,39.438-83.698,78.863-125.52,118.315C1378.993,48.194,1375.794,45.211,1372.714,42.12z"/>
	<path fill="#FF0000" d="M1541.307,45.225c131.931-124.728,264.244-249.049,396.268-373.669c3.357,2.996,6.674,6.06,9.834,9.287
		c-27.658,25.881-55.132,51.979-82.763,77.901c-1.066-0.949-2.119-1.898-3.186-2.833c-94.808,89.519-189.88,178.754-284.583,268.409
		c2.883,2.806,5.766,5.599,8.649,8.406c-42.862,40.537-85.87,80.91-128.745,121.42c-0.645,0.407-1.935,1.207-2.58,1.613
		c-3.344-2.589-6.174-5.789-9.373-8.555c33.792-32.551,68.282-64.357,102.259-96.718
		C1545.164,48.709,1543.242,46.946,1541.307,45.225z"/>
	<path fill="#FF0000" d="M1490.085-197.52c41.546-38.354,82.355-77.602,123.704-116.2c0.408,0.339,1.237,1.017,1.646,1.342
		c2.922,2.373,5.595,5.016,8.333,7.619c-2.672,2.549-5.358,5.084-8.043,7.619c-2.514-2.061-4.844-4.352-7.214-6.562
		c-46.404,43.79-92.86,87.499-139.264,131.29c2.264,2.142,4.555,4.257,6.701,6.521l-0.685,1.247
		c-44.85,41.987-89.464,84.273-134.222,126.382c-3.278,3.647-6.24-2.793-9.031-4.338c-68.756,64.885-137.592,129.69-206.388,194.548
		c-9.728,8.826-18.838,18.465-28.948,26.789c-3.383-2.766-6.385-5.965-9.584-8.934c127.706-120.376,255.451-240.684,383.104-361.115
		c4.45-3.891,8.399-8.392,13.072-11.998C1485.899-201.899,1487.913-199.554,1490.085-197.52z"/>
	<path fill="#FF0000" d="M2228.845-264.372c4.028,1.22,6.859,5.938,10.255,8.745c-41.625,39.059-83.105,78.28-124.651,117.407
		l-0.987-0.719c-12.677,11.564-24.986,23.563-37.584,35.236c-2.422-2.278-4.818-4.569-7.188-6.901
		c-51.59,48.02-102.575,96.746-154.073,144.888c2.014,2.101,4.068,4.176,6.135,6.25c-55.224,52.399-110.75,104.487-166.145,156.71
		c-40.151,37.947-80.394,75.786-120.584,113.692c-5.832,4.948-10.716,11.198-17.127,15.32c-1.619,0.854-3.291,1.668-4.66,2.915
		c-29.554,27.996-59.199,55.897-88.845,83.771c-2.936-2.671-5.845-5.369-8.583-8.243c53.618-50.162,106.854-100.731,160.392-150.962
		c28.408-26.464,56.448-53.335,84.883-79.772c0.513,0.217,1.54,0.637,2.054,0.841c36.596-34.26,72.969-68.777,109.5-103.09
		c4.028-3.091,8.228-5.965,11.742-9.707c96.177-90.712,192.421-181.371,288.624-272.056c7.714-7.551,15.995-14.493,23.327-22.451
		C2206.111-243.521,2217.603-253.824,2228.845-264.372z"/>
	<path fill="#FF0000" d="M1296.638-241.65c3.225,3.023,6.464,6.047,9.742,9.029c-19.391,18.913-39.374,37.201-58.989,55.87
		c-75.26,70.932-150.493,141.878-225.779,212.783c-3.199-3.05-6.49-5.992-9.61-9.111v-0.42
		C1107.008-62.733,1201.777-152.252,1296.638-241.65z"/>
	<path fill="#FF0000" d="M2163.814-153.445c26.987-25.217,53.565-50.908,80.788-75.826c3.054,3.2,6.332,6.142,9.478,9.233
		c-40.493,38.137-80.999,76.274-121.439,114.465c-1.066,0.963-2.225,1.762-3.462,2.413c-1.264,0.746-2.527,1.478-3.62,2.427
		c-89.543,84.422-179.125,168.817-268.667,253.238c-2.514-2.237-4.95-4.528-7.451-6.738l-0.777-0.651
		c-67.427,63.313-134.63,126.87-201.991,190.251c-1.053-1.003-2.093-1.979-3.133-2.969c-2.185-2.034-4.37-4.054-6.543-6.074
		c36.833-35.493,74.549-70.065,111.435-105.504c-0.145-0.583-0.434-1.749-0.579-2.318c17.772-16.594,35.411-33.351,53.13-50.013
		c106.445-100.311,212.891-200.649,319.336-300.974c7.82-7.307,15.521-14.764,23.445-21.977c3.186,3.105,6.437,6.155,9.689,9.205
		c-37.373,35.317-74.944,70.417-112.172,105.883c1.395-0.271,2.62-0.922,3.646-1.966
		C2084.513-78.758,2124.203-116.068,2163.814-153.445z"/>
	<path fill="#FF0000" d="M2250.527-73.131c53.881-51.274,108.315-102.155,162.406-153.28c3.265,3.01,6.582,5.992,9.583,9.3
		c-40.045,38.056-80.394,75.759-120.505,113.746c-1.119,1.071-2.356,1.993-3.699,2.739c-4.292,2.278-7.504,6.06-11.058,9.327
		c-8.438,7.958-16.89,15.889-25.288,23.888c-1.04,0.678-2.409,2.874-3.607,1.139C2255.7-68.522,2253.199-70.922,2250.527-73.131z"/>
	<path fill="#FF0000" d="M1716.075,162.618c132.129-124.497,264.152-249.117,396.386-373.492c3.265,3.037,6.569,6.06,9.676,9.3
		c-50.379,47.22-100.469,94.793-150.861,142c-36.517,33.514-72.284,67.909-108.473,101.816
		c-45.824,43.058-91.399,86.401-137.381,129.27C1722.328,168.515,1719.181,165.587,1716.075,162.618z"/>
	<path fill="#FF0000" d="M2092.083-29.802c62.833-59.571,125.981-118.817,188.972-178.239c3.225,3.037,6.424,6.114,9.728,9.07
		c-27.368,26.247-55.158,52.047-82.684,78.131c-0.935-0.922-1.856-1.83-2.765-2.739c-3.949,2.928-7.451,6.399-10.992,9.829
		c-74.654,70.39-149.334,140.753-224.001,211.143c-4.502,3.945-8.451,8.568-13.269,12.147c0.382-0.488,1.132-1.464,1.514-1.952
		c-3.278-2.915-6.477-5.925-9.623-8.975c-106.63,100.243-213.036,200.758-319.586,301.096c1.027,1.003,2.08,2.006,3.133,3.023
		c-108.96,102.684-217.92,205.381-326.879,308.078c-3.252-3.132-6.793-5.979-9.623-9.531c15.363-14.357,30.87-28.62,45.851-43.397
		c-3.225-2.739-6.266-5.681-9.32-8.609c30.093-28.457,60.279-56.819,90.411-85.249c2.212-2.088,4.278-4.42,6.977-5.843
		c6.464-4.325,11.703-10.304,17.324-15.686c2.409,2.047,4.765,4.176,7.188,6.223c1.014,1.505,2.541,1.207,3.581-0.108
		c89.806-84.639,179.507-169.372,269.484-253.794c36.109-32.714,71.073-66.757,106.788-99.918
		c56.408-52.874,112.62-105.965,168.817-159.055c26.223-25.054,52.723-49.796,79.104-74.674
		C2085.461-35.794,2088.607-32.608,2092.083-29.802z"/>
	<path fill="#FF0000" d="M2195.803-59.127c41.046-38.598,82-77.291,123.019-115.902c3.199,3.01,6.371,6.074,9.715,8.948
		c-29.738,28.823-60.226,56.86-90.24,85.398c-69.204,65.211-138.395,130.436-207.586,195.647
		c-32.937,30.816-65.452,62.12-98.639,92.624c-3.37-3.145-6.727-6.304-10.005-9.544c-57.817,54.84-115.95,109.34-173.899,164.044
		c-5.055,4.921-10.452,9.477-15.218,14.71c-13.164,13.53-27.316,26.003-40.927,39.045c-2.896-2.684-5.766-5.382-8.596-8.107
		c28.843-27.169,57.685-54.352,86.515-81.534c5.542-7.524,12.993-13.178,19.549-19.712c46.667-44.007,93.387-87.96,140.027-132.008
		c46.351-43.573,92.544-87.323,138.948-130.842c19.733-18.777,39.624-37.378,59.397-56.1c13.572-12.568,26.802-25.556,40.532-37.934
		c1.303,1.356,2.62,2.711,3.949,4.094c6.385-5.653,12.374-11.781,18.772-17.421C2192.657-62.191,2194.223-60.659,2195.803-59.127z"
		/>
	<path fill="#FF0000" d="M1481.147-109.316c3.436,3.091,6.806,6.263,10.15,9.477c-35.991,33.419-71.613,67.299-107.354,101.03
		c-3.37-2.983-6.648-6.06-9.873-9.192C1409.652-41.882,1445.801-75.165,1481.147-109.316z"/>
	<path fill="#FF0000" d="M1643.619,89.544c61.305-57.307,122.216-115.089,183.337-172.626c2.646,2.481,5.384,4.867,8.083,7.294
		c0.184,0.475,0.527,1.41,0.711,1.871c-7.464,7.389-15.297,14.398-22.892,21.665c-46.509,44.414-93.716,88.055-140.172,132.537
		c-77.406,73.182-154.93,146.229-232.545,219.181c-3.12-3.091-6.332-6.087-9.61-9.002c34.648-33.27,69.862-65.93,104.721-98.969
		C1571.4,157.548,1607.325,123.329,1643.619,89.544z"/>
	<path fill="#FF0000" d="M1973.158-59.289c7.28-7.158,14.876-13.991,22.208-21.109c3.252,2.928,6.411,5.952,9.636,8.907
		c-17.403,17.028-35.359,33.46-53.025,50.203l0.421-2.589c5.713-5.084,11.203-10.466,16.784-15.713
		c-2.817-2.644-5.595-5.301-8.359-7.985C1964.904-51.507,1969.195-55.209,1973.158-59.289z"/>
	<path fill="#FF0000" d="M2336.791-47.508c3.278,3.05,6.529,6.142,9.807,9.205c-33.424,31.507-66.861,63.001-100.285,94.522
		c-8.149,7.226-15.494,15.51-24.143,22.058c-4.871,2.684-8.478,7.077-12.572,10.765c-8.873,8.175-17.429,16.73-26.486,24.702
		c-2.817-1.857-6.016-9.138-9.465-4.826c-50.511,47.736-101.153,95.308-151.677,143.044c2.106,1.993,4.226,3.986,6.358,5.979
		c-55.158,52.196-110.5,104.189-165.75,156.29c-21.155,19.984-42.349,39.913-63.517,59.897
		c-55.684,52.304-111.079,104.961-166.908,157.089c-0.448-0.325-1.343-0.976-1.777-1.315c-2.567-2.508-6.042-4.582-7.583-7.836
		c29.238-28.199,59.068-55.775,88.542-83.717c23.774-22.356,47.431-44.834,71.284-67.096
		c66.045-62.283,132.339-124.294,198.042-186.97c0.829,0.773,1.685,1.559,2.554,2.345
		c101.904-96.081,203.834-192.122,305.751-288.189c4.449-4.352,9.281-8.311,13.362-13.042
		C2313.385-26.019,2325.365-36.472,2336.791-47.508z"/>
	<path fill="#FF0000" d="M2039.373,176.609c60.252-56.643,120.228-113.584,180.639-170.05c3.146,3.132,6.424,6.128,9.61,9.246
		c-50.182,47.112-100.127,94.481-150.348,141.566c-28.237,25.773-55.816,52.332-83.737,78.484
		c-54.21,51.057-108.341,102.182-162.591,153.198c-3.107-2.996-6.227-5.979-9.452-8.826
		C1895.305,312.197,1967.444,244.518,2039.373,176.609z"/>
	<path fill="#FF0000" d="M2228.068,84.717c7.543-7.036,14.889-14.33,22.603-21.163c4.028,1.586,6.687,5.938,10.215,8.595
		c-67.256,63.543-134.683,126.911-201.952,190.427c-0.421-0.136-1.237-0.42-1.659-0.569
		c-64.741,60.791-129.246,121.827-193.934,182.672c-2.87-2.725-5.753-5.437-8.609-8.148c17.824-16.743,35.609-33.555,53.42-50.325
		C2014.796,285.719,2121.399,185.177,2228.068,84.717z"/>
	<path fill="#FF0000" d="M1348.834,332.939c78.735-73.969,157.351-148.101,235.889-222.3c3.344,2.983,6.635,6.06,9.781,9.273
		c-132.248,124.349-264.153,249.117-396.439,373.425c-3.107-3.078-6.266-6.087-9.57-8.921
		c11.795-12.012,24.433-23.156,36.557-34.842C1266.321,410.705,1307.551,371.795,1348.834,332.939z"/>
	<path fill="#FF0000" d="M1895.555,484.945c132.076-124.565,264.231-249.036,396.32-373.574c3.278,3.037,6.543,6.114,9.781,9.233
		c-19.786,18.655-39.558,37.337-59.397,55.951c-106.827,100.772-213.733,201.463-320.6,302.194
		c-5.529,5.111-10.834,10.48-16.547,15.374C1902.018,490.951,1898.754,487.982,1895.555,484.945z"/>
	<path fill="#FF0000" d="M1922.015,145.4c4.436-3.308,8.03-7.66,12.322-11.158c2.909,2.779,5.871,5.518,8.873,8.229
		c-0.987,1.735-2.172,3.362-3.66,4.704c-6.569,6.06-13.085,12.188-19.522,18.397c-36.675,34.815-73.614,69.332-110.316,104.121
		c-9.755,9.463-20.036,18.37-29.475,28.172c2.751,2.657,5.542,5.287,8.399,7.85c-35.912,33.826-71.797,67.678-107.709,101.504
		c-2.751-2.589-5.503-5.152-8.175-7.823c-41.967,38.815-83.303,78.402-125.02,117.529c-3.331-3.064-6.714-6.087-9.781-9.409
		c83.566-78.348,166.724-157.157,250.198-235.614c1.553-1.017,2.093-2.671,0.895-4.23c43.428-40.889,86.791-81.846,130.233-122.708
		C1919.961,145.075,1921.33,145.292,1922.015,145.4z"/>
	<path fill="#FF0000" d="M2081.169,157.629c7.148-6.982,14.481-13.734,21.747-20.58c3.054,2.942,6.108,5.897,9.386,8.609
		c-1.079,1.288-2.119,2.603-3.265,3.823c-16.245,15.306-32.542,30.572-48.721,45.946c-0.355-0.271-1.053-0.8-1.396-1.071
		c6.095-5.274,11.848-10.968,17.706-16.526c-2.778-2.603-5.568-5.192-8.385-7.728
		C2072.376,165.75,2077.023,161.967,2081.169,157.629z"/>
	<path fill="#FF0000" d="M2061.7,265.383c40.48-38.15,80.894-76.396,121.479-114.424c3.186,3.105,6.424,6.155,9.689,9.192
		c-44.047,41.635-88.253,83.107-132.274,124.769c-1.224-1.437-2.409-2.847-3.673-4.189c3.436-3.254,6.872-6.494,10.307-9.761
		C2065.346,269.125,2063.503,267.267,2061.7,265.383z"/>
	<path fill="#FF0000" d="M1937.154,220.508c8.925-8.026,17.258-16.811,26.473-24.458c0.5,0.447,1.514,1.342,2.027,1.79
		c-10.966,10.453-22.063,20.756-33.029,31.196c1.896,1.83,3.804,3.647,5.726,5.477c-31.107,29.609-62.411,59.015-93.729,88.394
		c0.132,1.085,0.276,2.169,0.434,3.281c-3.554,3.389-7.122,6.779-10.808,10.005c-19.773,18.533-39.558,37.052-59.147,55.802
		c-1.106-0.854-2.212-1.708-3.304-2.535c-49.01,46.163-97.968,92.38-147.004,138.502c-2.225-2.115-4.463-4.23-6.687-6.331
		c69.902-66.065,140.159-131.737,209.745-198.128C1864.343,289.23,1900.742,254.876,1937.154,220.508z"/>
	<path fill="#FF0000" d="M1649.582,261.56c5.74-5.179,11.295-10.575,16.942-15.876c2.304,2.223,4.634,4.42,7.016,6.562
		c-53.697,50.759-107.406,101.518-161.34,151.992c-3.252-3.064-6.543-6.06-9.649-9.26c20.668-19.265,41.138-38.761,61.74-58.093
		c13.414-12.907,27.329-25.285,40.44-38.489c-1.922-1.722-3.778-3.525-5.608-5.328c13.73-13.056,27.842-25.718,41.204-39.167
		C1644.08,255.459,1646.647,258.835,1649.582,261.56z"/>
	<path fill="#FF0000" d="M1951.226,474.14c78.735-74.064,157.43-148.196,235.994-222.45c3.225,3.01,6.411,6.074,9.715,9.016
		c-43.429,41.486-87.371,82.415-130.984,123.698c-88.476,83.31-176.821,166.769-265.363,249.998
		c-3.173-2.983-6.306-6.006-9.583-8.88c8.623-9.165,18.232-17.34,27.237-26.112C1862.579,557.667,1906.823,515.815,1951.226,474.14z
		"/>
	<path fill="#FF0000" d="M1853.601,332.709c17.219-15.496,33.753-31.779,50.761-47.519c0.737,0.637,2.185,1.898,2.922,2.535
		c-43.968,41.689-88.187,83.08-132.181,124.728c-1.277-1.396-2.501-2.766-3.791-4.094c3.475-3.267,6.924-6.521,10.386-9.788
		c-1.869-1.762-3.725-3.511-5.582-5.26c18.14-17.367,36.596-34.368,54.723-51.762c1.751-1.654,3.633-3.172,5.687-4.42
		c4.41-2.373,7.569-6.426,11.4-9.599C1849.809,329.238,1851.705,330.974,1853.601,332.709z"/>
	<path fill="#FF0000" d="M1907.231,567.807c71.547-67.38,143.068-134.815,214.589-202.236c0.54,0.488,1.619,1.451,2.159,1.925
		c2.527,2.291,5.002,4.677,7.477,7.077c-15.139,15.157-31.094,29.447-46.548,44.265c-47.654,44.902-95.295,89.818-142.95,134.72
		c-68.809,64.926-137.763,129.69-206.48,194.725c-3.396-2.915-6.569-6.06-9.886-9.029
		C1785.924,681.879,1846.742,625.02,1907.231,567.807z"/>
	<path fill="#FF0000" d="M2238.139,417.782c17.614-16.364,34.793-33.243,52.657-49.295c3.08,3.159,6.345,6.114,9.491,9.219
		c-130.18,122.599-260.269,245.28-390.41,367.934c-2.093,1.64-3.752,4.311-6.266,5.138c-3.278-2.752-6.2-5.897-9.439-8.677
		C2008.714,633.846,2123.519,525.901,2238.139,417.782z"/>
	<path fill="#FF0000" d="M1773.326,463.036c2.646,2.142,5.279,4.311,7.727,6.711c-53.762,50.691-107.538,101.355-161.314,152.046
		c-3.278-3.078-6.556-6.155-9.794-9.26c34.148-32.145,68.296-64.289,102.391-96.501c-2.054-1.735-3.976-3.62-5.582-5.775
		c14.059-12.947,27.882-26.152,41.783-39.289c2.791,2.739,5.713,5.328,8.583,7.999
		C1762.492,473.638,1768.626,469.028,1773.326,463.036z"/>
	<path fill="#FF0000" d="M1925.925,481.678c5.45-5.03,10.926-10.046,16.139-15.333c2.712,1.844,5.318,3.877,7.635,6.277
		c-53.736,50.705-107.551,101.314-161.261,152.046c-3.344-3.01-6.595-6.114-9.847-9.219c28.356-26.735,56.724-53.457,85.08-80.192
		c18.864-17.991,38.163-35.52,56.738-53.809c0.948-0.271,2.844-0.827,3.791-1.098L1925.925,481.678z"/>
</g>
<g>
	<path fill="#FF7E00" d="M2028.658-506.724c18.206-16.96,36.044-34.368,54.487-51.057c3.08,3.05,6.24,6.033,9.491,8.907
		c-35.964,34.612-72.6,68.533-108.828,102.873c-58.488,55.057-116.845,110.276-175.426,165.224
		c-3.067-0.556-4.989-4.121-7.517-5.992c31.607-29.704,63.109-59.517,94.703-89.221c-2.975-3.349-6.2-6.426-9.57-9.327
		c-11.492,10.832-23.353,21.299-34.279,32.728c-0.54-0.529-1.606-1.586-2.146-2.115c16.942-15.889,33.766-31.901,50.748-47.749
		c2.949,2.847,5.858,5.775,9.096,8.284C1948.988-431.873,1988.941-469.17,2028.658-506.724z"/>
	<path fill="#FF7E00" d="M2211.403-392.449c47.799-44.794,95.335-89.899,143.094-134.72c3.094,3.037,6.477,5.762,9.386,9.002
		c-5.45,6.48-12.348,11.768-18.311,17.814c-41.441,39.059-82.882,78.104-124.309,117.163
		C2217.998-386.293,2214.707-389.385,2211.403-392.449z"/>
	<path fill="#FF7E00" d="M1858.603-484.667c3.317,2.806,6.516,5.775,9.636,8.826c-1.817,1.708-3.607,3.403-5.411,5.111
		c-3.028-2.983-6.134-5.897-9.36-8.663C1855.167-481.154,1856.892-482.917,1858.603-484.667z"/>
	<path fill="#FF7E00" d="M1469.997-193.724c94.624-89.411,189.419-178.646,284.188-267.894c3.199,3.064,6.424,6.101,9.676,9.111
		c-49.313,46.895-99.06,93.302-148.426,140.129c-0.408-0.325-1.237-1.003-1.646-1.342c-41.349,38.598-82.158,77.846-123.704,116.2
		c-2.172-2.034-4.186-4.379-6.819-5.789c-4.673,3.606-8.622,8.107-13.072,11.998C1470.142-191.908,1470.05-193.114,1469.997-193.724
		z"/>
	<path fill="#FF7E00" d="M1720.169-342.788c24.933-23.427,49.721-47.017,74.746-70.336c1.211,0.99,2.448,1.966,3.699,2.928
		c0.237,0.176,0.698,0.542,0.935,0.719c1.685,1.817,3.331,3.661,5.002,5.504c-78.906,74.606-158.023,148.969-237.008,223.48
		c-16.047,14.859-31.607,30.328-47.97,44.821c-1.843-1.803-3.686-3.593-5.529-5.369c-1.316-1.274-2.633-2.535-3.936-3.81
		c3.41-3.145,6.793-6.331,10.123-9.572c-1.119-1.085-2.225-2.169-3.331-3.24c17.706-17.001,35.912-33.446,53.394-50.678
		c-0.75-0.664-2.264-2.02-3.028-2.684c37.505-35.371,75.009-70.715,112.514-106.059c12.308-11.348,24.143-23.264,36.728-34.273
		c-0.606,0.773-1.79,2.318-2.396,3.091C1716.114-346.435,1718.141-344.605,1720.169-342.788z"/>
	<path fill="#FF7E00" d="M2036.293-368.899c10.913-10.141,21.695-20.445,32.581-30.653c3.015,2.752,6.003,5.531,8.846,8.5
		c-32.476,30.68-65.005,61.32-97.533,91.946c-9.057,7.24-17.285,15.496-25.762,23.427c-33.253,31.358-66.532,62.676-99.758,94.061
		c-2.33,3.322-5.068-1.003-7.174-2.291c-6.227,5.409-12.006,11.348-18.14,16.879c-1.606-1.017-3.212-2.02-4.779-3.037
		c64.346-60.859,128.943-121.556,193.395-182.36C2024.024-357.986,2029.684-364.005,2036.293-368.899z"/>
	<path fill="#FF7E00" d="M1366.579-367.503c3.383,2.969,6.635,6.087,9.873,9.219c-94.966,89.465-189.854,179.012-284.873,268.423
		c-3.212-3.078-6.477-6.114-9.689-9.205C1176.726-188.613,1271.758-277.943,1366.579-367.503z"/>
	<path fill="#FF7E00" d="M2065.096-310.643c10.874-10.154,21.55-20.512,32.542-30.518c3.212,3.145,6.608,6.101,9.61,9.463
		c-89.872,84.069-179.072,168.925-268.904,253.062c-1.106,0.935-2.212,1.898-3.304,2.847c-2.699-2.427-5.437-4.813-8.083-7.294
		c40.98-38.639,81.973-77.25,122.953-115.889c4.173-4.298,9.149-7.809,12.796-12.608c-0.066-0.502-0.211-1.518-0.276-2.034
		C1996.379-246.246,2030.922-278.255,2065.096-310.643z"/>
	<path fill="#FF7E00" d="M1499.722-332.077c2.659,2.196,5.279,4.433,7.885,6.684c0.5,0.42,1.488,1.261,1.988,1.681
		c-21.695,20.919-43.837,41.35-65.676,62.093c-73.127,68.912-146.254,137.824-219.354,206.75c-3.094-3.01-6.266-5.925-9.32-8.961
		c12.572-11.849,25.157-23.685,37.715-35.561C1335.209-176.954,1417.59-254.38,1499.722-332.077z"/>
	<path fill="#FF7E00" d="M2138.039-292.68c1.303,0.976,2.62,1.952,3.976,2.888c0.237,0.176,0.737,0.515,0.974,0.691
		c1.646,1.857,3.278,3.742,4.95,5.613c-94.097,88.828-188.34,177.493-282.464,266.308c-2.738,3.972-5.766-1.857-8.254-3.403
		c2.791-3.81,6.595-6.643,9.939-9.91c45.245-42.801,90.767-85.29,135.867-128.253c-1.172-1.139-2.277-2.251-3.409-3.362
		c21.273-20.024,42.52-40.076,63.793-60.113C2088.265-245.73,2113.277-269.063,2138.039-292.68z"/>
	<path fill="#FF7E00" d="M1861.46-244.09c1.066,0.935,2.119,1.884,3.186,2.833c2.277,2.047,4.463,4.189,6.688,6.304
		c-77.155,72.803-154.389,145.525-231.571,218.287c-17.837,16.703-35.451,33.636-53.42,50.189l-0.816-0.8
		c-2.883-2.806-5.766-5.599-8.649-8.406C1671.58-65.336,1766.651-154.571,1861.46-244.09z"/>
	<path fill="#FF7E00" d="M1902.15-195.324c3.686,2.264,6.464,5.843,9.926,8.487c-18.917,18.628-38.571,36.469-57.777,54.799
		c-75.72,71.258-151.217,142.759-227.082,213.854c-1.672-1.573-3.331-3.132-5.029-4.637c-0.276-0.258-0.829-0.746-1.106-0.99
		c-12.006,11.619-24.327,22.871-36.359,34.449c-78.537,74.2-157.154,148.331-235.889,222.3c-3.159-2.793-6.148-5.762-9.399-8.419
		c0.79-1.329,1.593-2.671,2.672-3.755c76.01-71.664,152.099-143.234,228.03-214.979c-0.487-0.691-1.474-2.088-1.961-2.779
		c6.2-5.897,12.493-11.7,18.654-17.652c0.487,0.461,1.461,1.396,1.948,1.857c37.9-35.249,75.378-70.973,113.12-106.412
		c2.159,1.993,4.331,3.999,6.516,6.006C1773.22-73.633,1837.303-134.94,1902.15-195.324z"/>
	<path fill="#FF7E00" d="M1952.108-183.082c1.738-1.749,3.515-3.471,5.305-5.165c3.159,2.901,6.319,5.816,9.307,8.921
		c-1.764,1.64-3.502,3.294-5.239,4.962C1958.335-177.266,1955.215-180.167,1952.108-183.082z"/>
	<path fill="#FF7E00" d="M2194.342-113.749c3.541-3.43,7.043-6.901,10.992-9.829c0.908,0.908,1.83,1.817,2.765,2.739
		c2.185,2.142,4.423,4.243,6.622,6.386c-26.447,24.851-52.828,49.783-79.248,74.661c-63.175,59.503-126.284,119.088-189.485,178.551
		c-1.198,1.017-1.909,2.427-2.778,3.715c-3.001-2.711-5.963-5.45-8.873-8.229c-4.292,3.498-7.885,7.85-12.322,11.158
		c-0.685-0.108-2.054-0.325-2.738-0.434c12.545-11.863,24.946-23.902,37.794-35.425c4.818-3.579,8.767-8.202,13.269-12.147
		C2045.008,27.003,2119.688-43.359,2194.342-113.749z"/>
	<path fill="#FF7E00" d="M2243.958-73.687c1.119-1.871,2.751-0.8,4.265-0.108c1.738,3.118,4.621,5.233,7.267,7.484
		c-28.237,27.142-56.948,53.769-85.383,80.707c-65.742,61.957-131.497,123.942-197.239,185.899c-2.501,3.335-5.081-0.99-7.214-2.454
		c-0.513-0.447-1.527-1.342-2.027-1.79c-0.974-0.99-1.764-2.129-2.607-3.2C2055.473,104.172,2149.636,15.154,2243.958-73.687z"/>
	<path fill="#FF7E00" d="M1672.686,80.284c46.456-44.482,93.663-88.123,140.172-132.537c2.843,3.322,5.99,6.358,9.254,9.246
		c-46.68,44.034-93.373,88.042-140.093,132.035C1678.873,86.154,1675.779,83.212,1672.686,80.284z"/>
	<path fill="#FF7E00" d="M1941.103-15.418c3.475-3.2,6.556-7.213,11.295-8.46l-0.421,2.589
		c-18.061,17.421-36.531,34.395-54.658,51.749c-3.159,3.091-7.016,5.26-10.268,8.216c-44.982,42.53-90.135,84.856-135.078,127.426
		c2.751,2.562,5.397,5.247,8.109,7.863c-28.435,26.437-56.474,53.308-84.883,79.772c-0.408-0.38-1.237-1.125-1.659-1.491
		c-2.383-2.142-4.713-4.338-7.016-6.562l-1.04-1.044c12.532-12.486,25.696-24.295,38.466-36.537
		C1783.001,133.605,1862.052,59.094,1941.103-15.418z"/>
	<path fill="#FF7E00" d="M2116.713-18.956c0.895-0.624,1.843-1.166,2.843-1.654c2.686,2.806,5.516,5.45,8.307,8.148
		c-19.773,18.723-39.664,37.323-59.397,56.1c-2.356-3.783-6.016-6.358-8.952-9.599C2079.261,17.174,2097.44-1.548,2116.713-18.956z"
		/>
	<path fill="#FF7E00" d="M1834.881,20.672c12.769-11.483,24.933-23.658,37.689-35.168c1.896,1.83,3.778,3.715,5.805,5.423
		c-43.955,41.458-87.989,82.836-131.879,124.362c-3.528-2.833-6.766-6.019-9.952-9.246c31.581-29.528,62.951-59.3,94.466-88.909
		C1832.288,18.313,1833.578,19.493,1834.881,20.672z"/>
	<path fill="#FF7E00" d="M1315.199,290.478c64.399-60.574,128.588-121.42,193.118-181.845c3.923,1.925,6.727,6.223,10.281,8.989
		l-1.066,1.179c-17.942,17.773-36.754,34.625-54.92,52.155c-11.44,10.371-22.221,21.516-33.977,31.507
		c-13.112,11.361-25.38,23.753-38.163,35.534c-52.341,49.281-104.589,98.657-156.983,147.884c-3.107-3.132-6.582-5.857-9.478-9.192
		C1254.131,347.676,1284.856,319.26,1315.199,290.478z"/>
	<path fill="#FF7E00" d="M1849.441,145.766c2.501,2.21,4.937,4.501,7.451,6.738c-15.968,15.089-32.028,30.084-47.944,45.241
		c3.172,3.145,6.424,6.209,9.741,9.205c4.226-3.81,8.135-7.985,12.493-11.632c0.882-0.827,1.922-0.963,3.107-0.42
		c-35.714,33.161-70.678,67.204-106.788,99.918c-89.977,84.422-179.678,169.156-269.484,253.794
		c-1.04,1.315-2.567,1.613-3.581,0.108c-2.422-2.047-4.779-4.176-7.188-6.223c-0.053-0.434-0.158-1.288-0.197-1.708
		c1.606-1.79,3.357-3.43,5.108-5.043c75.141-70.661,150.058-141.58,225.265-212.16c-0.592-1.125-1.172-2.251-1.724-3.362
		c23.748-21.963,47.088-44.4,70.744-66.472c-1.869-1.79-3.791-3.552-5.239-5.721c2.212-2.739,4.897-5.003,7.464-7.362
		C1782.29,209.066,1815.78,177.328,1849.441,145.766z"/>
	<path fill="#FF7E00" d="M1590.791,196.308c12.44-11.931,25.051-23.644,37.571-35.493c2.712,2.535,5.41,5.098,8.017,7.768
		c-12.045,11.917-24.314,23.658-37.044,34.788c-10.742,9.192-20.707,19.374-31.146,28.959
		c-55.355,52.142-110.658,104.338-166.04,156.452c-3.252-3.091-6.516-6.141-9.742-9.233
		c65.097-61.388,130.233-122.721,195.317-184.123C1588.501,195.657,1590.028,196.091,1590.791,196.308z"/>
	<path fill="#FF7E00" d="M1809.711,269.694c36.702-34.788,73.64-69.305,110.316-104.121c3.199,2.915,6.371,5.884,9.491,8.907
		c-46.641,44.048-93.36,88.001-140.027,132.008l-0.856-0.773c-2.857-2.562-5.647-5.192-8.399-7.85
		C1789.675,288.065,1799.957,279.157,1809.711,269.694z"/>
	<path fill="#FF7E00" d="M1655.625,186.818c3.094-3.132,5.819,2.535,8.32,4.135c0.843,0.8,2.541,2.413,3.396,3.213
		c-94.44,89.099-188.932,178.131-283.424,267.162c-1.948,2.169-3.831-1.166-5.345-2.223c-1.961-1.912-3.857-3.85-5.766-5.789
		C1467.127,364.542,1561.33,275.632,1655.625,186.818z"/>
	<path fill="#FF7E00" d="M2055.341,195.63c0.974-1.139,2.172-1.573,3.581-1.274c0.342,0.271,1.04,0.8,1.396,1.071
		c-28.869,27.454-58.08,54.541-86.87,82.076c2.383,2.264,4.779,4.542,7.214,6.779c-65.702,62.676-131.997,124.687-198.042,186.97
		c-0.395-0.38-1.172-1.139-1.567-1.505c-2.448-2.4-5.081-4.569-7.727-6.711c0.276-1.139,0.763-2.129,1.474-2.983
		C1868.305,371.903,1961.836,283.78,2055.341,195.63z"/>
	<path fill="#FF7E00" d="M2226.16,196.43c0.329,0.312,1,0.908,1.343,1.207c2.896,2.576,5.7,5.274,8.491,8.012
		c-16.245,15.361-32.581,30.626-48.773,46.041c-78.564,74.254-157.259,148.386-235.994,222.45c-0.382-0.38-1.145-1.139-1.527-1.518
		c-2.317-2.4-4.923-4.433-7.635-6.277c0-0.556,0.013-1.64,0.026-2.183C2036.82,374.954,2131.496,285.706,2226.16,196.43z"/>
	<path fill="#FF7E00" d="M1176.884,314.622c39.479-36.957,78.59-74.322,118.188-111.13c-0.329,0.624-0.987,1.857-1.316,2.467
		c3.015,2.861,6.016,5.721,9.057,8.555c-40.783,38.598-81.605,77.142-122.585,115.495c-3.225-2.752-6.24-5.748-9.465-8.487
		C1172.25,318.745,1174.619,316.684,1176.884,314.622z"/>
	<path fill="#FF7E00" d="M1942.367,238.268c12.48-11.537,24.591-23.536,37.241-34.842c2.541,0.664,4.094,3.362,6.003,5.098
		c-27.026,25.61-54.197,51.071-81.249,76.667c-17.008,15.74-33.542,32.023-50.761,47.519c-1.896-1.735-3.791-3.471-5.674-5.179
		c-3.831,3.172-6.99,7.226-11.4,9.599c-0.566-0.23-1.711-0.691-2.277-0.935c3.686-3.227,7.253-6.616,10.808-10.005
		c-0.158-1.112-0.303-2.196-0.434-3.281c31.318-29.379,62.622-58.785,93.729-88.394
		C1939.681,235.76,1941.024,237.007,1942.367,238.268z"/>
	<path fill="#FF7E00" d="M1389.393,240.817c0.671-0.407,2.001-1.234,2.672-1.64c3.067,2.644,5.832,5.64,8.965,8.216
		c-10.018,10.9-21.352,20.445-31.963,30.735c-18.535,17.733-37.465,35.046-55.882,52.914
		c-65.518,61.862-131.036,123.725-196.738,185.37c-3.146-3.132-6.398-6.142-9.61-9.178
		C1200.948,418.351,1295.256,329.672,1389.393,240.817z"/>
	<path fill="#FF7E00" d="M1869.042,445.913c60.542-56.982,120.939-114.153,181.587-171.026c2.119,1.912,4.265,3.81,6.292,5.843
		c1.264,1.342,2.448,2.752,3.673,4.189c-29.527,28.05-59.265,55.87-88.871,83.839c-9.505,8.622-18.377,18.004-28.263,26.166
		c-7.846,5.87-14.428,13.313-21.774,19.821c-48.721,45.892-97.362,91.851-146.135,137.675c-3.212-3.023-6.464-6.006-9.676-9.016
		C1800.009,510.636,1834.684,478.451,1869.042,445.913z"/>
	<path fill="#FF7E00" d="M2123.979,367.497c31.726-29.813,63.214-59.951,95.177-89.479c2.304,1.559,4.331,3.538,6.332,5.518
		c1.132,1.152,2.238,2.345,3.383,3.552c-87.436,82.32-174.807,164.736-262.204,247.097c-7.543,6.941-14.783,14.222-22.471,20.987
		l-2.238-1.613c47.654-44.902,95.295-89.818,142.95-134.72c15.455-14.818,31.41-29.108,46.548-44.265
		C2128.982,372.174,2126.507,369.788,2123.979,367.497z"/>
	<path fill="#FF7E00" d="M1612.236,329.17c1.369-1.247,3.041-2.061,4.66-2.915c2.804,3.118,6.24,5.613,8.754,9.029
		c-95.085,89.099-189.709,178.727-284.609,268.016c-3.317-2.928-6.45-6.06-9.807-8.934
		c63.767-60.778,128.193-120.851,192.157-181.425C1553.036,385.068,1582.682,357.166,1612.236,329.17z"/>
	<path fill="#FF7E00" d="M1742.482,385.854c4.265-4.162,8.386-8.568,13.441-11.741c-77.485,72.993-154.943,146.027-232.414,219.033
		c-4.7,4.189-8.952,8.948-13.928,12.798c-3.541-2.671-6.608-5.911-9.676-9.111c64.136-60.222,128.1-120.647,192.118-180.991
		c13.612-13.042,27.763-25.515,40.927-39.045C1736.071,379.862,1739.257,382.871,1742.482,385.854z"/>
	<path fill="#FF7E00" d="M1674.186,488.036c30.304-28.376,60.266-57.172,90.78-85.29c2.33,1.586,4.357,3.593,6.345,5.613
		c1.29,1.329,2.514,2.698,3.791,4.094c-87.015,82.253-174.28,164.234-261.322,246.446c-8.754,6.019-15.902,14.086-23.774,21.217
		c-0.816-0.746-2.435-2.25-3.238-2.996c-2.185-1.979-4.397-3.918-6.227-6.223c21.602-21.19,43.995-41.581,65.887-62.459
		C1589.014,568.309,1631.6,528.166,1674.186,488.036z"/>
	<path fill="#FF7E00" d="M1657.336,665.733c92.096-86.767,184.153-173.602,276.263-260.356c2.08,1.898,4.16,3.783,6.2,5.735
		c1.198,1.139,2.356,2.305,3.541,3.484c-94.874,89.519-189.827,178.944-284.741,268.409c-0.829-0.773-2.488-2.318-3.304-3.091
		c-2.001-2.074-4.752-3.647-5.977-6.331C1651.715,670.681,1654.637,668.322,1657.336,665.733z"/>
	<path fill="#FF7E00" d="M1632.153,631.216c55.829-52.128,111.224-104.785,166.908-157.089c2.738,2.481,5.437,5.03,8.057,7.673
		c-94.979,89.356-189.88,178.808-284.715,268.327c-3.383-2.969-6.608-6.101-9.899-9.165
		c39.256-37.052,78.511-74.118,117.872-111.062C1630.81,630.239,1631.705,630.89,1632.153,631.216z"/>
</g>
<g>
	<path fill="#FFD3A9" d="M1821.888-451.26c10.294-9.572,20.418-19.333,30.765-28.85c0.198,0.176,0.619,0.542,0.816,0.719
		c3.225,2.766,6.332,5.681,9.36,8.663c-21.405,20.173-42.836,40.333-64.215,60.534c-1.251-0.963-2.488-1.939-3.699-2.928
		c-25.025,23.319-49.813,46.909-74.746,70.336c-2.027-1.817-4.055-3.647-6.056-5.477c0.606-0.773,1.79-2.318,2.396-3.091
		c26.341-24.268,52.235-49.078,78.34-73.63C1803.34-434.3,1812.871-442.503,1821.888-451.26z"/>
	<path fill="#FFD3A9" d="M1676.859-471.881c2.83-2.454,5.45-5.22,8.754-7.023c3.08,3.037,6.306,5.911,9.268,9.07
		c-35.425,30.884-70.942,61.645-106.353,92.543c-1.198,1.247-2.62,1.925-4.252,2.034c9.399-9.355,19.285-18.18,28.803-27.413
		c-2.712-2.576-5.45-5.125-8.188-7.646c1.448-0.773,2.962-1.491,4.226-2.589C1631.666-432.592,1654.282-452.209,1676.859-471.881z"
		/>
	<path fill="#FFD3A9" d="M1842.753-435.222c1.264-1.274,2.844-2.156,4.449-2.928c2.83,3.091,5.661,6.209,8.636,9.178
		c-17.89,16.852-35.912,33.568-53.578,50.664c-88.858,83.174-177.137,167.013-265.903,250.296c-2.093-2.061-4.186-4.094-6.266-6.155
		c-4.436,3.959-8.649,8.175-13.19,11.998c-1.567,0.827-3.252,1.491-4.568,2.725c-6.938,6.602-13.612,13.557-21.036,19.604
		c-3.344-3.213-6.714-6.386-10.15-9.477c10.558-11.022,22.247-20.811,32.897-31.724c1.843,1.776,3.686,3.566,5.529,5.369
		c16.363-14.493,31.923-29.962,47.97-44.821c78.985-74.511,158.102-148.874,237.008-223.48c-1.672-1.844-3.317-3.688-5.002-5.504
		l2.185,0.271c2.514,1.803,4.726,4.027,6.99,6.141C1820.045-413.801,1831.472-424.43,1842.753-435.222z"/>
	<path fill="#FFD3A9" d="M1828.892-349.187c4.489-4.067,8.596-8.568,13.414-12.229c2.409,2.25,4.897,4.406,7.267,6.711
		c0.54,0.529,1.606,1.586,2.146,2.115c-17.443,17.231-35.622,33.69-53.354,50.623c-77.657,73.197-155.312,146.393-232.981,219.589
		c-11.255,10.29-21.905,21.326-33.582,31.114c-2.896-3.294-6.148-6.223-9.096-9.463
		C1624.86-156.753,1726.817-253.051,1828.892-349.187z"/>
	<path fill="#FFD3A9" d="M2196.698-359.246c2.606,2.372,5.2,4.759,7.714,7.253c0.448,0.434,1.316,1.302,1.751,1.735
		c-21.379,20.16-42.77,40.32-64.149,60.466c-1.356-0.935-2.672-1.912-3.976-2.888c-24.762,23.617-49.774,46.949-74.628,70.458
		c-2.001-1.939-3.962-3.905-5.937-5.843c21.049-19.767,42.02-39.642,63.069-59.422c4.305-4.243,9.07-8.026,12.861-12.812
		c10.663-10.507,21.576-20.783,32.687-30.789C2176.913-339.71,2186.364-350.027,2196.698-359.246z"/>
	<path fill="#FFD3A9" d="M2011.32-311.769c3.475-3.037,6.358-6.968,10.624-8.894c2.896,3.593,6.069,6.941,9.847,9.558
		c-40.44,38.34-81.118,76.45-121.611,114.736c-0.895,0.624-2.686,1.857-3.581,2.481c3.304,2.617,6.503,5.396,9.662,8.216
		c12.44-11.795,24.933-23.536,37.413-35.29c0.395,0.38,1.172,1.125,1.567,1.505c2.185,2.196,4.594,4.162,7.188,5.843
		c0.066,0.515,0.211,1.532,0.276,2.034c-3.646,4.799-8.623,8.311-12.796,12.608c-40.98,38.639-81.973,77.25-122.953,115.889
		c-61.121,57.538-122.032,115.319-183.337,172.626c-2.198-2.535-4.607-4.867-7.227-6.928c-8.78,8.243-17.535,16.499-26.315,24.742
		c-3.818,3.43-7.174,7.457-11.519,10.209c-3.054-2.956-6.253-5.775-8.952-9.097c10.61-10.71,22.063-20.485,32.581-31.29
		c1.698,1.505,3.357,3.064,5.029,4.637c75.865-71.095,151.362-142.597,227.082-213.854c19.206-18.33,38.861-36.171,57.777-54.799
		c-3.462-2.644-6.24-6.223-9.926-8.487c-64.847,60.385-128.93,121.691-193.737,182.13c-2.185-2.006-4.357-4.013-6.516-6.006
		c93.202-87.865,186.431-175.717,279.646-263.569C1990.758-293.181,2001.382-302.116,2011.32-311.769z"/>
	<path fill="#FFD3A9" d="M2186.154-314.805c1.316-1.315,2.962-2.196,4.647-2.956c2.37,3.389,5.437,6.169,8.465,8.921
		c-105.261,99.715-211.008,198.887-316.401,298.452c-1.198,0.895-3.08,3.281-4.489,1.315c-2.027-1.708-3.91-3.593-5.805-5.423
		c-12.756,11.51-24.92,23.685-37.689,35.168c-1.303-1.179-2.593-2.359-3.87-3.538c-1.922-1.776-3.765-3.593-5.621-5.409
		c9.412-9.68,19.575-18.587,29.29-27.955c1.316-1.125,1.856-2.806,2.541-4.352c2.488,1.546,5.516,7.375,8.254,3.403
		c94.124-88.814,188.366-177.48,282.464-266.308c-1.672-1.871-3.304-3.755-4.95-5.613c3.844,0.705,6.332,3.932,9.07,6.467
		C2163.446-293.33,2174.846-304.014,2186.154-314.805z"/>
	<path fill="#FFD3A9" d="M1469.247-172.412c46.404-43.79,92.86-87.499,139.264-131.29c2.37,2.21,4.7,4.501,7.214,6.562
		c0.685,0.529,2.04,1.573,2.725,2.088c-47.141,44.319-94.176,88.76-141.291,133.106c-0.474-0.678-1.422-2.02-1.896-2.698
		l0.685-1.247C1473.801-168.155,1471.511-170.27,1469.247-172.412z"/>
	<path fill="#FFD3A9" d="M1476.513-275.679c4.002-3.688,7.635-7.89,12.427-10.534c1.079,3.688,4.226,5.87,7.28,7.728
		c0.013,0.664,0.053,2.007,0.079,2.684c-106.248,99.986-212.391,200.093-318.533,300.188c-0.513-0.434-1.527-1.315-2.027-1.749
		c-2.356-2.549-6.069-4.487-7.069-7.904c15.428-15.171,31.436-29.772,47.115-44.685
		C1302.694-111.851,1389.59-193.779,1476.513-275.679z"/>
	<path fill="#FFD3A9" d="M2119.122-179.245c22.708-20.011,44.074-41.594,66.545-61.876c3.054,3.064,6.135,6.128,9.662,8.622
		c-7.332,7.958-15.613,14.9-23.327,22.451c-96.204,90.685-192.447,181.344-288.624,272.056c-3.515,3.742-7.714,6.616-11.742,9.707
		c-36.531,34.314-72.903,68.831-109.5,103.09c-0.513-0.203-1.54-0.624-2.054-0.841c-2.712-2.617-5.358-5.301-8.109-7.863
		c44.942-42.57,90.095-84.896,135.078-127.426c3.251-2.956,7.109-5.125,10.268-8.216c18.127-17.353,36.596-34.327,54.658-51.749
		c17.666-16.743,35.622-33.175,53.025-50.203C2042.835-107.635,2081.091-143.318,2119.122-179.245z"/>
	<path fill="#FFD3A9" d="M1722.235-228.431c1.119-0.705,2.606-3.2,3.989-1.546c3.08,2.495,5.792,5.437,8.636,8.216
		c-94.032,88.462-187.879,177.141-281.924,265.589c1.448,1.396,2.896,2.766,4.357,4.162c-16.692,16.621-34.279,32.28-51.169,48.671
		c-2.817,5.884-8.03,9.734-12.532,14.154c-32.91,30.816-65.558,61.93-98.521,92.678c-39.598,36.808-78.709,74.172-118.188,111.13
		c-2.264,2.061-4.634,4.121-6.121,6.901c-0.961,1.79-2.119,3.484-3.686,4.799c-4.292,3.728-8.07,8.053-12.703,11.348
		c-3.199-2.996-6.477-5.897-9.347-9.246c88.227-82.795,176.111-165.983,264.258-248.873c1.027-1.071,1.988-2.21,2.962-3.335
		c-2.251-2.02-4.436-4.094-6.582-6.236c28.421-26.817,56.948-53.525,85.291-80.436
		C1568.096-83.055,1645.186-155.709,1722.235-228.431z"/>
	<path fill="#FFD3A9" d="M1481.279-130.167c28.83-26.762,57.277-53.958,85.988-80.856c0.763,0.664,2.277,2.02,3.028,2.684
		c-17.482,17.231-35.688,33.677-53.394,50.678C1439.93-85.237,1363.078-12.678,1286.12,59.786
		c-11.914,10.941-23.261,22.559-35.556,33.066c-3.159-2.915-6.253-5.925-9.241-9.029c14.402-14.208,29.422-27.752,44.021-41.757
		c63.227-59.449,126.218-119.156,189.551-178.483C1477.013-134.329,1479.146-132.255,1481.279-130.167z"/>
	<path fill="#FFD3A9" d="M1838.449-76.792c38.071-35.181,75.47-71.163,113.396-106.534l0.263,0.244
		c3.107,2.915,6.227,5.816,9.373,8.717c-46.43,43.817-92.9,87.594-139.369,131.358c-3.265-2.888-6.411-5.925-9.254-9.246
		c7.596-7.267,15.428-14.276,22.892-21.665c-0.184-0.461-0.527-1.396-0.711-1.871c1.093-0.949,2.198-1.912,3.304-2.847
		L1838.449-76.792z"/>
	<path fill="#FFD3A9" d="M1507.725-67.18c36.294-34.043,72.271-68.451,108.762-102.25c2.593,3.755,6.832,6.006,9.017,10.073
		c-21.576,19.523-42.428,39.886-63.741,59.734c-73.548,69.305-147.11,138.624-220.658,207.943
		c-11.795,10.765-22.932,22.315-35.122,32.578c-3.067-2.996-6.227-5.884-9.36-8.799c28.224-27.305,57.119-53.904,85.58-80.965
		C1424.028,11.684,1465.89-27.741,1507.725-67.18z"/>
	<path fill="#FFD3A9" d="M2075.877-103.703c12.598-11.673,24.907-23.671,37.584-35.236l0.987,0.719
		c2.106,1.735,3.923,3.81,5.871,5.735c-106.445,100.324-212.89,200.662-319.336,300.973c-1.553-1.315-3.094-2.617-4.621-3.905
		c-12.598,11.171-24.617,23.034-36.926,34.544c-1.619-0.637-3.225-1.274-4.831-1.884C1810,145.02,1865.526,92.932,1920.75,40.533
		c-2.067-2.074-4.12-4.149-6.135-6.25c51.498-48.142,102.483-96.868,154.073-144.888
		C2071.059-108.272,2073.455-105.981,2075.877-103.703z"/>
	<path fill="#FFD3A9" d="M1665.432,107.358c78.103-73.589,156.285-147.084,234.23-220.85c2.659,2.264,5.279,4.609,7.872,6.969
		c-9.57,9.938-19.97,18.98-29.87,28.552c-20.878,19.672-41.73,39.344-62.609,59.002c0.5,0.475,1.488,1.437,1.988,1.912
		c-62.858,59.326-125.796,118.572-188.681,177.872c-12.519,11.849-25.13,23.563-37.571,35.493c-0.764-0.217-2.291-0.651-3.067-0.881
		c-2.106-2.969-4.792-5.409-7.161-8.134C1608.958,160.774,1637.195,134.066,1665.432,107.358z"/>
	<path fill="#FFD3A9" d="M2125.559-100.734c1.093-0.949,2.356-1.681,3.62-2.427c2.686,3.05,5.568,5.897,8.609,8.595
		c-0.948,1.166-1.764,2.44-2.844,3.471c-36.715,34.517-73.338,69.156-110.066,103.646c-7.727,7.728-16.166,14.669-23.603,22.709
		l1.83,0.583c-56.198,53.091-112.409,106.181-168.817,159.055c-1.185-0.542-2.225-0.407-3.107,0.42
		c-4.357,3.647-8.267,7.823-12.493,11.632c-3.317-2.996-6.569-6.06-9.741-9.205c15.915-15.157,31.976-30.152,47.944-45.241
		C1946.434,68.082,2036.016-16.312,2125.559-100.734z"/>
	<path fill="#FFD3A9" d="M2287.255-91.298c3.554-3.267,6.766-7.05,11.058-9.327c1.909,3.864,5.503,6.291,8.241,9.477
		c-103.773,98.074-207.809,195.891-311.675,293.87c-2.567,2.522-5.134,5.098-8.201,6.968c-0.263-0.285-0.79-0.868-1.066-1.166
		c-1.909-1.735-3.462-4.433-6.003-5.098c-12.651,11.307-24.762,23.305-37.241,34.842c-1.343-1.261-2.686-2.508-4.015-3.755
		c-1.922-1.83-3.831-3.647-5.726-5.477c10.966-10.439,22.063-20.743,33.029-31.196c2.133,1.464,4.713,5.789,7.214,2.454
		c65.742-61.957,131.497-123.942,197.239-185.899c28.435-26.939,57.146-53.565,85.383-80.707c-2.646-2.251-5.529-4.365-7.267-7.484
		c0.579,0.163,1.724,0.502,2.304,0.664c2.672,2.21,5.173,4.61,7.833,6.86c1.198,1.735,2.567-0.461,3.607-1.139
		C2270.365-75.409,2278.816-83.34,2287.255-91.298z"/>
	<path fill="#FFD3A9" d="M1862.802,42.242c36.188-33.907,71.955-68.302,108.473-101.816l1.882,0.285
		c-3.962,4.081-8.254,7.782-12.335,11.714c2.764,2.684,5.542,5.342,8.359,7.985c-5.582,5.247-11.071,10.629-16.784,15.713
		c-4.739,1.247-7.819,5.26-11.295,8.46C1862.051,59.094,1783,133.606,1703.95,208.104c-12.769,12.242-25.933,24.051-38.466,36.537
		l1.04,1.044c-5.647,5.301-11.203,10.697-16.942,15.876c-2.936-2.725-5.503-6.101-9.254-7.66c0.211-1.451,0.711-2.82,1.896-3.728
		c27.684-26.274,55.698-52.182,83.198-78.66C1771.404,128.643,1816.978,85.3,1862.802,42.242z"/>
	<path fill="#FFD3A9" d="M1945.987,138.757c63.201-59.463,126.31-119.047,189.485-178.551c1.119,1.613,2.62,3.986,0.158,5.233
		c-5.542,4.42-9.807,10.629-16.073,13.951c-1,0.488-1.948,1.03-2.843,1.654c-19.272,17.408-37.452,36.13-57.198,52.996
		c2.936,3.24,6.595,5.816,8.952,9.599c-46.404,43.519-92.597,87.269-138.948,130.842c-3.12-3.023-6.292-5.992-9.491-8.907
		c6.437-6.209,12.953-12.337,19.522-18.397c1.488-1.342,2.672-2.969,3.66-4.704C1944.078,141.184,1944.789,139.774,1945.987,138.757
		z"/>
	<path fill="#FFD3A9" d="M2289.914-20.963c1.093-0.746,2.304-2.942,3.818-1.803c3.173,2.332,5.779,5.382,8.596,8.162
		c-4.081,4.732-8.912,8.69-13.362,13.042c-101.917,96.068-203.847,192.108-305.751,288.189c-0.869-0.786-1.724-1.573-2.554-2.345
		c-2.435-2.237-4.831-4.515-7.214-6.779c28.79-27.535,58.001-54.623,86.87-82.076c16.179-15.374,32.476-30.64,48.721-45.946
		c1.145-1.22,2.185-2.535,3.265-3.823c29.08-26.857,57.646-54.311,86.581-81.344c20.141-19.523,41.204-37.961,61.45-57.361
		C2270.233-2.321,2280.08-11.622,2289.914-20.963z"/>
	<path fill="#FFD3A9" d="M2209.599,89.042c4.094-3.688,7.701-8.08,12.572-10.765c1.277,2.739,3.423,4.813,5.897,6.44
		c-106.669,100.46-213.273,201.002-319.916,301.489c-1.343-1.424-2.659-2.82-3.989-4.23c-13.23,10.887-24.92,23.671-37.873,34.924
		c-1.251-0.908-2.475-1.803-3.712-2.671c55.25-52.101,110.592-104.094,165.75-156.29c-2.133-1.993-4.252-3.986-6.358-5.979
		c50.524-47.736,101.167-95.308,151.677-143.044c3.449-4.311,6.648,2.969,9.465,4.826
		C2192.17,105.772,2200.726,97.217,2209.599,89.042z"/>
	<path fill="#FFD3A9" d="M1460.953,198.667c41.099-38.571,81.96-77.44,123.164-115.902c0.671,0.651,2.04,1.939,2.712,2.589
		c-6.161,5.952-12.453,11.754-18.654,17.652c0.487,0.691,1.474,2.088,1.961,2.779c-75.931,71.746-152.02,143.315-228.03,214.979
		c-1.079,1.085-1.883,2.427-2.672,3.755c-4.094,6.101-10.268,10.507-15.547,15.51c-4.476-1.085-7.188-6.087-10.702-8.989
		c18.417-17.869,37.347-35.181,55.882-52.914c10.61-10.29,21.945-19.834,31.963-30.735c0.408,0.041,1.211,0.108,1.619,0.136
		c17.548-16.242,34.714-32.931,52.341-49.078c1.027-1.085,1.764-2.345,2.225-3.796
		C1458.452,195.996,1459.689,197.325,1460.953,198.667z"/>
	<path fill="#FFD3A9" d="M1646.673,335.366c67.361-63.381,134.564-126.938,201.991-190.251l0.777,0.651
		c-33.661,31.562-67.15,63.299-100.772,94.902c-2.567,2.359-5.253,4.623-7.464,7.362c1.448,2.169,3.37,3.932,5.239,5.721
		c-23.656,22.071-46.996,44.509-70.744,66.472c0.553,1.112,1.132,2.237,1.724,3.362c-75.207,70.58-150.124,141.498-225.265,212.16
		c-1.751,1.613-3.502,3.254-5.108,5.043c0.039,0.42,0.145,1.274,0.197,1.708c-5.621,5.382-10.86,11.361-17.324,15.686
		c-2.396-3.172-5.503-5.613-8.201-8.46c-0.487-1.681,1.461-2.549,2.317-3.606c69.81-65.604,139.33-131.547,209.258-197.03
		c-0.777-1.464-1.54-2.928-2.277-4.379c4.357-3.891,8.978-7.565,12.519-12.31C1644.58,333.387,1645.62,334.363,1646.673,335.366z"/>
	<path fill="#FFD3A9" d="M1995.537,235.855c27.921-26.152,55.5-52.711,83.737-78.484l1.896,0.258
		c-4.147,4.338-8.794,8.121-12.927,12.473c2.817,2.535,5.608,5.125,8.385,7.728c-5.858,5.559-11.611,11.253-17.706,16.526
		c-1.408-0.298-2.606,0.136-3.581,1.274c-93.505,88.15-187.036,176.273-280.542,264.423c-0.711,0.854-1.198,1.844-1.474,2.983
		c-4.7,5.992-10.834,10.602-16.205,15.93c-2.87-2.671-5.792-5.26-8.583-7.999c-1.803-1.22,0.803-2.874,1.553-3.81
		c27.671-25.99,55.29-52.02,82.855-78.104C1887.196,338.036,1941.327,286.911,1995.537,235.855z"/>
	<path fill="#FFD3A9" d="M1664.076,172.393c3.818,1.6,6.608,5.843,10.071,8.406c-3.094,3.715-6.832,6.752-10.202,10.154
		c-2.501-1.6-5.226-7.267-8.32-4.135c-94.295,88.814-188.498,177.724-282.819,266.498c1.909,1.939,3.804,3.877,5.766,5.789
		c-7.319,8.324-15.863,15.388-23.814,23.061c-3.212-2.956-6.398-5.965-9.61-8.921c14.889-15.008,30.712-29.013,45.903-43.682
		C1482.095,343.88,1572.954,257.981,1664.076,172.393z"/>
	<path fill="#FFD3A9" d="M1921.659,478.749c106.867-100.731,213.773-201.422,320.6-302.194c0.843,1.573,1.659,3.172,2.554,4.759
		c-5.95,5.247-11.584,10.846-17.311,16.323c-0.342-0.298-1.014-0.895-1.343-1.207c-94.663,89.275-189.34,178.524-284.069,267.731
		c-0.013,0.542-0.026,1.627-0.026,2.183c-5.213,5.287-10.689,10.304-16.139,15.333l-1.725-1.329
		C1923.371,479.752,1922.515,479.224,1921.659,478.749z"/>
	<path fill="#FFD3A9" d="M1748.169,362.088c57.949-54.704,116.082-109.205,173.899-164.044c3.278,3.24,6.635,6.399,10.005,9.544
		c-45.258,41.757-89.727,84.463-134.696,126.572c-8.07,10.67-18.851,18.587-28.053,28.145c-4.463,3.932-8.583,8.324-13.401,11.808
		c-5.055,3.172-9.175,7.579-13.441,11.741c-3.225-2.983-6.411-5.992-9.531-9.056
		C1737.716,371.564,1743.114,367.009,1748.169,362.088z"/>
	<path fill="#FFD3A9" d="M1863.342,444.679c64.689-60.846,129.193-121.881,193.934-182.672c0.421,0.149,1.237,0.434,1.659,0.569
		c0.685,0.705,2.08,2.101,2.765,2.806c1.803,1.884,3.646,3.742,5.529,5.586c-3.436,3.267-6.872,6.508-10.307,9.761
		c-2.027-2.034-4.173-3.932-6.292-5.843c-60.647,56.873-121.045,114.045-181.587,171.026
		c-34.358,32.538-69.033,64.723-103.167,97.491c3.212,3.01,6.464,5.992,9.676,9.016c48.773-45.824,97.415-91.784,146.135-137.675
		c7.346-6.508,13.928-13.951,21.774-19.821c2.264,2.101,4.489,4.271,6.687,6.494c-3.278,3.43-6.753,6.63-10.347,9.694
		c-2.041-1.952-4.12-3.837-6.2-5.735c-92.11,86.754-184.167,173.589-276.263,260.356c-2.699,2.589-5.621,4.948-8.017,7.85
		c1.224,2.684,3.976,4.257,5.977,6.331c-8.636,6.833-15.81,15.564-24.538,22.207c-3.66-2.4-6.582-5.762-9.478-9.016
		c48.997-46.054,97.889-92.258,146.833-138.353c1.619-1.274,3.028-2.82,4.015-4.664c-9.07,5.911-15.678,15.008-24.235,21.651
		c-3.08-2.928-7.727-5.26-9.149-9.327C1780,522.891,1821.888,484.009,1863.342,444.679z"/>
	<path fill="#FFD3A9" d="M1911.418,561.354c104.826-98.874,209.692-197.653,314.492-296.581c3.554,2.657,6.688,5.83,9.768,9.056
		c-3.225,3.416-6.701,6.575-10.189,9.707c-2.001-1.979-4.028-3.959-6.332-5.518c-31.963,29.528-63.451,59.666-95.177,89.479
		c-0.54-0.475-1.619-1.437-2.159-1.925c-71.521,67.421-143.042,134.855-214.589,202.236
		C1907.047,564.839,1909.601,563.171,1911.418,561.354z"/>
	<path fill="#FFD3A9" d="M1775.103,391.995c19.588-18.75,39.374-37.269,59.147-55.802c0.566,0.244,1.711,0.705,2.277,0.935
		c-2.054,1.247-3.936,2.766-5.687,4.42c-18.127,17.394-36.583,34.395-54.723,51.762c1.856,1.749,3.712,3.498,5.582,5.26
		c-3.462,3.267-6.911,6.521-10.386,9.788c-1.988-2.02-4.015-4.027-6.345-5.613c-30.515,28.118-60.476,56.914-90.78,85.29
		c-42.586,40.13-85.172,80.273-127.758,120.403c-21.892,20.878-44.284,41.269-65.887,62.459c1.83,2.305,4.041,4.243,6.227,6.223
		c-8.807,6.575-15.863,15.442-24.551,22.099c-3.607-2.115-6.2-5.694-9.452-8.324c0.737-1.003,1.501-1.966,2.304-2.874
		c56.527-53.403,113.212-106.642,169.726-160.059c49.036-46.122,97.994-92.339,147.004-138.502
		C1772.891,390.286,1773.997,391.141,1775.103,391.995z"/>
</g>
<g>
	<path fill="#00FFFF" d="M2166.092-331.088c12.967-12.364,26.052-24.58,39.058-36.89c2.659,2.495,5.332,4.989,8.057,7.416
		c-2.725,3.078-5.766,5.816-8.794,8.568c-2.514-2.495-5.108-4.881-7.714-7.253C2186.364-350.027,2176.913-339.71,2166.092-331.088z"
		/>
	<path fill="#00FFFF" d="M2019.048-192.775c38.018-35.941,76.286-71.624,114.357-107.524c-3.791,4.786-8.557,8.568-12.861,12.812
		c-21.049,19.78-42.02,39.655-63.069,59.422c1.975,1.939,3.936,3.905,5.937,5.843c-21.273,20.038-42.52,40.089-63.793,60.113
		c-2.054-1.966-4.12-3.905-6.174-5.857c-3.831,3.498-7.425,7.267-11.479,10.48C1993.996-169.592,2006.739-180.953,2019.048-192.775z
		"/>
	<path fill="#00FFFF" d="M1732.332-172.114c17.798-16.865,35.714-33.609,53.499-50.501c2.001-2.427,3.607,0.773,5.16,1.79
		c2.159,2.074,4.305,4.176,6.49,6.25C1720.997-142.463,1644.487-70.379,1567.99,1.72c-30.001,28.159-59.765,56.602-89.911,84.557
		c-3.357-2.684-7.056-5.531-9.347-9.192c16.324-16.269,33.766-31.372,49.984-47.776c15.626-14.94,31.397-29.745,47.194-44.509
		c4.055-3.078,7.701-6.657,11.071-10.493c22.195-20.919,44.337-41.906,66.611-62.73c4.055-3.064,7.688-6.657,11.058-10.466
		c22.168-20.919,44.311-41.879,66.558-62.703C1725.276-164.671,1728.936-168.25,1732.332-172.114z"/>
	<path fill="#00FFFF" d="M1920.185-99.243c19.838-19.618,40.664-38.205,60.647-57.7c-2.317,3.715-5.924,6.236-8.938,9.287
		C1954.596-131.591,1937.72-115.01,1920.185-99.243z"/>
	<path fill="#00FFFF" d="M1905.27-84.709c3.37-5.884,9.544-8.867,13.664-14.032c-2.001,3.511-5.239,5.952-8.425,8.229
		c0.118,0.705,0.355,2.101,0.474,2.806l-1.474-1.898c-1.29,1.695-2.356,3.593-3.989,4.962c-9.096,7.104-16.574,16.174-25.815,23.075
		l1.738,1.491c-0.684-0.081-2.067-0.23-2.751-0.312c-13.836,14.71-29.527,27.413-43.481,41.987c0.053-0.312,0.171-0.935,0.224-1.247
		c7.819-7.253,15.244-15.022,23.564-21.678c-0.184-0.759-0.553-2.278-0.75-3.037l1.053,2.576
		c6.345-6.874,13.625-12.771,19.931-19.685c9.004-7.199,16.613-16.106,25.723-23.156c-0.198-0.841-0.606-2.508-0.803-3.349
		L1905.27-84.709z"/>
	<path fill="#00FFFF" d="M1071.478,300.93c132.05-124.497,264.139-248.954,396.202-373.438c3.41,2.874,6.595,5.992,9.886,9.029
		c-131.984,124.674-264.244,249.023-396.267,373.642C1077.955,307.153,1074.703,304.049,1071.478,300.93z"/>
	<path fill="#00FFFF" d="M1824.811-9.724c2.949-2.752,5.805-5.626,8.978-8.134c-26.17,25.325-52.946,50-79.34,75.067
		c-39.335,37.147-78.827,74.132-118.069,111.374c-2.607-2.671-5.305-5.233-8.017-7.768c62.885-59.3,125.823-118.546,188.682-177.873
		C1819.611-14.591,1822.204-12.15,1824.811-9.724z"/>
	<path fill="#00FFFF" d="M1629.375,399.71c106.551-100.338,212.957-200.853,319.586-301.096c3.146,3.05,6.345,6.06,9.623,8.975
		c-0.382,0.488-1.132,1.464-1.514,1.952c-12.848,11.524-25.249,23.563-37.794,35.425c-43.442,40.862-86.805,81.819-130.233,122.708
		c-49.879,47.112-99.942,94.048-149.756,141.268c-2.304-2.02-4.568-4.094-6.78-6.209
		C1631.455,401.716,1630.402,400.713,1629.375,399.71z"/>
</g>
</svg>
